<svg width="121" height="981" viewBox="0 0 121 981" fill="none" xmlns="http://www.w3.org/2000/svg">
<g clip-path="url(#clip0_5_1157)">
<path d="M82.2734 928.125H39.3047V916.479C39.3047 913.354 40.0697 911.084 41.5996 909.668C43.1133 908.236 45.6198 907.52 49.1191 907.52H50.999C53.0173 907.52 54.653 907.886 55.9062 908.618C57.1595 909.334 57.9814 910.433 58.3721 911.914C58.8604 909.977 60.0078 908.683 61.8145 908.032C63.6048 907.365 65.7939 907.031 68.3818 907.031C71.165 907.031 73.5983 907.292 75.6816 907.812C77.765 908.333 79.3844 909.277 80.54 910.645C81.6956 912.012 82.2734 913.957 82.2734 916.479V928.125ZM55.4912 919.727V917.969C55.4912 917.171 55.182 916.659 54.5635 916.431C53.945 916.203 53.2044 916.089 52.3418 916.089H48.0205C46.637 916.089 45.9453 916.699 45.9453 917.92V919.727H55.4912ZM74.7051 918.872C74.7051 916.642 73.6471 915.527 71.5312 915.527H66.1602C64.9395 915.527 63.9792 915.715 63.2793 916.089C62.5632 916.447 62.2051 917.131 62.2051 918.14V919.727H74.6562C74.6888 919.368 74.7051 919.084 74.7051 918.872ZM82.2734 903.199H39.3047L39.3047 886.012H47.6055V894.459H55.9795V886.354H64.0605V894.459H73.8994V885.45H82.2734V903.199ZM82.2734 881.594H39.3047V868.41C39.3047 866.213 39.8092 864.553 40.8184 863.43C41.8112 862.307 43.2109 861.558 45.0176 861.184C46.8079 860.793 48.9157 860.598 51.3408 860.598C53.6846 860.598 55.5563 860.899 56.9561 861.501C58.3558 862.087 59.3242 863.202 59.8613 864.846C60.138 863.495 60.8135 862.551 61.8877 862.014C62.9456 861.46 64.321 861.184 66.0137 861.184H82.2734V869.655H65.4521C64.1989 869.655 63.4258 869.916 63.1328 870.437C62.8236 870.941 62.6689 871.763 62.6689 872.902H82.2734V881.594ZM55.2227 872.854V870.778C55.2227 869.59 53.9287 868.996 51.3408 868.996C49.6644 868.996 48.5658 869.126 48.0449 869.387C47.5241 869.647 47.2637 870.135 47.2637 870.852V872.854H55.2227ZM82.2734 856.766H39.3047V848.172H74.9492V839.334H82.2734V856.766ZM82.2734 836.283H39.3047V827.982H82.2734L82.2734 836.283ZM82.2734 823.564H39.3047V814.727L59.8857 810.771H39.3047L39.3047 802.471H82.2734V810.869L60.7891 815.166H82.2734V823.564ZM82.6641 774.934C82.6641 778.042 81.6956 780.549 79.7588 782.453C77.8219 784.341 75.112 785.285 71.6289 785.285H51.8047C47.638 785.285 44.4479 784.463 42.2344 782.819C40.0208 781.159 38.9141 778.465 38.9141 774.738C38.9141 772.704 39.2884 770.897 40.0371 769.318C40.7858 767.723 41.9089 766.47 43.4062 765.559C44.8874 764.647 46.7591 764.191 49.0215 764.191H56.4434V772.736H50.0957C48.8099 772.736 47.9473 772.899 47.5078 773.225C47.0521 773.55 46.8242 774.055 46.8242 774.738C46.8242 775.536 47.1172 776.073 47.7031 776.35C48.2728 776.626 49.0378 776.765 49.998 776.765H71.5068C72.695 776.765 73.5332 776.594 74.0215 776.252C74.5098 775.894 74.7539 775.389 74.7539 774.738C74.7539 774.006 74.4528 773.493 73.8506 773.2C73.2484 772.891 72.4671 772.736 71.5068 772.736H63.7676V764.094H71.8975C75.6735 764.094 78.416 765.046 80.125 766.95C81.8177 768.854 82.6641 771.516 82.6641 774.934ZM82.6641 749.959C82.6641 753.393 81.6305 756.022 79.5635 757.845C77.4801 759.651 74.4772 760.555 70.5547 760.555H50.1445C46.4661 760.555 43.6748 759.66 41.7705 757.869C39.8662 756.062 38.9141 753.426 38.9141 749.959C38.9141 746.492 39.8662 743.864 41.7705 742.073C43.6748 740.267 46.4661 739.363 50.1445 739.363H70.5547C74.4772 739.363 77.4801 740.275 79.5635 742.098C81.6305 743.904 82.6641 746.525 82.6641 749.959ZM74.7539 749.886C74.7539 748.584 73.4925 747.933 70.9697 747.933H49.998C47.8822 747.933 46.8242 748.567 46.8242 749.837C46.8242 751.269 47.9066 751.985 50.0713 751.985H71.0186C72.3532 751.985 73.3135 751.823 73.8994 751.497C74.4691 751.172 74.7539 750.634 74.7539 749.886ZM82.2734 734.896H39.3047L39.3047 717.709H47.6787V726.254H54.5146V718.148H62.791V726.254H82.2734V734.896ZM82.2734 713.926H39.3047V696.738H47.6787V705.283H54.5146V697.178H62.791V705.283H82.2734V713.926ZM82.2734 692.955H39.3047V675.768H47.6055V684.215H55.9795L55.9795 676.109H64.0605L64.0605 684.215H73.8994L73.8994 675.206H82.2734L82.2734 692.955ZM82.2734 671.35H39.3047L39.3047 654.162H47.6055V662.609H55.9795V654.504H64.0605V662.609H73.8994V653.601H82.2734V671.35ZM82.2734 637.025H39.3047V623.842C39.3047 621.645 39.8092 619.984 40.8184 618.861C41.8112 617.738 43.2109 616.99 45.0176 616.615C46.8079 616.225 48.9157 616.029 51.3408 616.029C53.6846 616.029 55.5563 616.33 56.9561 616.933C58.3558 617.519 59.3242 618.633 59.8613 620.277C60.138 618.926 60.8135 617.982 61.8877 617.445C62.9456 616.892 64.321 616.615 66.0137 616.615H82.2734V625.087H65.4521C64.1989 625.087 63.4258 625.347 63.1328 625.868C62.8236 626.373 62.6689 627.195 62.6689 628.334H82.2734V637.025ZM55.2227 628.285V626.21C55.2227 625.022 53.9287 624.428 51.3408 624.428C49.6644 624.428 48.5658 624.558 48.0449 624.818C47.5241 625.079 47.2637 625.567 47.2637 626.283V628.285H55.2227ZM82.6641 601.943C82.6641 605.378 81.6305 608.006 79.5635 609.829C77.4801 611.636 74.4772 612.539 70.5547 612.539H50.1445C46.4661 612.539 43.6748 611.644 41.7705 609.854C39.8662 608.047 38.9141 605.41 38.9141 601.943C38.9141 598.477 39.8662 595.848 41.7705 594.058C43.6748 592.251 46.4661 591.348 50.1445 591.348H70.5547C74.4772 591.348 77.4801 592.259 79.5635 594.082C81.6305 595.889 82.6641 598.509 82.6641 601.943ZM74.7539 601.87C74.7539 600.568 73.4925 599.917 70.9697 599.917H49.998C47.8822 599.917 46.8242 600.552 46.8242 601.821C46.8242 603.254 47.9066 603.97 50.0713 603.97H71.0186C72.3532 603.97 73.3135 603.807 73.8994 603.481C74.4691 603.156 74.7539 602.619 74.7539 601.87ZM82.2734 588.053L39.3047 583.902L39.3047 569.327L82.2734 565.25V573.38L75.3398 573.99V579.166L82.2734 579.703V588.053ZM68.4795 578.556V574.649L46.6289 576.529V576.92L68.4795 578.556ZM82.6641 551.408C82.6641 555.331 81.6875 558.163 79.7344 559.904C77.7812 561.63 74.6725 562.492 70.4082 562.492H66.209V553.996H71.5801C72.5729 553.996 73.3542 553.85 73.9238 553.557C74.4772 553.247 74.7539 552.718 74.7539 551.97C74.7539 551.188 74.526 550.651 74.0703 550.358C73.6146 550.049 72.8659 549.895 71.8242 549.895C70.5059 549.895 69.4072 550.025 68.5283 550.285C67.6331 550.546 66.7868 551.001 65.9893 551.652C65.1755 552.287 64.2314 553.174 63.1572 554.313L59.4951 558.171C56.777 561.052 53.6683 562.492 50.1689 562.492C46.5068 562.492 43.7155 561.646 41.7949 559.953C39.8743 558.244 38.9141 555.778 38.9141 552.556C38.9141 548.617 39.9639 545.826 42.0635 544.182C44.1631 542.521 47.3532 541.691 51.6338 541.691V550.432H48.6797C48.0937 550.432 47.638 550.603 47.3125 550.944C46.987 551.27 46.8242 551.717 46.8242 552.287C46.8242 552.971 47.0195 553.475 47.4102 553.801C47.7845 554.11 48.2728 554.265 48.875 554.265C49.4772 554.265 50.1283 554.102 50.8281 553.776C51.528 553.451 52.3337 552.808 53.2451 551.848L58.0059 546.892C58.9499 545.899 59.9508 544.987 61.0088 544.157C62.0505 543.327 63.2712 542.66 64.6709 542.155C66.0544 541.651 67.7471 541.398 69.749 541.398C73.7855 541.398 76.9512 542.147 79.2461 543.645C81.5247 545.126 82.6641 547.714 82.6641 551.408ZM82.2734 533.831H47.5566V538.934H39.3047V520.135H47.5566V525.237H82.2734V533.831ZM82.2734 516.742H39.3047L39.3047 499.555H47.6055V508.002H55.9795V499.896H64.0605V508.002H73.8994V498.993H82.2734V516.742ZM82.2734 495.137H39.3047L39.3047 481.953C39.3047 479.756 39.8092 478.096 40.8184 476.973C41.8112 475.85 43.2109 475.101 45.0176 474.727C46.8079 474.336 48.9157 474.141 51.3408 474.141C53.6846 474.141 55.5563 474.442 56.9561 475.044C58.3558 475.63 59.3242 476.745 59.8613 478.389C60.138 477.038 60.8135 476.094 61.8877 475.557C62.9456 475.003 64.321 474.727 66.0137 474.727H82.2734V483.198H65.4521C64.1989 483.198 63.4258 483.459 63.1328 483.979C62.8236 484.484 62.6689 485.306 62.6689 486.445H82.2734V495.137ZM55.2227 486.396V484.321C55.2227 483.133 53.9287 482.539 51.3408 482.539C49.6644 482.539 48.5658 482.669 48.0449 482.93C47.5241 483.19 47.2637 483.678 47.2637 484.395V486.396H55.2227ZM82.2734 465.108H68.1377L39.3047 471.969V463.448L53.8555 461.056L39.3047 458.663V450.167L68.1377 457.003H82.2734V465.108Z" fill="#202020"/>
<path d="M1.27344 980.03V0.0297852H-0.726562V980.03H1.27344Z" fill="#1D1D1B" mask="url(#path-1-inside-1_5_1157)"/>
</g>
<defs>
<clipPath id="clip0_5_1157">
<rect width="119.875" height="980" fill="white" transform="translate(0.273438 0.0297852)"/>
</clipPath>
</defs>
</svg>
