<svg width="121" height="981" viewBox="0 0 121 981" fill="none" xmlns="http://www.w3.org/2000/svg">
<g clip-path="url(#clip0_5_1154)">
<path d="M82.3984 928.125H39.4297V919.531H75.0742V910.693H82.3984V928.125ZM82.3984 907.643H39.4297L39.4297 899.342H82.3984V907.643ZM82.7891 884.719C82.7891 888.641 81.8125 891.473 79.8594 893.215C77.9062 894.94 74.7975 895.803 70.5332 895.803H66.334V887.307H71.7051C72.6979 887.307 73.4792 887.16 74.0488 886.867C74.6022 886.558 74.8789 886.029 74.8789 885.28C74.8789 884.499 74.651 883.962 74.1953 883.669C73.7396 883.36 72.9909 883.205 71.9492 883.205C70.6309 883.205 69.5322 883.335 68.6533 883.596C67.7581 883.856 66.9118 884.312 66.1143 884.963C65.3005 885.598 64.3564 886.485 63.2822 887.624L59.6201 891.481C56.902 894.362 53.7933 895.803 50.2939 895.803C46.6318 895.803 43.8405 894.956 41.9199 893.264C39.9993 891.555 39.0391 889.089 39.0391 885.866C39.0391 881.927 40.0889 879.136 42.1885 877.492C44.2881 875.832 47.4782 875.002 51.7588 875.002L51.7588 883.742H48.8047C48.2187 883.742 47.763 883.913 47.4375 884.255C47.112 884.58 46.9492 885.028 46.9492 885.598C46.9492 886.281 47.1445 886.786 47.5352 887.111C47.9095 887.421 48.3978 887.575 49 887.575C49.6022 887.575 50.2533 887.412 50.9531 887.087C51.653 886.761 52.4587 886.118 53.3701 885.158L58.1309 880.202C59.0749 879.209 60.0758 878.298 61.1338 877.468C62.1755 876.638 63.3962 875.97 64.7959 875.466C66.1794 874.961 67.8721 874.709 69.874 874.709C73.9105 874.709 77.0762 875.458 79.3711 876.955C81.6497 878.436 82.7891 881.024 82.7891 884.719ZM82.3984 870.828H39.4297V859.183C39.4297 856.058 40.1947 853.787 41.7246 852.371C43.2383 850.939 45.7448 850.223 49.2441 850.223H51.124C53.1423 850.223 54.778 850.589 56.0312 851.321C57.2845 852.037 58.1064 853.136 58.4971 854.617C58.9854 852.68 60.1328 851.386 61.9395 850.735C63.7298 850.068 65.9189 849.734 68.5068 849.734C71.29 849.734 73.7233 849.995 75.8066 850.516C77.89 851.036 79.5094 851.98 80.665 853.348C81.8206 854.715 82.3984 856.66 82.3984 859.183V870.828ZM55.6162 862.43V860.672C55.6162 859.874 55.307 859.362 54.6885 859.134C54.07 858.906 53.3294 858.792 52.4668 858.792H48.1455C46.762 858.792 46.0703 859.402 46.0703 860.623V862.43H55.6162ZM74.8301 861.575C74.8301 859.345 73.7721 858.23 71.6562 858.23H66.2852C65.0645 858.23 64.1042 858.418 63.4043 858.792C62.6882 859.15 62.3301 859.834 62.3301 860.843V862.43H74.7812C74.8138 862.072 74.8301 861.787 74.8301 861.575ZM82.7891 835.648C82.7891 839.083 81.7555 841.711 79.6885 843.534C77.6051 845.341 74.6022 846.244 70.6797 846.244H50.2695C46.5911 846.244 43.7998 845.349 41.8955 843.559C39.9912 841.752 39.0391 839.115 39.0391 835.648C39.0391 832.182 39.9912 829.553 41.8955 827.763C43.7998 825.956 46.5911 825.053 50.2695 825.053H70.6797C74.6022 825.053 77.6051 825.964 79.6885 827.787C81.7555 829.594 82.7891 832.214 82.7891 835.648ZM74.8789 835.575C74.8789 834.273 73.6175 833.622 71.0947 833.622H50.123C48.0072 833.622 46.9492 834.257 46.9492 835.526C46.9492 836.959 48.0316 837.675 50.1963 837.675H71.1436C72.4782 837.675 73.4385 837.512 74.0244 837.187C74.5941 836.861 74.8789 836.324 74.8789 835.575ZM82.3984 820.586H39.4297V811.748L60.0107 807.793H39.4297L39.4297 799.492H82.3984V807.891L60.9141 812.188H82.3984V820.586ZM82.7891 771.955C82.7891 775.064 81.8206 777.57 79.8838 779.475C77.9469 781.363 75.237 782.307 71.7539 782.307H51.9297C47.763 782.307 44.5729 781.485 42.3594 779.841C40.1458 778.181 39.0391 775.487 39.0391 771.76C39.0391 769.725 39.4134 767.919 40.1621 766.34C40.9108 764.745 42.0339 763.492 43.5312 762.58C45.0124 761.669 46.8841 761.213 49.1465 761.213H56.5684V769.758H50.2207C48.9349 769.758 48.0723 769.921 47.6328 770.246C47.1771 770.572 46.9492 771.076 46.9492 771.76C46.9492 772.557 47.2422 773.094 47.8281 773.371C48.3978 773.648 49.1628 773.786 50.123 773.786H71.6318C72.82 773.786 73.6582 773.615 74.1465 773.273C74.6348 772.915 74.8789 772.411 74.8789 771.76C74.8789 771.027 74.5778 770.515 73.9756 770.222C73.3734 769.912 72.5921 769.758 71.6318 769.758H63.8926V761.115H72.0225C75.7985 761.115 78.541 762.067 80.25 763.972C81.9427 765.876 82.7891 768.537 82.7891 771.955ZM82.7891 746.98C82.7891 750.415 81.7555 753.043 79.6885 754.866C77.6051 756.673 74.6022 757.576 70.6797 757.576H50.2695C46.5911 757.576 43.7998 756.681 41.8955 754.891C39.9912 753.084 39.0391 750.447 39.0391 746.98C39.0391 743.514 39.9912 740.885 41.8955 739.095C43.7998 737.288 46.5911 736.385 50.2695 736.385H70.6797C74.6022 736.385 77.6051 737.296 79.6885 739.119C81.7555 740.926 82.7891 743.546 82.7891 746.98ZM74.8789 746.907C74.8789 745.605 73.6175 744.954 71.0947 744.954H50.123C48.0072 744.954 46.9492 745.589 46.9492 746.858C46.9492 748.291 48.0316 749.007 50.1963 749.007H71.1436C72.4782 749.007 73.4385 748.844 74.0244 748.519C74.5941 748.193 74.8789 747.656 74.8789 746.907ZM82.3984 731.918H39.4297L39.4297 714.73H47.8037V723.275H54.6396V715.17H62.916L62.916 723.275H82.3984V731.918ZM82.3984 710.947H39.4297V693.76H47.8037V702.305H54.6396V694.199H62.916V702.305H82.3984V710.947ZM82.3984 689.977H39.4297V672.789H47.7305V681.236H56.1045L56.1045 673.131H64.1855L64.1855 681.236H74.0244L74.0244 672.228H82.3984L82.3984 689.977ZM82.3984 668.371H39.4297V651.184H47.7305V659.631H56.1045V651.525H64.1855V659.631H74.0244V650.622H82.3984V668.371ZM82.7891 623.842C82.7891 627.764 81.8125 630.596 79.8594 632.338C77.9062 634.063 74.7975 634.926 70.5332 634.926H66.334V626.43H71.7051C72.6979 626.43 73.4792 626.283 74.0488 625.99C74.6022 625.681 74.8789 625.152 74.8789 624.403C74.8789 623.622 74.651 623.085 74.1953 622.792C73.7396 622.483 72.9909 622.328 71.9492 622.328C70.6309 622.328 69.5322 622.458 68.6533 622.719C67.7581 622.979 66.9118 623.435 66.1143 624.086C65.3005 624.721 64.3564 625.608 63.2822 626.747L59.6201 630.604C56.902 633.485 53.7933 634.926 50.2939 634.926C46.6318 634.926 43.8405 634.079 41.9199 632.387C39.9993 630.678 39.0391 628.212 39.0391 624.989C39.0391 621.05 40.0889 618.259 42.1885 616.615C44.2881 614.955 47.4782 614.125 51.7588 614.125V622.865H48.8047C48.2187 622.865 47.763 623.036 47.4375 623.378C47.112 623.703 46.9492 624.151 46.9492 624.721C46.9492 625.404 47.1445 625.909 47.5352 626.234C47.9095 626.544 48.3978 626.698 49 626.698C49.6022 626.698 50.2533 626.535 50.9531 626.21C51.653 625.884 52.4587 625.242 53.3701 624.281L58.1309 619.325C59.0749 618.332 60.0758 617.421 61.1338 616.591C62.1755 615.761 63.3962 615.093 64.7959 614.589C66.1794 614.084 67.8721 613.832 69.874 613.832C73.9105 613.832 77.0762 614.581 79.3711 616.078C81.6497 617.559 82.7891 620.147 82.7891 623.842ZM82.3984 611.123L39.4297 606.973V592.397L82.3984 588.32V596.45L75.4648 597.061V602.236L82.3984 602.773V611.123ZM68.6045 601.626V597.72L46.7539 599.6V599.99L68.6045 601.626ZM82.3984 584.684H39.4297V576.09H75.0742V567.252H82.3984V584.684ZM82.7891 553.557C82.7891 556.991 81.7555 559.619 79.6885 561.442C77.6051 563.249 74.6022 564.152 70.6797 564.152H50.2695C46.5911 564.152 43.7998 563.257 41.8955 561.467C39.9912 559.66 39.0391 557.023 39.0391 553.557C39.0391 550.09 39.9912 547.461 41.8955 545.671C43.7998 543.864 46.5911 542.961 50.2695 542.961H70.6797C74.6022 542.961 77.6051 543.872 79.6885 545.695C81.7555 547.502 82.7891 550.122 82.7891 553.557ZM74.8789 553.483C74.8789 552.181 73.6175 551.53 71.0947 551.53H50.123C48.0072 551.53 46.9492 552.165 46.9492 553.435C46.9492 554.867 48.0316 555.583 50.1963 555.583H71.1436C72.4782 555.583 73.4385 555.42 74.0244 555.095C74.5941 554.769 74.8789 554.232 74.8789 553.483ZM82.3984 538.494H39.4297V529.656L60.0107 525.701H39.4297V517.4H82.3984L82.3984 525.799L60.9141 530.096H82.3984V538.494Z" fill="#202020"/>
<path d="M1.39844 980.03V0.0297852H-0.601562V980.03H1.39844Z" fill="#1D1D1B" mask="url(#path-1-inside-1_5_1154)"/>
</g>
<defs>
<clipPath id="clip0_5_1154">
<rect width="119.875" height="980" fill="white" transform="translate(0.398438 0.0297852)"/>
</clipPath>
</defs>
</svg>
