<svg width="120" height="980" viewBox="0 0 120 980" fill="none" xmlns="http://www.w3.org/2000/svg">
<path d="M82 929.267L39.0312 925.117V910.542L82 906.464V914.594L75.0664 915.205V920.38L82 920.917V929.267ZM68.2061 919.77V915.864L46.3555 917.744V918.134L68.2061 919.77ZM82 902.828H39.0312L39.0312 889.742L65.2275 886.128L39.0312 882.54L39.0312 869.332H82L82 877.193H51.043L82 882.125V889.839L51.043 895.064H82V902.828ZM82.3906 854.318C82.3906 858.24 81.4141 861.072 79.4609 862.814C77.5078 864.539 74.3991 865.402 70.1348 865.402H65.9355V856.906H71.3066C72.2995 856.906 73.0807 856.759 73.6504 856.466C74.2038 856.157 74.4805 855.628 74.4805 854.879C74.4805 854.098 74.2526 853.561 73.7969 853.268C73.3411 852.959 72.5924 852.804 71.5508 852.804C70.2324 852.804 69.1338 852.934 68.2549 853.195C67.3597 853.455 66.5133 853.911 65.7158 854.562C64.902 855.197 63.958 856.084 62.8838 857.223L59.2217 861.081C56.5036 863.961 53.3949 865.402 49.8955 865.402C46.2334 865.402 43.4421 864.556 41.5215 862.863C39.6009 861.154 38.6406 858.688 38.6406 855.465C38.6406 851.527 39.6904 848.735 41.79 847.091C43.8896 845.431 47.0798 844.601 51.3604 844.601V853.341H48.4062C47.8203 853.341 47.3646 853.512 47.0391 853.854C46.7135 854.18 46.5508 854.627 46.5508 855.197C46.5508 855.88 46.7461 856.385 47.1367 856.71C47.5111 857.02 47.9993 857.174 48.6016 857.174C49.2038 857.174 49.8548 857.012 50.5547 856.686C51.2546 856.361 52.0602 855.718 52.9717 854.757L57.7324 849.801C58.6764 848.808 59.6774 847.897 60.7354 847.067C61.777 846.237 62.9977 845.569 64.3975 845.065C65.7809 844.56 67.4736 844.308 69.4756 844.308C73.512 844.308 76.6777 845.057 78.9727 846.554C81.2513 848.035 82.3906 850.623 82.3906 854.318ZM82 836.741H47.2832V841.843H39.0312L39.0312 823.044H47.2832L47.2832 828.147H82L82 836.741ZM82 819.652H39.0312L39.0312 802.464H47.332L47.332 810.912H55.7061V802.806H63.7871V810.912H73.626V801.903H82V819.652ZM82 798.046H39.0312V784.863C39.0312 782.666 39.5358 781.005 40.5449 779.882C41.5378 778.759 42.9375 778.011 44.7441 777.636C46.5345 777.246 48.6423 777.05 51.0674 777.05C53.4111 777.05 55.2829 777.351 56.6826 777.954C58.0824 778.54 59.0508 779.654 59.5879 781.298C59.8646 779.947 60.54 779.003 61.6143 778.466C62.6722 777.913 64.0475 777.636 65.7402 777.636H82V786.108H65.1787C63.9255 786.108 63.1523 786.368 62.8594 786.889C62.5501 787.394 62.3955 788.216 62.3955 789.355H82V798.046ZM54.9492 789.306V787.231C54.9492 786.043 53.6553 785.449 51.0674 785.449C49.391 785.449 48.2923 785.579 47.7715 785.839C47.2507 786.1 46.9902 786.588 46.9902 787.304V789.306H54.9492ZM82 773.218H39.0312V761.402C39.0312 758.309 39.8939 755.982 41.6191 754.419C43.3281 752.857 45.8346 752.076 49.1387 752.076H69.2559C73.3249 752.076 76.4661 752.792 78.6797 754.224C80.8932 755.64 82 758.13 82 761.695V773.218ZM74.4072 764.576V763.086C74.4072 761.508 73.6423 760.718 72.1123 760.718H49.9443C48.512 760.718 47.5924 760.914 47.1855 761.304C46.7624 761.679 46.5508 762.452 46.5508 763.624V764.576H74.4072ZM82 748.732L39.0312 744.582V730.006L82 725.929V734.059L75.0664 734.669V739.845L82 740.382V748.732ZM68.2061 739.235V735.329L46.3555 737.208V737.599L68.2061 739.235ZM82 722.292H39.0312V709.207L65.2275 705.593L39.0312 702.004V688.796H82V696.658H51.043L82 701.589V709.304L51.043 714.529H82L82 722.292ZM82.3906 661.259C82.3906 664.368 81.4222 666.875 79.4854 668.779C77.5485 670.667 74.8385 671.611 71.3555 671.611H51.5312C47.3646 671.611 44.1745 670.789 41.9609 669.145C39.7474 667.485 38.6406 664.791 38.6406 661.064C38.6406 659.029 39.015 657.223 39.7637 655.644C40.5124 654.049 41.6354 652.796 43.1328 651.884C44.6139 650.973 46.4857 650.517 48.748 650.517H56.1699V659.062H49.8223C48.5365 659.062 47.6738 659.225 47.2344 659.55C46.7786 659.876 46.5508 660.38 46.5508 661.064C46.5508 661.861 46.8437 662.399 47.4297 662.675C47.9993 662.952 48.7643 663.09 49.7246 663.09H71.2334C72.4215 663.09 73.2598 662.919 73.748 662.578C74.2363 662.22 74.4805 661.715 74.4805 661.064C74.4805 660.332 74.1794 659.819 73.5771 659.526C72.9749 659.217 72.1937 659.062 71.2334 659.062H63.4941V650.419H71.624C75.4001 650.419 78.1426 651.372 79.8516 653.276C81.5443 655.18 82.3906 657.841 82.3906 661.259ZM82.3906 636.285C82.3906 639.719 81.3571 642.347 79.29 644.17C77.2067 645.977 74.2038 646.88 70.2812 646.88H49.8711C46.1927 646.88 43.4014 645.985 41.4971 644.195C39.5928 642.388 38.6406 639.751 38.6406 636.285C38.6406 632.818 39.5928 630.189 41.4971 628.399C43.4014 626.592 46.1927 625.689 49.8711 625.689H70.2812C74.2038 625.689 77.2067 626.6 79.29 628.423C81.3571 630.23 82.3906 632.85 82.3906 636.285ZM74.4805 636.211C74.4805 634.909 73.2191 634.258 70.6963 634.258H49.7246C47.6087 634.258 46.5508 634.893 46.5508 636.163C46.5508 637.595 47.6331 638.311 49.7979 638.311H70.7451C72.0798 638.311 73.04 638.148 73.626 637.823C74.1956 637.497 74.4805 636.96 74.4805 636.211ZM82 621.222H39.0312V604.035H47.4053V612.58H54.2412V604.474H62.5176V612.58H82V621.222ZM82 600.251H39.0312L39.0312 583.064H47.4053L47.4053 591.609H54.2412L54.2412 583.503H62.5176V591.609H82V600.251ZM82 579.281H39.0312L39.0312 562.093H47.332V570.541H55.7061L55.7061 562.435H63.7871L63.7871 570.541H73.626L73.626 561.532H82L82 579.281ZM82 557.675H39.0312V540.488H47.332V548.935H55.7061V540.83H63.7871V548.935H73.626V539.926H82V557.675ZM82.3906 513.146C82.3906 517.069 81.4141 519.901 79.4609 521.642C77.5078 523.367 74.3991 524.23 70.1348 524.23H65.9355L65.9355 515.734H71.3066C72.2995 515.734 73.0807 515.587 73.6504 515.294C74.2038 514.985 74.4805 514.456 74.4805 513.708C74.4805 512.926 74.2526 512.389 73.7969 512.096C73.3411 511.787 72.5924 511.632 71.5508 511.632C70.2324 511.632 69.1338 511.763 68.2549 512.023C67.3597 512.283 66.5133 512.739 65.7158 513.39C64.902 514.025 63.958 514.912 62.8838 516.051L59.2217 519.909C56.5036 522.79 53.3949 524.23 49.8955 524.23C46.2334 524.23 43.4421 523.384 41.5215 521.691C39.6009 519.982 38.6406 517.516 38.6406 514.293C38.6406 510.355 39.6904 507.563 41.79 505.919C43.8896 504.259 47.0798 503.429 51.3604 503.429V512.169H48.4062C47.8203 512.169 47.3646 512.34 47.0391 512.682C46.7135 513.008 46.5508 513.455 46.5508 514.025C46.5508 514.708 46.7461 515.213 47.1367 515.539C47.5111 515.848 47.9993 516.002 48.6016 516.002C49.2038 516.002 49.8548 515.84 50.5547 515.514C51.2546 515.189 52.0602 514.546 52.9717 513.585L57.7324 508.629C58.6764 507.637 59.6774 506.725 60.7354 505.895C61.777 505.065 62.9977 504.398 64.3975 503.893C65.7809 503.389 67.4736 503.136 69.4756 503.136C73.512 503.136 76.6777 503.885 78.9727 505.382C81.2513 506.863 82.3906 509.451 82.3906 513.146ZM82 499.255H39.0312L39.0312 490.71H54.3877V486.658H39.0312V478.113H82V486.658H62.5176V490.71H82V499.255ZM82.3906 463.05C82.3906 466.485 81.3571 469.113 79.29 470.936C77.2067 472.743 74.2038 473.646 70.2812 473.646H49.8711C46.1927 473.646 43.4014 472.751 41.4971 470.96C39.5928 469.154 38.6406 466.517 38.6406 463.05C38.6406 459.583 39.5928 456.955 41.4971 455.165C43.4014 453.358 46.1927 452.455 49.8711 452.455H70.2812C74.2038 452.455 77.2067 453.366 79.29 455.189C81.3571 456.996 82.3906 459.616 82.3906 463.05ZM74.4805 462.977C74.4805 461.675 73.2191 461.024 70.6963 461.024H49.7246C47.6087 461.024 46.5508 461.659 46.5508 462.928C46.5508 464.361 47.6331 465.077 49.7979 465.077H70.7451C72.0798 465.077 73.04 464.914 73.626 464.588C74.1956 464.263 74.4805 463.726 74.4805 462.977ZM82 447.988H39.0312L39.0312 436.635C39.0312 434.259 39.5602 432.379 40.6182 430.996C41.6761 429.596 43.1816 428.595 45.1348 427.993C47.0879 427.39 49.4154 427.089 52.1172 427.089C54.7214 427.089 56.9919 427.342 58.9287 427.846C60.8493 428.351 62.3385 429.254 63.3965 430.556C64.4544 431.842 64.9834 433.673 64.9834 436.049V439.541H82V447.988ZM57.2686 439.541V439.052C57.2686 437.457 56.821 436.481 55.9258 436.123C55.0306 435.764 53.7122 435.585 51.9707 435.585C50.3431 435.585 49.0898 435.764 48.2109 436.123C47.3158 436.464 46.8682 437.286 46.8682 438.588V439.541H57.2686Z" fill="#202020"/>
<path d="M1 980V0H-1V980H1Z" fill="#1D1D1B" mask="url(#path-1-inside-1_5_1181)"/>
</svg>
