<svg width="84" height="66" viewBox="0 0 84 66" fill="none" xmlns="http://www.w3.org/2000/svg">
<rect width="84" height="65" transform="translate(0.398438 0.57666)" fill="#FBED81"/>
<g clip-path="url(#clip0_5_584)">
<mask id="mask0_5_584" style="mask-type:luminance" maskUnits="userSpaceOnUse" x="16" y="31" width="48" height="5">
<path d="M61.6761 33.5225C61.7091 33.5037 61.744 33.4883 61.7801 33.4766C61.6691 33.4561 61.6168 33.4546 61.6761 33.5225Z" fill="white"/>
<path d="M63.1503 33.341C62.689 33.2812 62.2201 33.3274 61.7793 33.476C62.1433 33.5503 63.1581 33.906 63.1503 33.341Z" fill="white"/>
<path d="M61.8135 34.4451L62.266 34.2937C61.9436 34.1283 62.0574 34.3991 61.8135 34.4451Z" fill="white"/>
<path d="M61.8701 33.9192L61.7994 33.707L61.583 33.9008L61.8701 33.9192Z" fill="white"/>
<path d="M42.7229 32.0771C42.7573 31.9734 42.7502 31.8604 42.7031 31.7618L42.7229 32.0771Z" fill="white"/>
<path d="M42.0493 32.7634C41.9783 32.7892 41.9048 32.8076 41.8301 32.8185C41.8684 32.8246 41.9076 32.8228 41.9453 32.8134C41.983 32.8039 42.0183 32.7869 42.0493 32.7634Z" fill="white"/>
<path d="M43.5445 32.1089L43.3359 32.0771C43.4006 32.1088 43.4734 32.1199 43.5445 32.1089Z" fill="white"/>
<path d="M53.1943 32.8227C53.3463 32.6764 53.4927 32.5441 53.6051 32.4529C53.2013 32.2811 53.2508 32.6248 53.1943 32.8227Z" fill="white"/>
<path d="M38.624 35.1449L38.5335 34.9766C38.5003 35.0523 38.4918 35.1258 38.624 35.1449Z" fill="white"/>
<path d="M42.3196 34.9271C42.3067 34.8487 42.2794 34.7734 42.239 34.7051C42.2217 34.7173 42.2052 34.7306 42.1895 34.7447L42.3196 34.9271Z" fill="white"/>
<path d="M44.1729 32.3754L44.1899 32.3924L44.3264 32.2912C44.2309 32.258 44.1814 32.2877 44.1729 32.3754Z" fill="white"/>
<path d="M37.4585 35.27C37.4032 35.3861 37.368 35.5107 37.3545 35.6385C37.4146 35.6011 37.4586 35.5426 37.4779 35.4745C37.4971 35.4063 37.4902 35.3333 37.4585 35.27Z" fill="white"/>
<path d="M41.834 32.8105V32.8176L41.8623 32.8119C41.8517 32.8099 41.8453 32.8134 41.834 32.8105Z" fill="white"/>
<path d="M43.5471 34.7446C43.468 34.7714 43.3923 34.7906 43.3096 34.8266C43.3305 34.8369 43.3533 34.843 43.3766 34.8444C43.3999 34.8459 43.4233 34.8427 43.4454 34.8351C43.4675 34.8275 43.4878 34.8155 43.5053 34.8C43.5227 34.7845 43.5369 34.7657 43.5471 34.7446Z" fill="white"/>
<path d="M53.2613 32.7366L53.1348 32.8632C53.1675 32.8607 53.1983 32.8466 53.2215 32.8234C53.2448 32.8001 53.2589 32.7693 53.2613 32.7366Z" fill="white"/>
<path d="M60.2697 33.0899C60.1098 33.08 60.0971 33.2002 60.0957 33.3176C60.1769 33.2626 60.2379 33.1827 60.2697 33.0899Z" fill="white"/>
<path d="M17.6692 33.3359L17.6084 33.3416C17.6182 33.3458 17.6289 33.3475 17.6395 33.3465C17.6501 33.3455 17.6603 33.3419 17.6692 33.3359Z" fill="white"/>
<path d="M23.5375 32.7366C23.5599 32.6944 23.575 32.6488 23.5821 32.6016C23.5191 32.5598 23.5114 32.6369 23.5375 32.7366Z" fill="white"/>
<path d="M26.5983 35.9719L27.2789 35.557C27.3369 35.714 27.6908 35.7541 27.4965 35.9373L27.7346 35.6637L27.7558 35.8446C29.0519 36.1415 29.7818 34.8077 31.1852 35.5612L31.1796 35.6291L31.7908 35.1957C31.9321 35.2395 32.046 35.5556 32.2869 35.6666C32.1032 35.3287 32.6883 35.6199 32.7512 35.3265C32.9526 35.4614 32.8014 35.552 32.7887 35.6864C33.5525 35.9995 33.9625 35.434 34.7673 35.6552C34.3337 35.4132 33.865 35.2405 33.378 35.1434C33.9349 34.9384 34.1193 35.2756 34.7412 35.1611L34.4754 35.3195C34.9305 35.8128 35.4011 35.0268 35.6365 35.5888C36.0061 35.5018 36.2031 34.937 36.6993 35.0275L36.6145 35.5223L37.0462 35.523L36.972 35.1844C37.0229 35.1723 37.0763 35.1781 37.1233 35.2011C37.1702 35.2241 37.2077 35.2627 37.2293 35.3103C37.4321 34.9207 37.8971 35.13 38.2299 34.8296L38.3154 34.9957C38.3382 34.9574 38.3567 34.9166 38.3706 34.8741C38.5211 35.166 38.8193 35.0572 38.8998 35.3272C38.7847 35.393 38.519 35.5499 38.5013 35.3697C38.2504 35.7054 38.9493 35.552 39.1662 35.5527C38.8977 35.3972 39.186 35.3506 39.302 35.2841C39.3329 35.3293 39.2949 35.352 39.2928 35.4163C39.7408 35.5987 39.6828 34.7434 40.0927 35.3301L40.0899 35.0148L40.4608 35.2445C40.3429 34.6147 40.8989 35.1823 40.8142 34.597C41.1774 34.5786 40.8488 34.9568 40.9654 34.8896C41.3357 35.0126 41.8035 34.4373 41.988 34.7335C42.2338 34.5158 42.5872 34.6528 42.8069 34.5264L42.8869 34.7957C43.002 34.7299 43.1249 34.597 43.2634 34.6437C43.2714 34.6819 43.2649 34.7217 43.2451 34.7554C43.6501 34.6242 44.0744 34.562 44.5001 34.5715C44.517 34.7511 44.5418 34.8634 44.3192 34.9278C44.7616 35.1809 45.2584 34.5821 45.8632 34.6811L45.8533 34.8127L46.1282 34.5927C46.0795 34.6854 46.1466 34.7723 46.1699 34.8846C46.7437 34.9412 47.4321 34.9313 47.5995 34.3963C47.4752 34.5293 47.9225 34.7193 47.649 34.9349C48.1358 34.5737 48.8772 34.6578 49.482 34.5674L49.4644 34.5497L49.6961 34.4196L49.7265 34.4656L49.5633 34.5582C49.7948 34.5289 50.012 34.4304 50.1865 34.2754C50.2683 34.4444 50.3874 34.5926 50.5349 34.7087C50.465 34.3715 51.3342 35.0176 51.5596 34.6422C51.6211 34.7335 51.4416 34.708 51.5738 34.8232C52.3419 34.7759 53.4046 34.3814 54.392 34.655C54.3233 34.0039 55.1417 34.1878 55.5748 33.8873C55.7833 34.274 55.3339 34.0817 55.2625 34.3694C55.526 34.2881 55.4243 34.8438 55.861 34.5441C55.854 34.6118 55.883 34.6564 55.7769 34.6536C56.061 34.6846 55.6144 34.1786 56.073 34.3051L56.1479 34.5765L56.3373 34.2245C57.2587 34.4083 57.9775 34.2139 58.8155 34.5108C58.8487 34.4508 58.8015 34.3185 58.6876 34.2415C59.041 34.2599 59.359 33.8173 59.8183 34.1001L59.7335 34.209C60.4274 34.4578 60.3179 33.8973 61.0592 33.8159C60.8803 33.7869 60.5271 33.9736 60.4232 33.6562C60.4472 33.4568 60.8437 33.4957 61.0069 33.6591L60.8655 33.2972C60.8026 33.5169 60.5137 33.4837 60.3179 33.5876C60.3702 33.5594 60.3681 33.4836 60.3752 33.4144C60.207 33.5289 59.9476 33.5184 59.6926 33.6081L60.0917 33.6456C60.0084 33.999 59.4368 33.6223 59.3116 33.7515C59.2438 33.4136 59.4925 33.4674 59.1993 33.1897C58.523 33.0533 58.8989 33.5353 58.3519 33.828L58.4828 33.9446C58.2962 33.9827 58.2163 34.3369 57.8834 34.0789C57.8397 33.8541 58.0566 33.8619 58.1421 33.7537C58.0523 33.6173 57.8735 34.1468 57.6114 33.9128C57.7266 33.6039 58.1768 33.4886 58.5038 33.4993C58.4414 33.3988 58.418 33.2788 58.4382 33.1621C57.5298 33.5217 56.5501 33.6643 55.577 33.5784C55.9896 33.1656 55.3585 33.5707 55.3769 33.1253C55.3741 33.4377 55.0116 33.1359 54.7763 33.2625C54.5996 32.9217 55.2455 33.0094 54.9812 32.7747C54.4965 32.8482 53.9502 33.4568 53.2733 33.3282C53.2895 33.1946 53.4379 33.1762 53.4457 33.1104C53.0329 33.2094 52.6492 33.982 52.2387 33.4583C52.3984 33.2674 52.5941 33.0618 52.7772 32.8786C52.6758 32.8633 52.5813 32.818 52.5058 32.7486L52.6076 32.5055C52.0698 32.4227 52.3263 33.0342 52.1065 33.3402L51.7116 32.9946C51.4638 32.8821 51.1828 32.8667 50.9242 32.9516C50.6656 33.0364 50.4483 33.2152 50.3152 33.4526C50.2056 33.449 49.7725 33.4399 49.8784 33.1288C50.0735 32.7076 50.1428 32.4191 50.7265 32.4093C50.877 32.7012 50.3617 32.7372 50.5406 32.7635C50.7639 32.7041 51.2487 32.9359 51.3865 32.6722L50.7653 32.7012C50.6713 32.2509 51.0218 32.685 51.0841 32.463C50.8345 32.099 50.5717 32.4963 50.2693 32.2884L50.3074 32.2672C49.8241 32.3492 49.8728 32.2566 49.4184 32.4496C49.4806 32.8539 49.6432 32.7012 49.9151 32.8644C49.1124 32.8673 48.191 33.6294 47.2207 32.9189L47.6228 32.5676C47.3041 32.4949 46.8638 32.8673 46.7755 32.3492C47.1579 32.5138 46.9374 32.1958 47.0921 32.1089L47.1232 32.1541C47.1614 32.1329 47.2773 32.0679 47.1791 31.9979C46.9324 32.2307 46.6427 32.4129 46.3261 32.5343C46.4278 32.4214 46.1204 32.258 46.0689 32.1795C45.8038 32.2636 46.1169 32.4044 46.1699 32.5633C46.0215 32.5831 45.8434 32.8715 45.6555 32.5987C45.3912 32.3697 45.8632 32.357 45.8866 32.1555L45.122 32.5216L45.1298 32.4545C45.1193 32.4786 45.1038 32.5002 45.0844 32.5178C45.0649 32.5355 45.042 32.5489 45.017 32.557C44.992 32.5652 44.9656 32.5679 44.9395 32.5651C44.9133 32.5623 44.8881 32.554 44.8654 32.5407C44.7404 32.3591 44.9255 32.3181 45.0661 32.364C44.558 32.0905 44.4216 32.9648 43.9157 32.4065L43.7051 32.569C43.6726 32.5237 43.6097 32.4326 43.6479 32.4114L43.4486 32.5881C43.0309 32.7613 43.2373 32.2043 43.0628 32.1117L43.0861 32.1152C42.9314 32.0523 42.7892 31.8891 42.8755 31.841L42.4508 32.082L42.4515 32.0728C42.3412 32.405 41.6565 32.4877 41.8035 33.0858C41.6657 33.0398 41.5363 32.9288 41.5752 32.8433C41.2282 32.8821 41.5512 32.3782 40.9993 32.4722C40.9725 32.3577 41.0439 32.3838 41.1222 32.3392C40.9696 32.328 40.9173 32.369 40.9074 32.4326C40.8868 32.3509 40.8537 32.273 40.8092 32.2015C40.858 32.4256 40.6093 32.3789 40.47 32.3329L40.5837 31.9519C40.4933 32.1315 40.4157 32.1753 40.1669 32.1287L40.2643 31.8827C39.8948 31.9696 40.357 32.3994 39.8361 32.1923L40.3167 32.4185C39.8368 32.5039 40.1131 32.9783 39.945 33.2017C39.5111 33.5806 38.7111 32.9034 38.4914 33.6661C38.372 33.4179 38.4164 33.3282 38.22 33.1246C38.3559 33.1001 38.4803 33.0326 38.5749 32.9321C38.6695 32.8316 38.7294 32.7033 38.7457 32.5662C39.2921 32.1867 39.1225 33.4901 39.6871 32.9083C39.5768 32.5944 39.3584 32.5924 39.198 32.7486C39.1161 32.4786 39.3161 32.3011 39.4376 32.1654C39.0701 32.3167 38.415 31.9809 38.1741 32.0226C38.0857 32.1676 37.8151 32.3704 37.6575 32.2905C37.7233 32.4977 37.1346 32.6539 37.4342 33.0794C37.0265 33.1903 37.0222 32.492 36.7212 32.9868C36.7962 32.6291 36.3855 32.7387 36.4888 32.4234C36.7092 32.7373 37.0505 32.2219 37.2173 31.9971L36.5487 31.8176C36.7233 31.9074 36.5544 32.1329 36.4782 32.1711L36.3269 31.8785C36.4018 32.598 35.11 31.3822 34.9977 32.2183C35.1828 32.1746 35.4117 32.4206 35.4146 32.0389C35.8266 32.2403 35.469 32.5782 35.6973 32.8263C35.1998 33.1189 34.2324 32.6659 33.749 33.2087C33.8063 32.9833 34.0932 33.0058 34.0486 32.7125C33.5582 32.557 33.171 33.2342 32.7131 33.5056L32.7151 33.1232C32.3576 33.4625 32.5095 32.9883 32.0658 33.1252C32.0961 33.1712 32.1937 33.3056 32.0835 33.3056C31.6905 33.2858 31.9717 32.9932 31.6898 32.9019C31.3456 33.4894 31.3654 32.5195 30.8305 32.8397L30.8397 32.7076C30.4213 32.9592 29.6745 32.4467 29.1423 32.3838C29.2045 32.4743 29.5712 32.3788 29.613 32.7401L28.9889 32.8581C28.9261 32.7684 28.6405 32.7486 28.7657 32.5442C28.8426 32.4983 28.9458 32.5648 29.0137 32.5874L28.8773 32.4015C28.3204 32.6093 29.0455 32.9401 29.1274 33.2822C28.7777 33.1727 28.7473 33.5113 28.531 33.5127C28.3451 33.1755 28.8533 33.1281 28.4921 32.767C28.2555 32.588 27.6886 32.8638 27.5565 33.2066C27.0492 32.4234 26.2725 33.0872 26.1101 32.4807C26.1418 32.5252 26.0868 32.7528 25.9143 32.6638L25.963 32.5062C25.4465 32.2424 25.662 33.073 25.3504 32.9437C25.3235 32.8291 25.4006 32.7847 25.4119 32.6489C24.7759 32.5245 24.6635 33.43 23.9766 33.0808C23.9823 33.013 23.9844 32.9472 24.0558 32.9663C24.0629 32.8984 23.9554 32.9013 23.7979 33.0618L24.0678 33.2823C23.9349 34.0075 23.1562 33.0052 22.7103 33.2165C22.7188 33.0836 23.0827 33.0519 22.8438 32.8751C22.5216 32.8807 22.7478 33.6456 22.2729 33.2936C22.4241 33.2002 22.2807 32.8461 22.4262 32.767C22.1669 32.7267 21.9393 32.5245 21.9181 32.8044C21.8787 32.7827 21.8445 32.7527 21.8178 32.7164C21.7911 32.6802 21.7725 32.6386 21.7634 32.5945C21.6567 32.8128 21.3642 32.6729 21.1783 32.6143L21.1853 32.48C21.0554 33.2067 20.6786 32.5386 20.2809 32.5902L20.2963 32.3867C20.1465 32.48 19.948 32.7352 19.5763 32.4496L19.6668 32.198C19.4724 32.3839 18.9282 32.0148 18.8258 32.4015C18.7227 32.3365 18.9339 31.9441 18.539 31.9336C18.4902 32.094 18.228 32.2587 18.0655 32.0367C18.0365 31.9243 18.0485 31.7879 18.1821 31.899C18.2527 31.9187 18.2167 31.9419 18.2111 32.0113L18.2972 31.829C17.9516 31.6557 18.1022 32.0141 17.7546 31.9096C17.6556 31.7766 17.8068 31.6791 17.816 31.5469L16.7412 32.0254C16.7645 32.2057 16.9362 32.2926 16.8861 32.5195L17.3087 32.5761C17.5758 32.8645 17.1764 32.919 17.0266 33.0137L17.3128 33.0299C17.334 33.0596 17.3376 33.0984 17.3164 33.1154L17.5227 33.0915C17.0634 33.5113 18.2365 33.6159 17.7114 33.9475C17.7907 33.911 17.8604 33.8564 17.9149 33.7882C17.9694 33.7199 18.0072 33.6399 18.0252 33.5544C18.2824 33.4568 18.2703 33.6584 18.4033 33.7713L18.0591 34.0534C18.6767 33.9235 18.074 34.3694 18.5933 34.5596C19.0774 34.3199 19.6173 35.212 19.9035 35.2283C20.4434 35.1464 19.6046 34.8967 19.9049 34.7065C20.1967 34.6535 20.1049 34.9066 20.3154 34.9674L20.3472 34.5596C20.6751 34.4846 20.4603 34.9427 20.6157 34.7801C20.9549 35.0219 20.5685 34.9391 20.5805 35.2551C20.6228 35.1631 20.8879 34.9972 21.0532 35.1541C21.0801 35.2685 20.719 35.2975 20.9648 35.3371C21.7719 35.0954 22.0955 35.5378 22.8502 35.4544L22.8339 35.6574C22.9103 35.6107 22.9534 35.5194 23.0509 35.5817L23.0424 35.7147C23.4744 35.5607 23.9281 35.4762 24.3865 35.4643L24.1873 35.716L24.5702 35.4163L24.6105 35.7775C24.6741 35.417 25.2684 35.6298 25.6705 35.5103L25.7256 35.738L25.9518 35.598L25.9038 35.7577C26.1574 35.7288 26.3673 35.3435 26.7079 35.5188C26.4966 35.4544 26.5404 35.8149 26.5983 35.9719ZM37.1156 35.1131L37.2265 35.0982C37.2123 35.1136 37.1932 35.1236 37.1725 35.1266C37.1517 35.1296 37.1306 35.1253 37.1127 35.1145L36.9339 35.1421C36.9064 34.9292 37.0102 35.0699 37.1156 35.1131ZM53.9869 34.3758L53.693 34.4125C53.7609 34.4365 53.9551 34.3298 53.9015 34.4868C53.9389 34.4634 54.0492 34.4663 53.9869 34.3758ZM36.1812 32.9133L36.2732 32.7309L36.4301 32.9557L36.1812 32.9133ZM33.7638 32.9352L33.9914 32.7995L34.0239 32.8447L33.7936 32.9804L33.7638 32.9352ZM30.9068 35.0254C30.9748 34.6281 31.1541 35.0311 31.3138 34.867C31.3245 34.8494 31.3393 34.8346 31.357 34.824C31.3447 34.8403 31.3302 34.8548 31.3138 34.867C31.2376 35.0028 31.193 35.3541 30.9097 35.0226L30.9068 35.0254ZM36.406 34.6917C36.4555 34.9165 36.1652 34.961 36.1128 35.1194C35.9722 35.0734 36.1015 34.872 36.1149 34.737C36.0456 34.7144 36.0068 34.7363 35.929 34.7815C35.8682 34.3051 36.2018 34.937 36.406 34.6917ZM42.2113 34.3673L42.0105 34.5455L42.0819 34.5687L42.2113 34.3673ZM43.4556 34.5363C43.5178 34.5414 43.5801 34.5298 43.6363 34.5027C43.6924 34.4756 43.7403 34.434 43.775 34.3821C43.8097 34.3303 43.8299 34.2701 43.8335 34.2079C43.8371 34.1456 43.824 34.0835 43.7956 34.028C43.5743 34.0895 43.2161 34.0421 43.149 34.3326C43.243 34.1524 43.1786 34.7568 43.4521 34.5398L43.4556 34.5363ZM33.306 34.356C33.4586 34.2656 33.578 33.7459 33.9857 34.0152L33.7582 34.151L33.8274 34.1736L33.8091 34.3758C33.7511 33.8357 33.4523 34.3326 33.306 34.356ZM45.7042 34.1418C45.764 34.1308 45.8207 34.1069 45.8702 34.0717C45.9198 34.0364 45.961 33.9908 45.991 33.9379C46.021 33.885 46.039 33.8261 46.0438 33.7655C46.0486 33.7049 46.04 33.6439 46.0187 33.587C46.1049 33.7905 45.7198 34.006 45.5205 34.1842C45.5962 34.1397 45.6364 34.1192 45.7042 34.1418ZM45.4929 33.7579C45.3537 33.7119 45.3417 33.4653 45.1438 33.6407C45.2308 33.8436 45.2492 34.3369 44.8675 34.1743C45.0513 33.8166 45.0364 33.6365 45.3432 33.4625L45.4929 33.7579ZM45.0739 34.4867L44.6004 34.3284C44.734 33.8966 44.8704 34.3283 45.0739 34.4867L45.228 34.5391C45.2 34.5418 45.1718 34.5387 45.1451 34.5298C45.1184 34.5209 45.0939 34.5065 45.0732 34.4875L45.0739 34.4867ZM48.2489 34.4111L48.1549 34.5221C48.1832 34.5828 48.1789 34.6394 48.0419 34.6536L48.1549 34.5221C48.0936 34.4069 47.904 34.274 48.2454 34.4132L48.2489 34.4111ZM45.4886 34.4564L45.8915 34.4168C45.7516 34.3673 45.4737 34.2732 45.4886 34.4564ZM47.4059 34.1319C47.5988 34.1355 47.791 34.1539 47.981 34.1871C47.8977 34.2944 47.4942 34.332 47.408 34.1298L47.4059 34.1319ZM56.9005 34.0456L56.7161 33.7721L56.9726 33.7572L56.9005 34.0456ZM54.1177 33.6159L53.9707 33.6343L53.8768 33.4978L54.1177 33.6159ZM50.9448 33.3544C50.9697 33.3596 50.9928 33.3711 51.012 33.3878C51.0312 33.4045 51.0458 33.4259 51.0544 33.4498C51.3998 33.6327 51.7907 33.712 52.1801 33.6781C52.3426 33.8407 52.0246 34.0768 51.9398 34.1857C51.9016 33.2681 51.5349 34.2189 51.2077 33.8987C51.2572 33.8067 51.4309 33.8393 51.4493 33.7035C51.3995 33.6607 51.3386 33.6327 51.2737 33.6227C51.2087 33.6127 51.1423 33.6211 51.0819 33.647C51.0734 33.7119 51.0479 33.7629 51.0091 33.7608C51.0109 33.7373 51.0185 33.7146 51.0312 33.6948C51.0439 33.6749 51.0613 33.6585 51.0819 33.647C51.0914 33.5806 51.0824 33.5128 51.0558 33.4512C51.0127 33.4267 50.9749 33.3938 50.9448 33.3544ZM47.0638 33.3091C47.0278 33.3905 47.1938 33.4957 46.9975 33.606C46.9731 33.5563 46.9664 33.4998 46.9784 33.4458C46.9905 33.3919 47.0206 33.3436 47.0638 33.3091C47.078 33.2781 47.1197 33.2533 47.2193 33.2285C47.1608 33.2398 47.1068 33.2678 47.0638 33.3091ZM47.1543 32.8242L46.7147 33.1974L46.8448 32.9981L46.5332 33.1684C46.5334 33.0961 46.553 33.0251 46.5899 32.9628C46.6267 32.9005 46.6795 32.8492 46.7428 32.8141C46.8061 32.779 46.8776 32.7615 46.9499 32.7633C47.0222 32.7651 47.0928 32.7861 47.1543 32.8242ZM45.8222 33.0682L46.3799 32.9444L46.3742 32.9939L46.4109 32.9896L46.3523 33.2137L46.3742 32.9939L45.8222 33.0682ZM41.1392 33.524L40.8544 33.4978C41.0005 33.3754 41.1877 33.313 41.378 33.3233C40.9364 32.6906 41.294 33.4356 40.7414 33.1826C41.3131 33.1889 41.0015 32.7953 40.9173 32.5414C40.8884 32.9083 40.1012 32.692 40.4962 33.4491C40.6551 33.2972 41.0897 33.9947 41.1392 33.524ZM37.4405 33.3205L37.1092 33.3862L37.4709 33.365L37.4405 33.3205ZM27.8032 33.1805C27.8322 32.8404 28.3812 33.1507 28.3996 33.3304C28.3057 33.1967 28.0519 33.223 27.8032 33.1805ZM24.347 33.2985C24.5546 33.365 24.7377 32.9302 24.9179 33.3339L24.5469 33.4985C24.448 33.3643 24.3279 33.5055 24.347 33.2985ZM21.8072 33.2575L21.7726 33.6654L21.8856 33.5947L21.8072 33.2575ZM22.128 32.7953C22.056 32.7741 21.798 32.8708 21.9266 33.049L22.128 32.7953ZM19.5536 33.1705L19.6145 32.8072L19.4371 32.7896L19.5536 33.1705ZM19.7855 33.4137C19.8271 33.3721 19.8271 33.2886 19.8173 33.1968C19.8837 33.0978 20.025 33.0596 20.1988 33.1543C20.2208 33.3346 20.0879 33.2243 20.0109 33.2717C20.0809 33.2922 20.2165 33.4024 20.3288 33.3325C20.102 33.0207 20.2094 33.0193 20.124 32.7486C19.6851 32.5923 19.7932 32.938 19.8187 33.1953C19.7985 33.2279 19.7854 33.2644 19.7803 33.3024C19.7752 33.3404 19.7782 33.3791 19.789 33.4158L19.7855 33.4137ZM21.2122 33.4993C21.1622 33.4563 21.1228 33.4024 21.097 33.3417C20.82 33.2469 20.5394 33.1585 20.7275 32.8305L20.9719 32.8687C20.8645 32.8701 20.8978 32.9147 20.8921 32.9826C21.0963 33.1133 21.1507 32.8864 21.2616 32.8164C21.2235 32.9464 20.9931 33.1133 21.0949 33.3381C21.1685 33.3632 21.2404 33.3927 21.3104 33.4264C21.3401 33.3813 21.3811 33.3558 21.4623 33.4667L21.456 33.5353C21.4165 33.4883 21.3667 33.4511 21.3104 33.4264C21.2857 33.471 21.2624 33.5282 21.2122 33.4993ZM19.6576 33.6929C19.6519 33.7608 19.7169 33.8499 19.6745 33.9418L19.5636 34.0131C19.3586 33.8802 19.5148 33.7169 19.6597 33.6908L19.6576 33.6929ZM26.9531 33.4427C26.9905 33.4193 27.3827 33.437 27.3283 33.2088L27.5142 33.5445C27.3064 33.478 27.1736 33.7523 27.2767 33.8188C27.0824 33.6188 26.9651 33.7558 26.9559 33.4399L26.9531 33.4427ZM36.8583 33.3431C36.7764 33.4561 36.223 33.2081 36.2548 33.6357C35.9764 33.1606 36.582 33.2504 36.8597 33.3403L36.8583 33.3431ZM37.0279 33.8152C37.0672 33.8036 37.1078 33.7968 37.1487 33.7947C37.2787 33.7028 37.1819 33.3615 37.4879 33.5473C37.4434 33.6371 37.3091 33.524 37.2689 33.611C37.3353 33.8272 37.2858 33.7849 37.1515 33.7919C37.1342 33.8045 37.1143 33.813 37.0932 33.8166C37.0722 33.8203 37.0505 33.8191 37.03 33.8131L37.0279 33.8152ZM31.5209 34.2061L31.8064 34.2274L31.9117 33.9085L31.5209 34.2061ZM28.9374 34.6119L29.1578 34.5426L29.0554 34.4755C29.0349 34.3927 28.96 34.2725 29.0109 34.2161C29.0481 34.211 29.0841 34.199 29.1168 34.1807C29.0977 34.1789 29.0784 34.1811 29.0601 34.1872C29.0419 34.1933 29.0251 34.2031 29.0109 34.2161C28.8434 34.2422 28.6244 34.2211 28.6618 34.4578C28.7091 34.3638 29.0271 34.3638 29.049 34.5441L28.9374 34.6119ZM23.5003 34.9186C23.6127 34.8487 23.6183 34.7808 23.8551 34.9582C23.7999 34.9923 23.7348 35.0068 23.6704 34.9995C23.6059 34.9922 23.5465 34.9642 23.5003 34.9186ZM30.355 34.848C30.3352 34.667 30.6525 34.7328 30.4942 34.508L30.3543 34.4642C30.5662 34.5349 30.3592 34.0138 30.694 34.2585L30.5195 34.238C30.7591 34.3489 30.3415 34.5998 30.692 34.7101C30.8298 34.7561 30.5231 34.9356 30.3493 34.8466L30.355 34.848ZM23.2092 35.4206C23.3908 35.3718 23.2149 34.9002 23.5916 35.1201C23.3697 35.1908 23.5145 35.6185 23.2092 35.4206ZM28.6025 35.5845L28.6342 35.6291L28.8596 35.4898L28.8286 35.446L28.6025 35.5845Z" fill="white"/>
<path d="M24.6509 32.9832C24.6144 32.9674 24.5751 32.959 24.5352 32.9585C24.4954 32.958 24.4559 32.9654 24.4189 32.9803C24.4954 32.9961 24.5741 32.9971 24.6509 32.9832Z" fill="white"/>
<path d="M37.7637 32.1338C37.7745 32.1665 37.7919 32.1967 37.8147 32.2225C37.8376 32.2483 37.8655 32.2691 37.8967 32.2838C37.8693 32.221 37.8227 32.1685 37.7637 32.1338Z" fill="white"/>
<path d="M38.3711 31.9964L38.4022 31.995L38.4213 31.9675L38.3711 31.9964Z" fill="white"/>
<path d="M59.9273 32.6864C60.0206 32.3088 59.7406 32.6171 59.5957 32.6093C59.7407 32.6171 59.8573 32.8894 59.9273 32.6864Z" fill="white"/>
<path d="M58.9395 33.2821C58.9707 33.2259 59.0144 33.1776 59.0672 33.1409C59.12 33.1042 59.1806 33.0802 59.2442 33.0706C59.1481 33.0551 59.0554 33.0911 58.9395 33.2821Z" fill="white"/>
<path d="M59.8268 33.1529C59.6437 33.0729 59.4422 33.0445 59.2441 33.0709C59.3933 33.0928 59.5496 33.2462 59.8268 33.1529Z" fill="white"/>
<path d="M55.8663 33.0628C55.99 32.8329 56.3613 32.9708 56.3613 32.9708C55.5643 32.7212 56.4093 32.5296 56.4298 32.3535C55.985 32.4193 56.0502 32.7177 55.8663 33.0628Z" fill="white"/>
<path d="M54.9072 33.1492C54.9826 33.1502 55.0568 33.1683 55.1242 33.2022C55.0948 33.1768 55.0598 33.1588 55.0221 33.1496C54.9844 33.1404 54.945 33.1402 54.9072 33.1492Z" fill="white"/>
<path d="M54.5788 32.9102C54.3334 32.9576 54.3044 33.2228 54.2344 33.4257C54.5908 33.6279 54.6912 33.2079 54.909 33.1499C54.7252 33.1386 54.5526 33.1613 54.5788 32.9102Z" fill="white"/>
<path d="M50.336 32.1197C50.389 32.0921 50.5319 32.0977 50.5 31.9486L50.0673 31.9316C49.9146 32.015 50.242 32.0865 50.336 32.1197Z" fill="white"/>
<path d="M49.301 32.6382C48.963 32.6552 49.05 32.2726 48.8965 32.3568L49.0373 32.8652L49.301 32.6382Z" fill="white"/>
<path d="M49.8252 34.597L49.9164 34.5468L49.8047 34.5623L49.8252 34.597Z" fill="white"/>
<path d="M47.8767 32.3112L47.9792 31.7505C47.7247 31.8891 47.8286 32.3395 47.8767 32.3112Z" fill="white"/>
<path d="M46.852 31.9789L47.0118 31.8077L46.4199 31.9654L46.852 31.9789Z" fill="white"/>
<path d="M45.7209 32.1596L45.6354 32.0386L45.2373 32.1751L45.7209 32.1596Z" fill="white"/>
<path d="M32.5889 32.6123C32.6469 33.0903 33.2819 32.8895 33.5131 33.0118C33.2225 32.4115 33.0167 33.2141 32.5889 32.6123Z" fill="white"/>
<path d="M25.3047 33.1902L25.9291 33.0693C25.3726 32.8904 25.7876 33.0692 25.3047 33.1902Z" fill="white"/>
</mask>
<g mask="url(#mask0_5_584)">
<path d="M17.165 31.6851C17.9645 33.4845 21.7621 34.3842 23.2612 34.4842C23.9607 34.5841 24.8601 34.0843 25.5597 34.1843C25.9594 34.2842 26.1593 34.984 26.659 34.884C27.0587 34.884 27.3586 34.7841 27.7583 34.6841C29.3573 34.2842 31.1561 34.0843 32.8551 34.2842C33.7545 34.3842 34.554 33.8844 35.3535 33.6844C35.9531 33.5845 36.7526 33.8844 37.4521 33.7844C38.5514 33.5845 39.6507 33.8844 40.6501 33.7844C42.349 33.6844 43.948 33.6844 45.6469 33.5845C46.9461 33.4845 48.2453 33.7844 49.4445 33.8844C50.6437 33.9843 51.843 33.9843 53.0422 33.9843C55.4407 33.9843 57.8392 33.8844 60.2376 33.8844" stroke="#202020" stroke-width="3.99865" stroke-miterlimit="10" stroke-linejoin="round" stroke-dasharray="41.99 41.99"/>
</g>
<mask id="mask1_5_584" style="mask-type:luminance" maskUnits="userSpaceOnUse" x="37" y="23" width="30" height="18">
<path d="M39.9604 39.522C39.9352 39.5489 39.9073 39.5731 39.877 39.5941C39.9802 39.5913 40.0261 39.5764 39.9604 39.522Z" fill="white"/>
<path d="M38.6969 40.0549C39.1234 40.0058 39.53 39.8472 39.8771 39.5945C39.5434 39.603 38.5816 39.4687 38.6969 40.0549Z" fill="white"/>
<path d="M39.6611 38.5967L39.292 38.8583C39.6073 38.9559 39.4526 38.6978 39.6611 38.5967Z" fill="white"/>
<path d="M39.71 39.1577L39.8146 39.36L39.9674 39.1082L39.71 39.1577Z" fill="white"/>
<path d="M62.5834 35.7104C62.575 35.8248 62.6048 35.9387 62.6683 36.0342L62.5834 35.7104Z" fill="white"/>
<path d="M63.1602 34.5002C63.2156 34.456 63.2756 34.4179 63.3391 34.3864C63.2719 34.3884 63.2359 34.4246 63.1602 34.5002Z" fill="white"/>
<path d="M61.6514 35.8784L61.8395 35.8586C61.7765 35.8424 61.7096 35.8495 61.6514 35.8784Z" fill="white"/>
<path d="M50.2928 38.0027C50.1896 38.1922 50.0898 38.3655 50.0078 38.4885C50.3953 38.5677 50.2829 38.2219 50.2928 38.0027Z" fill="white"/>
<path d="M65.2252 34.8834L65.1572 34.7094C65.1134 34.7744 65.0965 34.8424 65.2252 34.8834Z" fill="white"/>
<path d="M62.1895 31.6967C62.2167 31.7728 62.2569 31.8436 62.3083 31.906C62.3183 31.8876 62.3317 31.8728 62.343 31.8502L62.1895 31.6967Z" fill="white"/>
<path d="M60.8094 35.7394L60.7931 35.7231L60.6934 35.8667C60.7824 35.8751 60.8221 35.8355 60.8094 35.7394Z" fill="white"/>
<path d="M63.6836 34.8268C63.6137 34.926 63.5624 35.0372 63.5322 35.1548C63.5638 35.1433 63.5928 35.1258 63.6176 35.103C63.6423 35.0803 63.6623 35.0529 63.6764 35.0224C63.6905 34.9919 63.6984 34.9589 63.6996 34.9253C63.7009 34.8917 63.6954 34.8582 63.6836 34.8268Z" fill="white"/>
<path d="M63.3672 34.3773L63.3629 34.373L63.3389 34.3872C63.3502 34.3872 63.3537 34.3809 63.3672 34.3773Z" fill="white"/>
<path d="M60.8535 32.2808C60.9157 32.2313 60.9765 32.1917 61.0409 32.1316C61.0187 32.1284 60.996 32.1297 60.9744 32.1355C60.9527 32.1414 60.9324 32.1516 60.9148 32.1656C60.8973 32.1796 60.8828 32.197 60.8722 32.2168C60.8617 32.2367 60.8553 32.2584 60.8535 32.2808Z" fill="white"/>
<path d="M50.2939 38.0028C50.3223 37.9489 50.3513 37.8954 50.3809 37.8423C50.3165 37.8628 50.2967 37.9236 50.2939 38.0028Z" fill="white"/>
<path d="M41.2783 39.6414C41.4191 39.6124 41.4043 39.4858 41.3858 39.3628C41.3238 39.4433 41.2864 39.5401 41.2783 39.6414Z" fill="white"/>
<path d="M38.0498 25.0506L37.9883 25.0273C37.9964 25.0352 38.006 25.0413 38.0166 25.0453C38.0272 25.0494 38.0385 25.0512 38.0498 25.0506Z" fill="white"/>
<path d="M43.921 26.8392C43.9524 26.8093 43.9776 26.7735 43.9953 26.7338C43.9408 26.6794 43.9196 26.7444 43.921 26.8392Z" fill="white"/>
<path d="M49.5105 32.7302L50.5119 32.4355C50.5578 32.6468 51.0263 32.8087 50.7287 32.9719L51.1026 32.7069L51.0963 32.9366C52.788 33.7001 53.9766 32.2326 55.6988 33.5523L55.6811 33.635L56.5552 33.2596C56.7333 33.3516 56.8329 33.7764 57.1319 33.9779C56.9446 33.5077 57.666 34.0258 57.7961 33.6767C58.0385 33.898 57.8258 33.9708 57.7869 34.1355C58.7409 34.7278 59.3698 34.1312 60.3923 34.621C59.8611 34.205 59.2737 33.8663 58.6476 33.6152C59.4115 33.5056 59.601 33.9764 60.4397 33.9941L60.0645 34.122C60.586 34.8586 61.3244 33.9927 61.5484 34.7582C62.0451 34.7419 62.3936 34.0894 63.0303 34.3305L62.843 34.9264L63.4105 35.0388L63.3645 34.597C63.4348 34.5953 63.5038 34.6163 63.5613 34.6568C63.6188 34.6973 63.6618 34.7551 63.684 34.8219C64.0105 34.3878 64.5856 34.7681 65.0704 34.474L65.1588 34.7038C65.1929 34.6631 65.2226 34.6187 65.2471 34.5716C65.3997 34.9759 65.8081 34.9137 65.8739 35.2721C65.7128 35.3272 65.341 35.4559 65.3439 35.2254C64.9644 35.5823 65.9057 35.5668 66.1891 35.6227C65.8563 35.3548 66.2463 35.3746 66.4075 35.3195C66.442 35.3838 66.3884 35.4022 66.3714 35.4855C66.4287 35.5231 66.4941 35.5464 66.5623 35.5534L65.0195 30.1028C64.6951 30.2477 64.8732 31.0507 64.3051 30.4654L64.4026 30.8994L63.9037 30.71C64.2337 31.5349 63.4204 30.9419 63.6967 31.7158C63.2854 31.8587 63.5468 31.2338 63.4338 31.3624C62.9701 31.3144 62.6077 32.2551 62.3053 31.9089C62.0897 32.287 61.6397 32.2114 61.424 32.4553L61.2495 32.111C61.1365 32.2382 61.0376 32.4644 60.863 32.4411C60.842 32.3918 60.8368 32.3372 60.8482 32.2848C60.4319 32.5922 59.9594 32.8151 59.4575 32.9408C59.3832 32.6999 59.3211 32.5527 59.5584 32.3944C58.9734 32.1881 58.5812 33.1684 57.8526 33.2215L57.8265 33.0328L57.5771 33.4236C57.6032 33.2872 57.5021 33.1833 57.4421 33.037C56.7672 33.1465 55.9743 33.3742 55.9376 34.1588C56.0422 33.9383 55.4627 33.8251 55.72 33.4349C55.2662 34.0824 54.3822 34.1948 53.7109 34.5101L53.7349 34.5341L53.5046 34.7844L53.4536 34.7334L53.6162 34.5568C53.3474 34.677 53.1239 34.8798 52.9781 35.1357C52.8403 34.9357 52.6592 34.7694 52.4481 34.6493C52.6276 35.0904 51.4334 34.4726 51.2814 35.053C51.1846 34.9462 51.3987 34.9285 51.2129 34.8105C50.3415 35.1166 49.2202 35.9783 47.9955 35.8984C48.2583 36.7664 47.2647 36.7706 46.8408 37.3079C46.4874 36.8399 47.0677 36.9692 47.067 36.5544C46.7835 36.7445 46.7468 35.9514 46.3228 36.4928C46.3115 36.3981 46.2649 36.3445 46.3899 36.3169C46.0501 36.3586 46.7115 36.9213 46.144 36.8824L45.9802 36.5332L45.8627 37.0746C44.7384 37.0951 43.9597 37.5744 42.8997 37.4146C42.9003 37.4856 42.922 37.5549 42.962 37.6135C43.0021 37.6722 43.0586 37.7176 43.1246 37.744C42.7075 37.8218 42.4602 38.5201 41.8476 38.2692L41.9168 38.0953C41.0377 37.9553 41.3204 38.692 40.4788 39.0207C40.6943 39.0087 41.0554 38.6502 41.2639 39.0538C41.2914 39.3344 40.8179 39.3967 40.5826 39.2207L40.8434 39.6794C40.8582 39.3563 41.2024 39.3203 41.4017 39.121C41.3487 39.174 41.3684 39.2758 41.3833 39.3754C41.6135 39.1946 41.8631 39.0398 42.1274 38.9139L41.6539 38.9634C41.6539 38.4544 42.4242 38.8064 42.5343 38.593C42.7075 39.0361 42.4029 39.034 42.8228 39.3295C43.6495 39.3195 43.0778 38.7675 43.6325 38.2084L43.4482 38.0875C43.6559 37.9801 43.6488 37.4697 44.1081 37.7256C44.2219 38.0205 43.9668 38.0749 43.8983 38.248C44.0417 38.4085 44.1003 37.6302 44.4721 37.8719C44.4189 38.0869 44.3025 38.2809 44.138 38.4291C43.9735 38.5772 43.7684 38.6727 43.5492 38.7033C43.6528 38.8284 43.7126 38.9841 43.7195 39.1464C44.7138 38.5576 45.7193 37.7369 46.934 37.7278C46.5687 38.4142 47.1906 37.6733 47.2944 38.289C47.209 37.8613 47.7163 38.1653 47.9545 37.92C48.2569 38.3329 47.481 38.4092 47.8506 38.6474C48.3926 38.3979 48.8554 37.4018 49.678 37.375C49.6978 37.563 49.5311 37.6323 49.5402 37.7263C49.9889 37.4684 50.2151 36.2908 50.8426 36.8845C50.7118 37.1948 50.5444 37.5363 50.3854 37.8408C50.4483 37.8219 50.5528 37.843 50.7387 37.9356L50.6907 38.3003C51.3393 38.2508 50.8687 37.4889 51.0319 37.0032L51.5902 37.3552C51.7575 37.3858 51.9293 37.3824 52.0953 37.3453C52.2612 37.3082 52.4181 37.2381 52.5565 37.1392C52.6949 37.0404 52.8121 36.9147 52.901 36.7696C52.9899 36.6246 53.0488 36.4632 53.0742 36.295C53.2022 36.266 53.7073 36.145 53.6749 36.6046C53.5724 37.2414 53.5759 37.6606 52.9011 37.8521C52.6445 37.4924 53.2296 37.2902 53.0177 37.3113C52.7738 37.4663 52.1463 37.288 52.0616 37.6952L52.7746 37.4655C53.0135 38.0551 52.4806 37.5658 52.4728 37.8889C52.8686 38.3116 53.06 37.6889 53.4714 37.8797L53.4318 37.9193C53.9682 37.6655 53.9392 37.7992 54.4126 37.3962C54.2225 36.8612 54.0777 37.1206 53.7144 36.9806C54.6451 36.7282 55.4867 35.3944 56.8202 36.0667L56.4584 36.6731C56.8491 36.6738 57.2484 36.0242 57.5042 36.7056C57.0138 36.5997 57.3622 36.9665 57.2081 37.1347L57.1572 37.0837C57.117 37.1241 57.0046 37.2507 57.1383 37.3149C57.3471 36.9285 57.63 36.5869 57.9707 36.3098C57.8858 36.4964 58.2879 36.6272 58.3749 36.7141C58.6554 36.5141 58.2525 36.4207 58.1416 36.2221C58.307 36.1471 58.4264 35.6955 58.7246 36.0094C59.0964 36.2398 58.5579 36.408 58.5897 36.6914L59.3627 35.9521L59.3733 36.0461C59.4009 35.9097 59.5153 35.7838 59.6532 35.8453C59.8524 36.0546 59.6504 36.1719 59.4744 36.15C60.1457 36.3664 60.0397 35.1223 60.793 35.7259L60.9866 35.4361C61.0383 35.4876 61.1407 35.5902 61.1004 35.6347L61.2778 35.3286C61.7081 34.9575 61.6382 35.7866 61.8671 35.8574L61.8389 35.8616C62.036 35.8976 62.2494 36.0744 62.1654 36.1698L62.583 35.6998L62.5858 35.7111C62.6127 35.2205 63.3794 34.8876 63.0268 34.1149C63.1999 34.1326 63.378 34.2415 63.3646 34.3736C63.7518 34.2083 63.5335 35.0034 64.1411 34.6953C64.2041 34.8416 64.1164 34.8317 64.0402 34.9179C64.2175 34.882 64.267 34.8112 64.2599 34.7207C64.3074 34.8237 64.3693 34.9193 64.4436 35.0049C64.3186 34.713 64.6203 34.6967 64.7948 34.7144L64.7807 35.2742C64.7786 35.2196 64.7887 35.1653 64.8102 35.1151C64.8316 35.0648 64.864 35.02 64.9049 34.9838C64.9458 34.9477 64.9942 34.921 65.0467 34.9058C65.0991 34.8906 65.1543 34.8873 65.2082 34.896L65.1707 35.2657C65.5715 35.0261 64.9072 34.5879 65.5693 34.6989L64.9439 34.544C65.4697 34.2684 65.0055 33.7078 65.1298 33.3474C65.3707 32.9309 65.9043 33.0405 66.2738 32.9027L66.2181 32.7154C66.0862 32.688 65.9488 32.7103 65.8323 32.778C65.7159 32.8457 65.6285 32.9541 65.587 33.0823C65.4676 32.7422 65.539 32.6411 65.3114 32.3358C65.4858 32.3452 65.6581 32.2942 65.7993 32.1913C65.9406 32.0884 66.042 31.94 66.0866 31.771L66.1042 31.7533L66.6958 33.8478C66.1919 34.4931 65.9855 32.6949 65.5191 33.6675C65.7432 34.0626 65.9948 33.9934 66.1317 33.7275C66.187 33.8708 66.2071 34.0253 66.1903 34.178C66.1735 34.3307 66.1202 34.4771 66.035 34.6048C66.3124 34.4415 66.6378 34.3793 66.9558 34.4288L66.0314 31.1701C65.8383 31.0623 65.6298 30.9848 65.4132 30.9404C65.2761 31.1001 64.8945 31.284 64.6973 31.1461C64.7553 31.4203 63.9574 31.4691 64.2825 32.0728C63.7321 32.1088 63.8324 31.2351 63.3624 31.7759C63.5115 31.3441 62.9632 31.3765 63.1398 31.009C63.3815 31.4599 63.9059 30.9001 64.1574 30.6612L63.3087 30.2646C63.5229 30.4223 63.2692 30.6605 63.161 30.6952L63.0027 30.288C62.9907 31.2062 61.4863 29.3535 61.2065 30.3657C61.4544 30.3566 61.7166 30.7249 61.7788 30.2484C62.2876 30.6075 61.7633 30.9397 62.0282 31.3051C61.3315 31.5427 60.1351 30.7305 59.4165 31.2797C59.5267 31.014 59.8977 31.1164 59.8864 30.739C59.2681 30.416 58.6547 31.1595 58.0109 31.3779L58.0837 30.9121C57.563 31.2394 57.8349 30.6902 57.2322 30.7432C57.2647 30.8081 57.3707 31.0019 57.2272 30.973C56.7149 30.8436 57.1263 30.5495 56.7764 30.365C56.2315 31.0062 56.411 29.8031 55.6599 30.0597L55.6973 29.8935C55.1079 30.0943 54.2133 29.2574 53.5272 29.0332C53.5943 29.1627 54.0904 29.1442 54.0854 29.6058L53.2509 29.5838C53.1838 29.4546 52.8127 29.3521 53.0113 29.1322C53.1173 29.0969 53.2424 29.2065 53.3286 29.2532L53.1887 28.9945C52.4277 29.1011 53.3194 29.7119 53.3661 30.1531C52.9258 29.9204 52.8297 30.3346 52.5449 30.276C52.359 29.8073 53.0346 29.8851 52.6177 29.3407C52.3399 29.053 51.5563 29.2404 51.3168 29.6186C50.7938 28.5045 49.6568 29.0891 49.5636 28.289C49.5954 28.3533 49.4808 28.6177 49.2746 28.4536L49.3699 28.2762C48.7537 27.7885 48.8646 28.8764 48.4838 28.6155C48.4774 28.4678 48.5855 28.4345 48.6258 28.2756C47.8287 27.9122 47.4803 28.9774 46.6613 28.301C46.6853 28.2218 46.7065 28.1412 46.792 28.1928C46.8167 28.113 46.6768 28.0776 46.4323 28.2133L46.732 28.5781C46.3793 29.4058 45.6056 27.9009 44.9724 27.9744C45.0254 27.8224 45.5017 27.9256 45.2388 27.6231C44.8205 27.503 44.9024 28.4953 44.3802 27.8797C44.6042 27.8337 44.5181 27.3545 44.7285 27.3234C44.4036 27.1665 44.1689 26.8342 44.0608 27.1545C44.0173 27.1145 43.9826 27.066 43.9588 27.012C43.9349 26.958 43.9225 26.8996 43.9223 26.8406C43.7216 27.0484 43.3852 26.7543 43.1668 26.6067L43.2206 26.4525C42.8277 27.2427 42.5542 26.2794 42.0306 26.1556L42.1175 25.9273C41.9539 26.0043 41.7675 26.0172 41.5948 25.9636C41.4222 25.91 41.2759 25.7936 41.1847 25.6375L41.389 25.3993C41.078 25.5124 40.5345 24.8105 40.259 25.1808C40.1573 25.0536 40.5657 24.7327 40.0844 24.5072C40.0388 24.5529 39.9821 24.586 39.9199 24.6034C39.8577 24.6207 39.792 24.6217 39.7293 24.6062C39.6666 24.5907 39.609 24.5593 39.562 24.5149C39.515 24.4706 39.4803 24.4148 39.4612 24.3531C39.4732 24.2153 39.5417 24.0732 39.6611 24.2705C39.7403 24.3326 39.6859 24.3375 39.6541 24.4047L39.8329 24.2542C39.4803 23.8675 39.5199 24.3439 39.1375 24.0308C39.076 23.8279 39.2937 23.8138 39.3637 23.6717C39.3637 23.6717 38.987 23.6583 38.6111 23.6159L37.8457 23.5459C37.7864 23.7466 37.9617 23.9446 37.7914 24.1545L38.2902 24.4783C38.4923 24.9504 37.9679 24.7568 37.7334 24.761L38.0867 24.9589C38.0995 25.0041 38.086 25.0473 38.0507 25.0501L38.322 25.1561C37.5362 25.3003 39.0011 26.1733 38.168 26.1782C38.2762 26.1971 38.3873 26.1874 38.4906 26.15C38.5938 26.1127 38.6855 26.0491 38.7566 25.9655C39.1311 26.015 39.0202 26.2292 39.1524 26.4278L38.5751 26.5176C39.4491 26.7615 38.4491 26.8654 39.0563 27.3919C39.8039 27.4414 40.1594 28.7187 40.5494 28.9096C41.3189 29.1295 40.2753 28.3724 40.7586 28.3356C41.1727 28.4359 40.9523 28.6707 41.2144 28.8509L41.4116 28.4105C41.8829 28.5045 41.4229 28.9025 41.6928 28.8035C42.0652 29.2595 41.5677 28.9612 41.4673 29.3188C41.5805 29.2621 41.7095 29.2447 41.8337 29.2696C41.9579 29.2944 42.0702 29.36 42.1529 29.456C42.1529 29.5973 41.6426 29.449 41.9656 29.6192C43.1548 29.7515 43.4524 30.4209 44.5187 30.6662L44.4317 30.8945C44.5513 30.8725 44.6381 30.7855 44.7568 30.9072L44.6989 31.0613C45.345 31.0721 45.9875 31.1592 46.6132 31.3207L46.2734 31.5462L46.8733 31.3335L46.8365 31.783C47.021 31.3751 47.7714 31.8558 48.3452 31.8502L48.3672 32.1421L48.7035 32.0544L48.6004 32.234C48.9502 32.2855 49.3176 31.8841 49.7417 32.2121C49.4837 32.0629 49.4667 32.5182 49.5105 32.7302ZM63.566 34.5497L63.7165 34.5589C63.6677 34.5964 63.6154 34.5822 63.566 34.5497L63.3264 34.5377C63.3193 34.2648 63.4331 34.4691 63.566 34.5497ZM48.5488 36.1536L48.8795 36.0137C48.7947 36.0024 48.5997 36.2074 48.6187 35.9763C48.5799 36.0193 48.4514 36.0477 48.5488 36.1536ZM62.6755 31.5569L62.8239 31.3589L62.9956 31.6806L62.6755 31.5569ZM59.5047 30.9611L59.8213 30.8535L59.8581 30.9186L59.5344 31.0275L59.5047 30.9611ZM55.428 32.8081C55.5814 32.3323 55.7517 32.883 55.992 32.7176C56.0075 32.6972 56.0279 32.6812 56.0513 32.6709C56.034 32.6893 56.014 32.705 55.992 32.7176C55.8613 32.8723 55.7461 33.2986 55.428 32.8081ZM62.6982 33.8372C62.7286 34.1321 62.3406 34.1115 62.2473 34.2954C62.0706 34.202 62.2735 33.9865 62.3081 33.8175C62.2197 33.7715 62.1668 33.7892 62.0586 33.8252C62.0487 33.2201 62.3929 34.0945 62.6974 33.838L62.6982 33.8372ZM62.1633 32.4865L62.3399 32.1783L62.2502 32.1691L62.1633 32.4865ZM60.6757 32.6525C60.5963 32.6776 60.5243 32.7217 60.4659 32.7809C60.4074 32.8402 60.3643 32.9129 60.3404 32.9926C60.3164 33.0723 60.3123 33.1567 60.3284 33.2384C60.3445 33.32 60.3803 33.3966 60.4327 33.4612C60.6708 33.3022 61.0954 33.2533 61.0848 32.8342C61.0369 33.1099 60.9308 32.2631 60.6757 32.6525ZM58.6816 32.6144C58.8934 32.5436 59.1353 31.9245 59.6306 32.3719L59.3126 32.4779L59.3988 32.5247L59.343 32.7727C59.3465 32.0821 58.8758 32.6221 58.6816 32.6144ZM58.2024 33.908C58.1323 33.9511 58.0716 34.0078 58.0237 34.0747C57.9757 34.1416 57.9416 34.2173 57.9233 34.2975C57.9049 34.3777 57.9027 34.4608 57.9168 34.5419C57.9309 34.6229 57.961 34.7004 58.0053 34.7697C57.8456 34.518 58.2237 34.0988 58.4016 33.7934C58.331 33.874 58.2872 33.9179 58.2024 33.908ZM58.5621 34.3681C58.736 34.3879 58.8222 34.7244 59.0003 34.419C58.8384 34.1681 58.6702 33.4993 59.1586 33.5991C59.0532 34.1483 59.126 34.3878 58.8215 34.7251L58.5621 34.3681ZM58.8257 33.2378L59.42 33.3036C59.3931 33.9426 59.1084 33.3906 58.8257 33.2378L58.6321 33.2152C58.6638 33.203 58.698 33.1987 58.7317 33.2027C58.7654 33.2066 58.7976 33.2187 58.8257 33.2378ZM55.1843 34.3356L55.2599 34.1539C55.209 34.0789 55.1963 33.9999 55.3525 33.9398L55.2599 34.1539C55.3631 34.2982 55.6267 34.4204 55.1843 34.3356ZM58.3565 33.409L57.9035 33.5892C58.0802 33.616 58.4292 33.657 58.3551 33.4146L58.3565 33.409ZM56.2386 34.4671C56.0151 34.5221 55.7871 34.5571 55.5574 34.5717C55.6245 34.3928 56.0796 34.2148 56.2386 34.4671ZM45.2579 37.4791L45.5497 37.7993L45.255 37.8946L45.2579 37.4791ZM48.6195 37.2267L48.7855 37.1581L48.9332 37.3171L48.6195 37.2267ZM52.3761 36.6259C52.3438 36.6248 52.3125 36.6151 52.2853 36.5978C52.258 36.5805 52.2359 36.5563 52.2212 36.5276C51.7737 36.3823 51.2901 36.3943 50.8504 36.5616C50.6136 36.3911 50.9153 35.9664 50.9818 35.791C51.2906 37.0372 51.4376 35.6178 51.9132 35.9607C51.8835 36.0964 51.6679 36.114 51.6884 36.3014C51.756 36.3454 51.8361 36.366 51.9165 36.3602C51.9969 36.3543 52.0732 36.3222 52.1336 36.2689C52.1244 36.1777 52.14 36.0999 52.1846 36.0907C52.1898 36.1224 52.1879 36.1547 52.1791 36.1855C52.1703 36.2163 52.1548 36.2448 52.1336 36.2689C52.1414 36.3611 52.1718 36.4494 52.2212 36.5276C52.2779 36.5497 52.329 36.5839 52.3725 36.6266L52.3761 36.6259ZM56.8845 35.4808C56.9022 35.357 56.6767 35.2644 56.8775 35.0495C56.9207 35.1128 56.9444 35.1874 56.9457 35.2641C56.9469 35.3407 56.9257 35.4161 56.8845 35.4808C56.8775 35.5259 56.8385 35.5761 56.7276 35.6377C56.7922 35.6019 56.845 35.548 56.8795 35.4827L56.8845 35.4808ZM56.9227 36.1735L57.3212 35.5245L57.2301 35.8377L57.5353 35.504C57.5661 35.5924 57.5724 35.6874 57.5535 35.7791C57.5345 35.8707 57.4911 35.9554 57.4277 36.0243C57.3644 36.0932 57.2836 36.1435 57.1939 36.17C57.1042 36.1965 57.009 36.1982 56.9184 36.1748L56.9227 36.1735ZM58.3883 35.4143L57.7812 35.7628L57.7721 35.6928L57.7311 35.7112L57.729 35.3923L57.7679 35.6999L58.3883 35.4143ZM63.6536 33.2873L63.9921 33.2315C63.9328 33.3334 63.8534 33.4223 63.7588 33.4926C63.6641 33.563 63.5562 33.6134 63.4415 33.6408C64.1433 34.3653 63.5045 33.4605 64.2174 33.6266C63.5519 33.809 64.0366 34.243 64.2105 34.564C64.132 34.0514 65.1065 34.0917 64.4174 33.182C64.2775 33.4477 63.5639 32.6306 63.6514 33.2923L63.6536 33.2873ZM64.2698 32.3882L63.8246 32.3868L64.3023 32.4518L64.2698 32.3882ZM51.6517 29.6611C51.7485 29.2476 52.4135 29.7883 52.4072 30.0166C52.306 29.8265 51.9705 29.7848 51.6517 29.6611ZM47.0986 28.7018C47.363 28.8616 47.6923 28.3909 47.8422 28.9478L47.3171 29.0192C47.2161 28.8178 47.0308 28.9408 47.0986 28.7018ZM43.788 27.6394L43.6192 28.0983L43.7901 28.0685L43.788 27.6394ZM44.3421 27.2407C44.2551 27.1864 43.894 27.1913 44.0085 27.4543L44.3421 27.2407ZM40.8957 26.447L41.1113 26.0701L40.8922 25.9585L40.8957 26.447ZM41.1056 26.8407C41.1755 26.8145 41.2066 26.7227 41.2271 26.6145C41.3486 26.5382 41.5451 26.5665 41.7345 26.7658C41.6992 26.9807 41.5685 26.7905 41.449 26.8011C41.5317 26.8598 41.6695 27.0556 41.8405 27.0358C41.6539 26.5664 41.7959 26.618 41.7797 26.2681C41.278 25.8666 41.2892 26.312 41.2271 26.616C41.1898 26.6395 41.1587 26.6717 41.1365 26.7098C41.1144 26.748 41.1018 26.7909 41.0999 26.835L41.1056 26.8407ZM42.9351 27.6444C42.8852 27.573 42.8518 27.4914 42.8376 27.4055C42.5062 27.1616 42.174 26.9256 42.5238 26.6393L42.8298 26.8039C42.6898 26.753 42.7181 26.8209 42.6891 26.8966C42.9118 27.1475 43.0538 26.9093 43.2192 26.8768C43.1295 27.0131 42.7796 27.0973 42.8355 27.4019C42.9252 27.4705 43.0135 27.5376 43.0884 27.6055C43.1422 27.5659 43.2029 27.5503 43.275 27.7215L43.2446 27.7985C43.2065 27.724 43.1533 27.6582 43.0884 27.6055C43.0375 27.6479 42.9895 27.7059 42.9351 27.6444ZM40.8285 27.0754C40.7953 27.1482 40.8462 27.2839 40.7544 27.3616L40.5798 27.3765C40.3579 27.1121 40.6292 27.0245 40.8285 27.0754ZM50.4921 29.7311C50.5457 29.7141 51.0574 29.8513 51.0291 29.5615L51.2143 30.0293C50.9515 29.8879 50.7288 30.1855 50.8511 30.298C50.6285 29.9862 50.4468 30.1227 50.4921 29.7311ZM63.5016 32.2687C63.3794 32.391 62.6897 31.9359 62.6656 32.4787C62.3688 31.8142 63.1497 32.0835 63.5002 32.2673L63.5016 32.2687ZM63.6529 32.9035C63.7074 32.8996 63.7622 32.9022 63.8161 32.9112C63.9998 32.8293 63.9256 32.3776 64.298 32.6865C64.226 32.7869 64.0676 32.6115 63.9956 32.7133C64.0486 32.9982 63.9914 32.9352 63.8161 32.9112C63.7897 32.922 63.7612 32.9267 63.7327 32.9251C63.7042 32.9235 63.6765 32.9156 63.6514 32.902L63.6529 32.9035ZM56.3608 31.9555L56.7319 32.0581L56.917 31.6905L56.3608 31.9555ZM52.8955 31.7591L53.1979 31.7321L53.0756 31.6212C53.0629 31.5124 52.9852 31.3428 53.0607 31.2855C53.1092 31.2897 53.158 31.2854 53.205 31.2728C53.1329 31.2586 53.0869 31.265 53.0607 31.2855C52.8396 31.2777 52.5506 31.1837 52.5577 31.489C52.6332 31.3893 53.0566 31.4763 53.0524 31.7011L52.8955 31.7591ZM45.5617 30.3171C45.732 30.2796 45.7575 30.2004 46.0331 30.5058C45.9447 30.5233 45.8532 30.5147 45.7695 30.4812C45.6859 30.4477 45.6137 30.3907 45.5617 30.3171ZM54.7186 32.4377C54.7221 32.208 55.1284 32.374 54.9602 32.0545L54.783 31.9619C55.0479 32.1012 54.862 31.4021 55.2626 31.7972L55.0366 31.7237C55.3341 31.9267 54.7434 32.1274 55.1865 32.3585C55.3617 32.4504 54.9335 32.596 54.7186 32.4377ZM45.0212 30.7884C45.2833 30.8089 45.1781 30.1791 45.6275 30.5919C45.3087 30.5884 45.3865 31.1595 45.0212 30.7884ZM52.2735 32.8645L52.3082 32.9288L52.634 32.8221L52.6 32.7585L52.2735 32.8645Z" fill="white"/>
<path d="M44.9529 27.3948C44.8888 27.3437 44.8084 27.3175 44.7266 27.3212C44.7972 27.3585 44.8738 27.3834 44.9529 27.3948Z" fill="white"/>
<path d="M64.5859 30.9829C64.5927 31.0172 64.6064 31.0498 64.6261 31.0787C64.6458 31.1076 64.6711 31.1322 64.7005 31.1511C64.6806 31.0846 64.6406 31.0258 64.5859 30.9829Z" fill="white"/>
<path d="M65.3848 30.939L65.4152 30.9425L65.4378 30.9199L65.3848 30.939Z" fill="white"/>
<path d="M41.6564 39.9798C41.6494 40.3942 41.8346 40.0081 41.9634 39.9812C41.8346 40.0081 41.6826 39.7557 41.6564 39.9798Z" fill="white"/>
<path d="M42.4099 39.1279C42.3962 39.1903 42.3688 39.2488 42.3297 39.2992C42.2905 39.3496 42.2406 39.3907 42.1836 39.4193C42.2685 39.4108 42.3484 39.3493 42.4099 39.1279Z" fill="white"/>
<path d="M41.6562 39.4718C41.8334 39.5113 42.0186 39.4927 42.1845 39.4188C42.0516 39.4272 41.8812 39.3092 41.6562 39.4718Z" fill="white"/>
<path d="M45.1502 38.622C45.0872 38.89 44.7344 38.837 44.7344 38.837C45.4825 38.9034 44.7796 39.3064 44.7959 39.4952C45.1735 39.3185 45.0569 39.025 45.1502 38.622Z" fill="white"/>
<path d="M45.9723 38.301C45.9064 38.3185 45.8369 38.3175 45.7715 38.2982C45.8014 38.3174 45.836 38.3278 45.8715 38.3283C45.907 38.3288 45.9419 38.3194 45.9723 38.301Z" fill="white"/>
<path d="M46.3093 38.4694C46.5151 38.3612 46.4861 38.0777 46.5087 37.8514C46.1559 37.7262 46.1509 38.188 45.9707 38.3032C46.1361 38.2679 46.2825 38.2022 46.3093 38.4694Z" fill="white"/>
<path d="M53.83 38.0225C53.7897 38.0642 53.6638 38.0939 53.7204 38.2425L54.1044 38.1512C54.2196 38.0261 53.9191 38.0338 53.83 38.0225Z" fill="white"/>
<path d="M54.9258 36.9539C55.2178 36.8514 55.2214 37.2707 55.338 37.1441L55.109 36.6505L54.9258 36.9539Z" fill="white"/>
<path d="M53.6898 34.4762L53.6191 34.5469L53.7167 34.503L53.6898 34.4762Z" fill="white"/>
<path d="M56.5898 37.0661L56.6174 37.6735C56.8104 37.4663 56.6287 37.0272 56.5898 37.0661Z" fill="white"/>
<path d="M57.8979 37.1305L57.7939 37.349L58.2769 37.0343L57.8979 37.1305Z" fill="white"/>
<path d="M59.166 36.4863L59.2636 36.5923L59.5861 36.3491L59.166 36.4863Z" fill="white"/>
<path d="M57.88 30.2949C57.8722 30.7553 58.5305 30.6824 58.7455 30.8437C58.5355 30.2221 58.2251 30.9398 57.88 30.2949Z" fill="white"/>
<path d="M45.5498 27.7659L46.1904 27.8324C45.6778 27.5163 46.0504 27.7928 45.5498 27.7659Z" fill="white"/>
</mask>
<g mask="url(#mask1_5_584)">
<path d="M38.4515 23.3879C38.3516 24.0877 38.5514 24.8874 39.0511 25.3873C40.5502 26.6868 42.1492 27.8864 43.8481 28.7861C44.3478 29.086 44.9474 29.2859 45.4471 29.2859C45.6469 29.2859 46.4464 29.6858 46.5464 29.6858C47.2459 29.8857 47.046 29.7858 47.6457 29.8857C48.2453 29.9857 48.9448 29.8857 49.5445 29.9857C49.7443 29.9857 49.9442 30.0857 50.1441 30.0857C50.6438 30.1856 51.0435 30.1856 51.5432 30.2856C51.6431 30.2856 51.7431 30.2856 51.843 30.3856C51.9429 30.3856 52.0429 30.4855 52.1428 30.5855C52.2427 30.5855 52.4426 30.5855 52.5425 30.5855C52.6425 30.5855 52.8424 30.6855 52.9423 30.7854C52.9423 30.7854 52.8424 30.6855 52.8424 30.5855C56.1403 31.3852 59.3382 31.5852 62.6361 32.085C63.3357 32.185 64.6349 31.6851 65.3344 31.7851C67.1333 35.084 64.435 33.7844 63.6355 33.4845C63.4356 33.3845 63.2357 33.5845 63.0359 33.7844C62.9359 33.8844 63.7354 33.5845 62.2364 34.0843C62.0365 34.0843 61.337 33.6844 61.1371 33.6844C60.3376 33.9843 60.7373 34.4842 59.9378 34.7841C59.4382 34.984 58.139 35.5838 57.6393 35.5838C54.941 35.8837 52.5425 35.9837 50.0441 36.8834C48.745 37.3832 47.5457 37.4832 46.2465 37.883C45.9467 37.983 45.6469 38.083 45.2472 38.083C45.0473 38.083 44.8474 38.083 44.6476 38.083C42.1492 37.883 40.1504 39.8823 37.752 40.4821" stroke="#202020" stroke-width="3.99865" stroke-miterlimit="10" stroke-linejoin="round" stroke-dasharray="61.98 61.98"/>
</g>
</g>
<defs>
<clipPath id="clip0_5_584">
<rect width="52.2656" height="44.9688" fill="white" transform="translate(16.2578 10.5923)"/>
</clipPath>
</defs>
</svg>
