<svg width="85" height="66" viewBox="0 0 85 66" fill="none" xmlns="http://www.w3.org/2000/svg">
<rect width="84" height="65" transform="translate(0.398438 0.57666)" fill="#FBED81"/>
<g clip-path="url(#clip0_5_497)">
<mask id="mask0_5_497" style="mask-type:luminance" maskUnits="userSpaceOnUse" x="21" y="31" width="48" height="5">
<path d="M23.1054 33.5225C23.0724 33.5037 23.0375 33.4883 23.0014 33.4766C23.1124 33.4561 23.1647 33.4546 23.1054 33.5225Z" fill="white"/>
<path d="M21.631 33.341C22.0923 33.2812 22.5611 33.3274 23.002 33.476C22.638 33.5503 21.6232 33.906 21.631 33.341Z" fill="white"/>
<path d="M22.9678 34.4451L22.5153 34.2937C22.8377 34.1283 22.7239 34.3991 22.9678 34.4451Z" fill="white"/>
<path d="M22.9111 33.9192L22.9818 33.707L23.1982 33.9008L22.9111 33.9192Z" fill="white"/>
<path d="M42.0586 32.0771C42.0242 31.9734 42.0313 31.8604 42.0784 31.7618L42.0586 32.0771Z" fill="white"/>
<path d="M42.7317 32.7634C42.8027 32.7892 42.8762 32.8076 42.9509 32.8185C42.9126 32.8246 42.8734 32.8228 42.8357 32.8134C42.798 32.8039 42.7627 32.7869 42.7317 32.7634Z" fill="white"/>
<path d="M41.2367 32.1089L41.4453 32.0771C41.3807 32.1088 41.3079 32.1199 41.2367 32.1089Z" fill="white"/>
<path d="M31.5869 32.8227C31.4349 32.6764 31.2885 32.5441 31.1761 32.4529C31.5799 32.2811 31.5304 32.6248 31.5869 32.8227Z" fill="white"/>
<path d="M46.1572 35.1449L46.2477 34.9766C46.2809 35.0523 46.2894 35.1258 46.1572 35.1449Z" fill="white"/>
<path d="M42.4617 34.9271C42.4745 34.8487 42.5019 34.7734 42.5423 34.7051C42.5595 34.7173 42.5761 34.7306 42.5918 34.7447L42.4617 34.9271Z" fill="white"/>
<path d="M40.6086 32.3754L40.5916 32.3924L40.4551 32.2912C40.5506 32.258 40.6001 32.2877 40.6086 32.3754Z" fill="white"/>
<path d="M47.3228 35.27C47.3781 35.3861 47.4132 35.5107 47.4268 35.6385C47.3666 35.6011 47.3226 35.5426 47.3034 35.4745C47.2841 35.4063 47.291 35.3333 47.3228 35.27Z" fill="white"/>
<path d="M42.9473 32.8105V32.8176L42.919 32.8119C42.9296 32.8099 42.936 32.8134 42.9473 32.8105Z" fill="white"/>
<path d="M41.2342 34.7446C41.3133 34.7714 41.389 34.7906 41.4717 34.8266C41.4507 34.8369 41.4279 34.843 41.4046 34.8444C41.3813 34.8459 41.3579 34.8427 41.3359 34.8351C41.3138 34.8275 41.2934 34.8155 41.276 34.8C41.2585 34.7845 41.2443 34.7657 41.2342 34.7446Z" fill="white"/>
<path d="M31.5202 32.7366L31.6467 32.8632C31.614 32.8607 31.5832 32.8466 31.5599 32.8234C31.5367 32.8001 31.5226 32.7693 31.5202 32.7366Z" fill="white"/>
<path d="M24.5113 33.0899C24.6712 33.08 24.6839 33.2002 24.6853 33.3176C24.6041 33.2626 24.5431 33.1827 24.5113 33.0899Z" fill="white"/>
<path d="M67.1121 33.3359L67.1729 33.3416C67.163 33.3458 67.1523 33.3475 67.1417 33.3465C67.1311 33.3455 67.1209 33.3419 67.1121 33.3359Z" fill="white"/>
<path d="M61.2435 32.7366C61.2211 32.6944 61.206 32.6488 61.1989 32.6016C61.2619 32.5598 61.2696 32.6369 61.2435 32.7366Z" fill="white"/>
<path d="M58.1829 35.9719L57.5023 35.557C57.4444 35.714 57.0904 35.7541 57.2848 35.9373L57.0466 35.6637L57.0254 35.8446C55.7294 36.1415 54.9994 34.8077 53.596 35.5612L53.6016 35.6291L52.9904 35.1957C52.8491 35.2395 52.7353 35.5556 52.4943 35.6666C52.678 35.3287 52.093 35.6199 52.03 35.3265C51.8286 35.4614 51.9799 35.552 51.9925 35.6864C51.2287 35.9995 50.8188 35.434 50.0139 35.6552C50.4475 35.4132 50.9163 35.2405 51.4032 35.1434C50.8464 34.9384 50.662 35.2756 50.0401 35.1611L50.3058 35.3195C49.8507 35.8128 49.3801 35.0268 49.1448 35.5888C48.7752 35.5018 48.5781 34.937 48.0819 35.0275L48.1668 35.5223L47.7351 35.523L47.8092 35.1844C47.7584 35.1723 47.7049 35.1781 47.658 35.2011C47.611 35.2241 47.5735 35.2627 47.552 35.3103C47.3491 34.9207 46.8842 35.13 46.5513 34.8296L46.4659 34.9957C46.443 34.9574 46.4245 34.9166 46.4107 34.8741C46.2602 35.166 45.962 35.0572 45.8814 35.3272C45.9966 35.393 46.2623 35.5499 46.28 35.3697C46.5308 35.7054 45.832 35.552 45.615 35.5527C45.8835 35.3972 45.5952 35.3506 45.4793 35.2841C45.4483 35.3293 45.4864 35.352 45.4885 35.4163C45.0405 35.5987 45.0984 34.7434 44.6886 35.3301L44.6914 35.0148L44.3204 35.2445C44.4384 34.6147 43.8823 35.1823 43.9671 34.597C43.6039 34.5786 43.9325 34.9568 43.8158 34.8896C43.4456 35.0126 42.9778 34.4373 42.7933 34.7335C42.5475 34.5158 42.1941 34.6528 41.9743 34.5264L41.8944 34.7957C41.7792 34.7299 41.6563 34.597 41.5178 34.6437C41.5098 34.6819 41.5164 34.7217 41.5362 34.7554C41.1311 34.6242 40.7069 34.562 40.2812 34.5715C40.2642 34.7511 40.2394 34.8634 40.4621 34.9278C40.0197 35.1809 39.5229 34.5821 38.9181 34.6811L38.928 34.8127L38.653 34.5927C38.7018 34.6854 38.6346 34.7723 38.6114 34.8846C38.0375 34.9412 37.3492 34.9313 37.1818 34.3963C37.3061 34.5293 36.8588 34.7193 37.1323 34.9349C36.6454 34.5737 35.9041 34.6578 35.2993 34.5674L35.3169 34.5497L35.0851 34.4196L35.0547 34.4656L35.2179 34.5582C34.9864 34.5289 34.7692 34.4304 34.5947 34.2754C34.5129 34.4444 34.3938 34.5926 34.2463 34.7087C34.3163 34.3715 33.447 35.0176 33.2217 34.6422C33.1601 34.7335 33.3396 34.708 33.2075 34.8232C32.4394 34.7759 31.3767 34.3814 30.3893 34.655C30.4579 34.0039 29.6396 34.1878 29.2064 33.8873C28.998 34.274 29.4474 34.0817 29.5187 34.3694C29.2552 34.2881 29.3569 34.8438 28.9202 34.5441C28.9272 34.6118 28.8982 34.6564 29.0044 34.6536C28.7203 34.6846 29.1669 34.1786 28.7083 34.3051L28.6333 34.5765L28.4439 34.2245C27.5225 34.4083 26.8038 34.2139 25.9657 34.5108C25.9325 34.4508 25.9798 34.3185 26.0936 34.2415C25.7402 34.2599 25.4222 33.8173 24.9629 34.1001L25.0478 34.209C24.3538 34.4578 24.4634 33.8973 23.722 33.8159C23.9009 33.7869 24.2542 33.9736 24.358 33.6562C24.334 33.4568 23.9376 33.4957 23.7744 33.6591L23.9157 33.2972C23.9787 33.5169 24.2676 33.4837 24.4634 33.5876C24.4111 33.5594 24.4132 33.4836 24.4061 33.4144C24.5743 33.5289 24.8336 33.5184 25.0887 33.6081L24.6895 33.6456C24.7729 33.999 25.3445 33.6223 25.4696 33.7515C25.5375 33.4136 25.2887 33.4674 25.5819 33.1897C26.2582 33.0533 25.8824 33.5353 26.4293 33.828L26.2985 33.9446C26.4851 33.9827 26.5649 34.3369 26.8978 34.0789C26.9416 33.8541 26.7246 33.8619 26.6392 33.7537C26.7289 33.6173 26.9077 34.1468 27.1698 33.9128C27.0546 33.6039 26.6045 33.4886 26.2774 33.4993C26.3399 33.3988 26.3632 33.2788 26.3431 33.1621C27.2514 33.5217 28.2311 33.6643 29.2042 33.5784C28.7916 33.1656 29.4227 33.5707 29.4043 33.1253C29.4071 33.4377 29.7697 33.1359 30.0049 33.2625C30.1816 32.9217 29.5357 33.0094 29.8001 32.7747C30.2848 32.8482 30.831 33.4568 31.508 33.3282C31.4918 33.1946 31.3434 33.1762 31.3356 33.1104C31.7483 33.2094 32.1321 33.982 32.5425 33.4583C32.3828 33.2674 32.1871 33.0618 32.0041 32.8786C32.1055 32.8633 32.2 32.818 32.2755 32.7486L32.1737 32.5055C32.7114 32.4227 32.455 33.0342 32.6747 33.3402L33.0697 32.9946C33.3175 32.8821 33.5985 32.8667 33.8571 32.9516C34.1157 33.0364 34.333 33.2152 34.4661 33.4526C34.5756 33.449 35.0088 33.4399 34.9028 33.1288C34.7077 32.7076 34.6385 32.4191 34.0548 32.4093C33.9043 32.7012 34.4195 32.7372 34.2406 32.7635C34.0174 32.7041 33.5326 32.9359 33.3948 32.6722L34.016 32.7012C34.1099 32.2509 33.7594 32.685 33.6972 32.463C33.9467 32.099 34.2096 32.4963 34.512 32.2884L34.4739 32.2672C34.9572 32.3492 34.9084 32.2566 35.3628 32.4496C35.3007 32.8539 35.1381 32.7012 34.8661 32.8644C35.6688 32.8673 36.5902 33.6294 37.5605 32.9189L37.1585 32.5676C37.4772 32.4949 37.9174 32.8673 38.0057 32.3492C37.6234 32.5138 37.8438 32.1958 37.6891 32.1089L37.6581 32.1541C37.6199 32.1329 37.504 32.0679 37.6022 31.9979C37.8488 32.2307 38.1386 32.4129 38.4552 32.5343C38.3534 32.4214 38.6608 32.258 38.7124 32.1795C38.9774 32.2636 38.6643 32.4044 38.6114 32.5633C38.7598 32.5831 38.9378 32.8715 39.1257 32.5987C39.3901 32.3697 38.9181 32.357 38.8947 32.1555L39.6593 32.5216L39.6515 32.4545C39.662 32.4786 39.6775 32.5002 39.6969 32.5178C39.7163 32.5355 39.7393 32.5489 39.7643 32.557C39.7893 32.5652 39.8157 32.5679 39.8418 32.5651C39.8679 32.5623 39.8932 32.554 39.9158 32.5407C40.0408 32.3591 39.8558 32.3181 39.7152 32.364C40.2232 32.0905 40.3596 32.9648 40.8655 32.4065L41.0762 32.569C41.1087 32.5237 41.1715 32.4326 41.1334 32.4114L41.3326 32.5881C41.7504 32.7613 41.544 32.2043 41.7185 32.1117L41.6952 32.1152C41.8499 32.0523 41.992 31.8891 41.9058 31.841L42.3305 32.082L42.3298 32.0728C42.44 32.405 43.1248 32.4877 42.9778 33.0858C43.1156 33.0398 43.2449 32.9288 43.206 32.8433C43.553 32.8821 43.23 32.3782 43.782 32.4722C43.8088 32.3577 43.7374 32.3838 43.659 32.3392C43.8116 32.328 43.8639 32.369 43.8738 32.4326C43.8944 32.3509 43.9276 32.273 43.972 32.2015C43.9233 32.4256 44.1719 32.3789 44.3112 32.3329L44.1975 31.9519C44.2879 32.1315 44.3656 32.1753 44.6143 32.1287L44.5169 31.8827C44.8865 31.9696 44.4243 32.3994 44.9451 32.1923L44.4645 32.4185C44.9444 32.5039 44.6681 32.9783 44.8363 33.2017C45.2701 33.5806 46.0701 32.9034 46.2899 33.6661C46.4093 33.4179 46.3648 33.3282 46.5612 33.1246C46.4254 33.1001 46.301 33.0326 46.2063 32.9321C46.1117 32.8316 46.0518 32.7033 46.0355 32.5662C45.4892 32.1867 45.6588 33.4901 45.0941 32.9083C45.2045 32.5944 45.4228 32.5924 45.5832 32.7486C45.6652 32.4786 45.4652 32.3011 45.3437 32.1654C45.7111 32.3167 46.3662 31.9809 46.6072 32.0226C46.6955 32.1676 46.9661 32.3704 47.1237 32.2905C47.058 32.4977 47.6466 32.6539 47.347 33.0794C47.7547 33.1903 47.759 32.492 48.06 32.9868C47.9851 32.6291 48.3957 32.7387 48.2925 32.4234C48.072 32.7373 47.7308 32.2219 47.564 31.9971L48.2325 31.8176C48.0579 31.9074 48.2268 32.1329 48.3031 32.1711L48.4544 31.8785C48.3794 32.598 49.6712 31.3822 49.7836 32.2183C49.5985 32.1746 49.3695 32.4206 49.3666 32.0389C48.9547 32.2403 49.3123 32.5782 49.084 32.8263C49.5815 33.1189 50.5489 32.6659 51.0323 33.2087C50.975 32.9833 50.6881 33.0058 50.7326 32.7125C51.223 32.557 51.6103 33.2342 52.0682 33.5056L52.0661 33.1232C52.4237 33.4625 52.2718 32.9883 52.7155 33.1252C52.6851 33.1712 52.5876 33.3056 52.6978 33.3056C53.0907 33.2858 52.8095 32.9932 53.0914 32.9019C53.4356 33.4894 53.4158 32.5195 53.9507 32.8397L53.9415 32.7076C54.3599 32.9592 55.1068 32.4467 55.6389 32.3838C55.5768 32.4743 55.21 32.3788 55.1682 32.7401L55.7923 32.8581C55.8552 32.7684 56.1407 32.7486 56.0156 32.5442C55.9386 32.4983 55.8354 32.5648 55.7675 32.5874L55.904 32.4015C56.4608 32.6093 55.7358 32.9401 55.6538 33.2822C56.0036 33.1727 56.034 33.5113 56.2502 33.5127C56.4361 33.1755 55.9279 33.1281 56.2891 32.767C56.5258 32.588 57.0926 32.8638 57.2247 33.2066C57.7321 32.4234 58.5087 33.0872 58.6712 32.4807C58.6394 32.5252 58.6945 32.7528 58.867 32.6638L58.8182 32.5062C59.3348 32.2424 59.1192 33.073 59.4308 32.9437C59.4578 32.8291 59.3806 32.7847 59.3694 32.6489C60.0054 32.5245 60.1178 33.43 60.8046 33.0808C60.7989 33.013 60.7968 32.9472 60.7255 32.9663C60.7184 32.8984 60.8258 32.9013 60.9833 33.0618L60.7135 33.2823C60.8463 34.0075 61.625 33.0052 62.0709 33.2165C62.0624 33.0836 61.6986 33.0519 61.9374 32.8751C62.2596 32.8807 62.0335 33.6456 62.5084 33.2936C62.3572 33.2002 62.5006 32.8461 62.3551 32.767C62.6144 32.7267 62.8419 32.5245 62.8631 32.8044C62.9025 32.7827 62.9368 32.7527 62.9635 32.7164C62.9902 32.6802 63.0087 32.6386 63.0178 32.5945C63.1246 32.8128 63.4171 32.6729 63.603 32.6143L63.596 32.48C63.7259 33.2067 64.1026 32.5386 64.5004 32.5902L64.4849 32.3867C64.6347 32.48 64.8333 32.7352 65.2049 32.4496L65.1145 32.198C65.3089 32.3839 65.853 32.0148 65.9555 32.4015C66.0586 32.3365 65.8473 31.9441 66.2423 31.9336C66.2911 32.094 66.5533 32.2587 66.7158 32.0367C66.7448 31.9243 66.7328 31.7879 66.5992 31.899C66.5285 31.9187 66.5646 31.9419 66.5702 32.0113L66.484 31.829C66.8296 31.6557 66.679 32.0141 67.0267 31.9096C67.1256 31.7766 66.9744 31.6791 66.9652 31.5469L68.04 32.0254C68.0168 32.2057 67.8451 32.2926 67.8951 32.5195L67.4726 32.5761C67.2055 32.8645 67.6048 32.919 67.7546 33.0137L67.4684 33.0299C67.4472 33.0596 67.4436 33.0984 67.4648 33.1154L67.2585 33.0915C67.7178 33.5113 66.5448 33.6159 67.0699 33.9475C66.9905 33.911 66.9208 33.8564 66.8663 33.7882C66.8118 33.7199 66.7741 33.6399 66.7561 33.5544C66.4988 33.4568 66.5109 33.6584 66.378 33.7713L66.7222 34.0534C66.1046 33.9235 66.7073 34.3694 66.1879 34.5596C65.7038 34.3199 65.164 35.212 64.8778 35.2283C64.3379 35.1464 65.1767 34.8967 64.8764 34.7065C64.5845 34.6535 64.6764 34.9066 64.4658 34.9674L64.434 34.5596C64.1061 34.4846 64.3209 34.9427 64.1655 34.7801C63.8263 35.0219 64.2128 34.9391 64.2008 35.2551C64.1584 35.1631 63.8934 34.9972 63.7281 35.1541C63.7012 35.2685 64.0623 35.2975 63.8164 35.3371C63.0093 35.0954 62.6857 35.5378 61.931 35.4544L61.9473 35.6574C61.871 35.6107 61.8279 35.5194 61.7304 35.5817L61.7388 35.7147C61.3068 35.5607 60.8532 35.4762 60.3947 35.4643L60.594 35.716L60.211 35.4163L60.1707 35.7775C60.1072 35.417 59.5129 35.6298 59.1107 35.5103L59.0557 35.738L58.8295 35.598L58.8775 35.7577C58.6238 35.7288 58.414 35.3435 58.0734 35.5188C58.2846 35.4544 58.2409 35.8149 58.1829 35.9719ZM47.6657 35.1131L47.5548 35.0982C47.569 35.1136 47.588 35.1236 47.6088 35.1266C47.6295 35.1296 47.6507 35.1253 47.6686 35.1145L47.8474 35.1421C47.8749 34.9292 47.771 35.0699 47.6657 35.1131ZM30.7943 34.3758L31.0882 34.4125C31.0204 34.4365 30.8261 34.3298 30.8798 34.4868C30.8423 34.4634 30.7321 34.4663 30.7943 34.3758ZM48.6 32.9133L48.5081 32.7309L48.3512 32.9557L48.6 32.9133ZM51.0175 32.9352L50.7898 32.7995L50.7573 32.8447L50.9877 32.9804L51.0175 32.9352ZM53.8744 35.0254C53.8065 34.6281 53.6271 35.0311 53.4674 34.867C53.4568 34.8494 53.4419 34.8346 53.4242 34.824C53.4366 34.8403 53.4511 34.8548 53.4674 34.867C53.5437 35.0028 53.5882 35.3541 53.8716 35.0226L53.8744 35.0254ZM48.3752 34.6917C48.3258 34.9165 48.6161 34.961 48.6685 35.1194C48.8091 35.0734 48.6798 34.872 48.6664 34.737C48.7356 34.7144 48.7745 34.7363 48.8522 34.7815C48.913 34.3051 48.5794 34.937 48.3752 34.6917ZM42.5699 34.3673L42.7707 34.5455L42.6994 34.5687L42.5699 34.3673ZM41.3256 34.5363C41.2635 34.5414 41.2011 34.5298 41.145 34.5027C41.0888 34.4756 41.0409 34.434 41.0063 34.3821C40.9716 34.3303 40.9514 34.2701 40.9478 34.2079C40.9441 34.1456 40.9572 34.0835 40.9856 34.028C41.2069 34.0895 41.5652 34.0421 41.6322 34.3326C41.5383 34.1524 41.6027 34.7568 41.3291 34.5398L41.3256 34.5363ZM51.4753 34.356C51.3227 34.2656 51.2032 33.7459 50.7955 34.0152L51.0231 34.151L50.9538 34.1736L50.9722 34.3758C51.0302 33.8357 51.329 34.3326 51.4753 34.356ZM39.0771 34.1418C39.0173 34.1308 38.9606 34.1069 38.911 34.0717C38.8615 34.0364 38.8203 33.9908 38.7903 33.9379C38.7603 33.885 38.7423 33.8261 38.7375 33.7655C38.7327 33.7049 38.7413 33.6439 38.7626 33.587C38.6763 33.7905 39.0615 34.006 39.2607 34.1842C39.1851 34.1397 39.1448 34.1192 39.0771 34.1418ZM39.2883 33.7579C39.4275 33.7119 39.4395 33.4653 39.6374 33.6407C39.5505 33.8436 39.5321 34.3369 39.9137 34.1743C39.7299 33.8166 39.7448 33.6365 39.438 33.4625L39.2883 33.7579ZM39.7074 34.4867L40.1809 34.3284C40.0472 33.8966 39.9108 34.3283 39.7074 34.4867L39.5533 34.5391C39.5812 34.5418 39.6095 34.5387 39.6362 34.5298C39.6628 34.5209 39.6873 34.5065 39.7081 34.4875L39.7074 34.4867ZM36.5324 34.4111L36.6263 34.5221C36.598 34.5828 36.6023 34.6394 36.7393 34.6536L36.6263 34.5221C36.6877 34.4069 36.8773 34.274 36.5359 34.4132L36.5324 34.4111ZM39.2926 34.4564L38.8898 34.4168C39.0297 34.3673 39.3075 34.2732 39.2926 34.4564ZM37.3753 34.1319C37.1825 34.1355 36.9902 34.1539 36.8002 34.1871C36.8836 34.2944 37.2871 34.332 37.3732 34.1298L37.3753 34.1319ZM27.8808 34.0456L28.0652 33.7721L27.8086 33.7572L27.8808 34.0456ZM30.6635 33.6159L30.8105 33.6343L30.9045 33.4978L30.6635 33.6159ZM33.8365 33.3544C33.8116 33.3596 33.7884 33.3711 33.7692 33.3878C33.7501 33.4045 33.7355 33.4259 33.7269 33.4498C33.3814 33.6327 32.9906 33.712 32.6012 33.6781C32.4387 33.8407 32.7567 34.0768 32.8414 34.1857C32.8796 33.2681 33.2464 34.2189 33.5736 33.8987C33.5241 33.8067 33.3503 33.8393 33.3319 33.7035C33.3818 33.6607 33.4426 33.6327 33.5076 33.6227C33.5725 33.6127 33.639 33.6211 33.6994 33.647C33.7079 33.7119 33.7334 33.7629 33.7721 33.7608C33.7703 33.7373 33.7628 33.7146 33.7501 33.6948C33.7374 33.6749 33.72 33.6585 33.6994 33.647C33.6898 33.5806 33.6989 33.5128 33.7255 33.4512C33.7686 33.4267 33.8064 33.3938 33.8365 33.3544ZM37.7174 33.3091C37.7534 33.3905 37.5874 33.4957 37.7838 33.606C37.8082 33.5563 37.8149 33.4998 37.8028 33.4458C37.7908 33.3919 37.7606 33.3436 37.7174 33.3091C37.7032 33.2781 37.6616 33.2533 37.5619 33.2285C37.6204 33.2398 37.6744 33.2678 37.7174 33.3091ZM37.627 32.8242L38.0665 33.1974L37.9365 32.9981L38.2481 33.1684C38.2478 33.0961 38.2282 33.0251 38.1914 32.9628C38.1545 32.9005 38.1017 32.8492 38.0385 32.8141C37.9752 32.779 37.9037 32.7615 37.8313 32.7633C37.759 32.7651 37.6885 32.7861 37.627 32.8242ZM38.959 33.0682L38.4014 32.9444L38.4071 32.9939L38.3703 32.9896L38.429 33.2137L38.4071 32.9939L38.959 33.0682ZM43.6421 33.524L43.9269 33.4978C43.7807 33.3754 43.5936 33.313 43.4032 33.3233C43.8448 32.6906 43.4873 33.4356 44.0398 33.1826C43.4682 33.1889 43.7798 32.7953 43.8639 32.5414C43.8929 32.9083 44.6801 32.692 44.285 33.4491C44.1261 33.2972 43.6915 33.9947 43.6421 33.524ZM47.3407 33.3205L47.6721 33.3862L47.3103 33.365L47.3407 33.3205ZM56.9781 33.1805C56.9491 32.8404 56.4 33.1507 56.3817 33.3304C56.4756 33.1967 56.7293 33.223 56.9781 33.1805ZM60.4343 33.2985C60.2266 33.365 60.0435 32.9302 59.8633 33.3339L60.2343 33.4985C60.3332 33.3643 60.4534 33.5055 60.4343 33.2985ZM62.9741 33.2575L63.0086 33.6654L62.8956 33.5947L62.9741 33.2575ZM62.6533 32.7953C62.7252 32.7741 62.9833 32.8708 62.8546 33.049L62.6533 32.7953ZM65.2276 33.1705L65.1668 32.8072L65.3442 32.7896L65.2276 33.1705ZM64.9958 33.4137C64.9541 33.3721 64.9541 33.2886 64.964 33.1968C64.8975 33.0978 64.7562 33.0596 64.5824 33.1543C64.5605 33.3346 64.6934 33.2243 64.7703 33.2717C64.7004 33.2922 64.5647 33.4024 64.4524 33.3325C64.6793 33.0207 64.5718 33.0193 64.6573 32.7486C65.0961 32.5923 64.9881 32.938 64.9626 33.1953C64.9828 33.2279 64.9958 33.2644 65.0009 33.3024C65.006 33.3404 65.0031 33.3791 64.9923 33.4158L64.9958 33.4137ZM63.5691 33.4993C63.6191 33.4563 63.6585 33.4024 63.6842 33.3417C63.9612 33.2469 64.2419 33.1585 64.0538 32.8305L63.8093 32.8687C63.9168 32.8701 63.8835 32.9147 63.8892 32.9826C63.6849 33.1133 63.6305 32.8864 63.5196 32.8164C63.5578 32.9464 63.7881 33.1133 63.6863 33.3381C63.6128 33.3632 63.5408 33.3927 63.4708 33.4264C63.4412 33.3813 63.4002 33.3558 63.3189 33.4667L63.3252 33.5353C63.3648 33.4883 63.4146 33.4511 63.4708 33.4264C63.4955 33.471 63.5188 33.5282 63.5691 33.4993ZM65.1237 33.6929C65.1294 33.7608 65.0643 33.8499 65.1067 33.9418L65.2176 34.0131C65.4226 33.8802 65.2664 33.7169 65.1216 33.6908L65.1237 33.6929ZM57.8281 33.4427C57.7908 33.4193 57.3985 33.437 57.453 33.2088L57.2671 33.5445C57.4749 33.478 57.6077 33.7523 57.5045 33.8188C57.6988 33.6188 57.8161 33.7558 57.8253 33.4399L57.8281 33.4427ZM47.9229 33.3431C48.0049 33.4561 48.5582 33.2081 48.5265 33.6357C48.8049 33.1606 48.1993 33.2504 47.9215 33.3403L47.9229 33.3431ZM47.7533 33.8152C47.714 33.8036 47.6735 33.7968 47.6325 33.7947C47.5025 33.7028 47.5993 33.3615 47.2933 33.5473C47.3378 33.6371 47.4721 33.524 47.5124 33.611C47.4459 33.8272 47.4954 33.7849 47.6297 33.7919C47.647 33.8045 47.667 33.813 47.688 33.8166C47.7091 33.8203 47.7307 33.8191 47.7512 33.8131L47.7533 33.8152ZM53.2603 34.2061L52.9748 34.2274L52.8696 33.9085L53.2603 34.2061ZM55.8439 34.6119L55.6234 34.5426L55.7259 34.4755C55.7464 34.3927 55.8212 34.2725 55.7703 34.2161C55.7331 34.211 55.6972 34.199 55.6644 34.1807C55.6836 34.1789 55.7029 34.1811 55.7211 34.1872C55.7394 34.1933 55.7561 34.2031 55.7703 34.2161C55.9378 34.2422 56.1569 34.2211 56.1194 34.4578C56.0722 34.3638 55.7542 34.3638 55.7323 34.5441L55.8439 34.6119ZM61.2809 34.9186C61.1685 34.8487 61.1629 34.7808 60.9262 34.9582C60.9814 34.9923 61.0464 35.0068 61.1109 34.9995C61.1753 34.9922 61.2347 34.9642 61.2809 34.9186ZM54.4263 34.848C54.4461 34.667 54.1288 34.7328 54.2871 34.508L54.427 34.4642C54.215 34.5349 54.422 34.0138 54.0872 34.2585L54.2617 34.238C54.0222 34.3489 54.4398 34.5998 54.0892 34.7101C53.9514 34.7561 54.2581 34.9356 54.432 34.8466L54.4263 34.848ZM61.5721 35.4206C61.3905 35.3718 61.5664 34.9002 61.1897 35.1201C61.4116 35.1908 61.2667 35.6185 61.5721 35.4206ZM56.1788 35.5845L56.147 35.6291L55.9216 35.4898L55.9526 35.446L56.1788 35.5845Z" fill="white"/>
<path d="M60.1305 32.9832C60.1671 32.9674 60.2064 32.959 60.2463 32.9585C60.2861 32.958 60.3256 32.9654 60.3625 32.9803C60.2861 32.9961 60.2074 32.9971 60.1305 32.9832Z" fill="white"/>
<path d="M47.0176 32.1338C47.0067 32.1665 46.9894 32.1967 46.9665 32.2225C46.9436 32.2483 46.9158 32.2691 46.8846 32.2838C46.9119 32.221 46.9585 32.1685 47.0176 32.1338Z" fill="white"/>
<path d="M46.4102 31.9964L46.3791 31.995L46.36 31.9675L46.4102 31.9964Z" fill="white"/>
<path d="M24.8539 32.6864C24.7606 32.3088 25.0406 32.6171 25.1855 32.6093C25.0405 32.6171 24.9239 32.8894 24.8539 32.6864Z" fill="white"/>
<path d="M25.8418 33.2821C25.8106 33.2259 25.7669 33.1776 25.7141 33.1409C25.6612 33.1042 25.6007 33.0802 25.5371 33.0706C25.6332 33.0551 25.7259 33.0911 25.8418 33.2821Z" fill="white"/>
<path d="M24.9542 33.1529C25.1373 33.0729 25.3388 33.0445 25.5369 33.0709C25.3877 33.0928 25.2314 33.2462 24.9542 33.1529Z" fill="white"/>
<path d="M28.9149 33.0628C28.7912 32.8329 28.4199 32.9708 28.4199 32.9708C29.2169 32.7212 28.3719 32.5296 28.3514 32.3535C28.7962 32.4193 28.731 32.7177 28.9149 33.0628Z" fill="white"/>
<path d="M29.874 33.1492C29.7986 33.1502 29.7244 33.1683 29.657 33.2022C29.6864 33.1768 29.7214 33.1588 29.7592 33.1496C29.7969 33.1404 29.8362 33.1402 29.874 33.1492Z" fill="white"/>
<path d="M30.2025 32.9102C30.4479 32.9576 30.4769 33.2228 30.5469 33.4257C30.1905 33.6279 30.0901 33.2079 29.8723 33.1499C30.0561 33.1386 30.2287 33.1613 30.2025 32.9102Z" fill="white"/>
<path d="M34.4452 32.1197C34.3922 32.0921 34.2493 32.0977 34.2812 31.9486L34.7139 31.9316C34.8666 32.015 34.5392 32.0865 34.4452 32.1197Z" fill="white"/>
<path d="M35.4803 32.6382C35.8183 32.6552 35.7313 32.2726 35.8848 32.3568L35.744 32.8652L35.4803 32.6382Z" fill="white"/>
<path d="M34.9558 34.597L34.8646 34.5468L34.9763 34.5623L34.9558 34.597Z" fill="white"/>
<path d="M36.9046 32.3112L36.8021 31.7505C37.0566 31.8891 36.9527 32.3395 36.9046 32.3112Z" fill="white"/>
<path d="M37.9292 31.9789L37.7694 31.8077L38.3613 31.9654L37.9292 31.9789Z" fill="white"/>
<path d="M39.0603 32.1596L39.1458 32.0386L39.5439 32.1751L39.0603 32.1596Z" fill="white"/>
<path d="M52.1924 32.6123C52.1344 33.0903 51.4994 32.8895 51.2682 33.0118C51.5588 32.4115 51.7646 33.2141 52.1924 32.6123Z" fill="white"/>
<path d="M59.4766 33.1902L58.8522 33.0693C59.4087 32.8904 58.9937 33.0692 59.4766 33.1902Z" fill="white"/>
</mask>
<g mask="url(#mask0_5_497)">
<path d="M67.616 31.6851C66.8165 33.4845 63.0189 34.3842 61.5198 34.4842C60.8203 34.5841 59.9209 34.0843 59.2213 34.1843C58.8216 34.2842 58.6217 34.984 58.122 34.884C57.7223 34.884 57.4225 34.7841 57.0227 34.6841C55.4237 34.2842 53.6249 34.0843 51.9259 34.2842C51.0265 34.3842 50.227 33.8844 49.4275 33.6844C48.8279 33.5845 48.0284 33.8844 47.3289 33.7844C46.2296 33.5845 45.1303 33.8844 44.1309 33.7844C42.432 33.6844 40.833 33.6844 39.1341 33.5845C37.8349 33.4845 36.5357 33.7844 35.3365 33.8844C34.1373 33.9843 32.938 33.9843 31.7388 33.9843C29.3403 33.9843 26.9418 33.8844 24.5434 33.8844" stroke="#202020" stroke-width="3.99865" stroke-miterlimit="10" stroke-linejoin="round" stroke-dasharray="41.99 41.99"/>
</g>
<mask id="mask1_5_497" style="mask-type:luminance" maskUnits="userSpaceOnUse" x="17" y="23" width="31" height="18">
<path d="M44.8209 39.522C44.846 39.5489 44.874 39.5731 44.9043 39.5941C44.8011 39.5913 44.7552 39.5764 44.8209 39.522Z" fill="white"/>
<path d="M46.0843 40.0549C45.6578 40.0058 45.2512 39.8472 44.9041 39.5945C45.2378 39.603 46.1996 39.4687 46.0843 40.0549Z" fill="white"/>
<path d="M45.1202 38.5967L45.4893 38.8583C45.174 38.9559 45.3287 38.6978 45.1202 38.5967Z" fill="white"/>
<path d="M45.0713 39.1577L44.9667 39.36L44.8139 39.1082L45.0713 39.1577Z" fill="white"/>
<path d="M22.1978 35.7104C22.2063 35.8248 22.1764 35.9387 22.1129 36.0342L22.1978 35.7104Z" fill="white"/>
<path d="M21.6208 34.5002C21.5654 34.456 21.5054 34.4179 21.442 34.3864C21.5092 34.3884 21.5451 34.4246 21.6208 34.5002Z" fill="white"/>
<path d="M23.1299 35.8784L22.9418 35.8586C23.0048 35.8424 23.0716 35.8495 23.1299 35.8784Z" fill="white"/>
<path d="M34.4882 38.0027C34.5914 38.1922 34.6912 38.3655 34.7732 38.4885C34.3857 38.5677 34.4981 38.2219 34.4882 38.0027Z" fill="white"/>
<path d="M19.5561 34.8834L19.6241 34.7094C19.6679 34.7744 19.6848 34.8424 19.5561 34.8834Z" fill="white"/>
<path d="M22.5918 31.6967C22.5646 31.7728 22.5244 31.8436 22.473 31.906C22.463 31.8876 22.4496 31.8728 22.4383 31.8502L22.5918 31.6967Z" fill="white"/>
<path d="M23.9719 35.7394L23.9882 35.7231L24.0879 35.8667C23.9989 35.8751 23.9592 35.8355 23.9719 35.7394Z" fill="white"/>
<path d="M21.0979 34.8268C21.1678 34.926 21.2191 35.0372 21.2493 35.1548C21.2177 35.1433 21.1887 35.1258 21.1639 35.103C21.1392 35.0803 21.1192 35.0529 21.1051 35.0224C21.091 34.9919 21.0831 34.9589 21.0819 34.9253C21.0806 34.8917 21.0861 34.8582 21.0979 34.8268Z" fill="white"/>
<path d="M21.4141 34.3773L21.4184 34.373L21.4424 34.3872C21.4311 34.3872 21.4276 34.3809 21.4141 34.3773Z" fill="white"/>
<path d="M23.9277 32.2808C23.8655 32.2313 23.8047 32.1917 23.7403 32.1316C23.7626 32.1284 23.7852 32.1297 23.8069 32.1355C23.8286 32.1414 23.8488 32.1516 23.8664 32.1656C23.884 32.1796 23.8985 32.197 23.909 32.2168C23.9196 32.2367 23.9259 32.2584 23.9277 32.2808Z" fill="white"/>
<path d="M34.4873 38.0028C34.459 37.9489 34.43 37.8954 34.4003 37.8423C34.4647 37.8628 34.4845 37.9236 34.4873 38.0028Z" fill="white"/>
<path d="M43.5029 39.6414C43.3621 39.6124 43.3769 39.4858 43.3954 39.3628C43.4575 39.4433 43.4948 39.5401 43.5029 39.6414Z" fill="white"/>
<path d="M46.7315 25.0506L46.793 25.0273C46.7848 25.0352 46.7752 25.0413 46.7646 25.0453C46.754 25.0494 46.7428 25.0512 46.7315 25.0506Z" fill="white"/>
<path d="M40.8603 26.8392C40.8289 26.8093 40.8036 26.7735 40.786 26.7338C40.8405 26.6794 40.8617 26.7444 40.8603 26.8392Z" fill="white"/>
<path d="M35.2707 32.7302L34.2694 32.4355C34.2234 32.6468 33.7549 32.8087 34.0525 32.9719L33.6787 32.7069L33.685 32.9366C31.9932 33.7001 30.8047 32.2326 29.0825 33.5523L29.1002 33.635L28.226 33.2596C28.0479 33.3516 27.9483 33.7764 27.6494 33.9779C27.8367 33.5077 27.1152 34.0258 26.9851 33.6767C26.7428 33.898 26.9554 33.9708 26.9943 34.1355C26.0403 34.7278 25.4114 34.1312 24.389 34.621C24.9201 34.205 25.5075 33.8663 26.1337 33.6152C25.3697 33.5056 25.1803 33.9764 24.3416 33.9941L24.7168 34.122C24.1953 34.8586 23.4569 33.9927 23.2328 34.7582C22.7361 34.7419 22.3876 34.0894 21.7509 34.3305L21.9382 34.9264L21.3708 35.0388L21.4168 34.597C21.3465 34.5953 21.2775 34.6163 21.22 34.6568C21.1625 34.6973 21.1195 34.7551 21.0973 34.8219C20.7708 34.3878 20.1956 34.7681 19.7108 34.474L19.6225 34.7038C19.5883 34.6631 19.5587 34.6187 19.5342 34.5716C19.3816 34.9759 18.9731 34.9137 18.9074 35.2721C19.0685 35.3272 19.4402 35.4559 19.4373 35.2254C19.8169 35.5823 18.8756 35.5668 18.5922 35.6227C18.9249 35.3548 18.535 35.3746 18.3738 35.3195C18.3392 35.3838 18.3929 35.4022 18.4099 35.4855C18.3526 35.5231 18.2871 35.5464 18.219 35.5534L19.7617 30.1028C20.0861 30.2477 19.908 31.0507 20.4762 30.4654L20.3786 30.8994L20.8775 30.71C20.5475 31.5349 21.3609 30.9419 21.0846 31.7158C21.4958 31.8587 21.2345 31.2338 21.3474 31.3624C21.8111 31.3144 22.1736 32.2551 22.476 31.9089C22.6915 32.287 23.1416 32.2114 23.3572 32.4553L23.5317 32.111C23.6447 32.2382 23.7437 32.4644 23.9183 32.4411C23.9392 32.3918 23.9444 32.3372 23.9331 32.2848C24.3493 32.5922 24.8218 32.8151 25.3238 32.9408C25.398 32.6999 25.4602 32.5527 25.2228 32.3944C25.8079 32.1881 26.2 33.1684 26.9286 33.2215L26.9547 33.0328L27.2042 33.4236C27.1781 33.2872 27.2791 33.1833 27.3392 33.037C28.0141 33.1465 28.807 33.3742 28.8436 34.1588C28.7391 33.9383 29.3185 33.8251 29.0613 33.4349C29.515 34.0824 30.399 34.1948 31.0703 34.5101L31.0463 34.5341L31.2767 34.7844L31.3277 34.7334L31.1651 34.5568C31.4339 34.677 31.6574 34.8798 31.8031 35.1357C31.9409 34.9357 32.1221 34.7694 32.3331 34.6493C32.1536 35.0904 33.3479 34.4726 33.4999 35.053C33.5966 34.9462 33.3825 34.9285 33.5683 34.8105C34.4398 35.1166 35.5611 35.9783 36.7858 35.8984C36.5229 36.7664 37.5165 36.7706 37.9404 37.3079C38.2938 36.8399 37.7136 36.9692 37.7143 36.5544C37.9977 36.7445 38.0345 35.9514 38.4584 36.4928C38.4697 36.3981 38.5164 36.3445 38.3914 36.3169C38.7311 36.3586 38.0698 36.9213 38.6372 36.8824L38.8011 36.5332L38.9185 37.0746C40.0428 37.0951 40.8215 37.5744 41.8815 37.4146C41.881 37.4856 41.8593 37.5549 41.8192 37.6135C41.7792 37.6722 41.7226 37.7176 41.6567 37.744C42.0737 37.8218 42.3211 38.5201 42.9337 38.2692L42.8644 38.0953C43.7436 37.9553 43.4608 38.692 44.3025 39.0207C44.0869 39.0087 43.7259 38.6502 43.5174 39.0538C43.4898 39.3344 43.9633 39.3967 44.1987 39.2207L43.9378 39.6794C43.923 39.3563 43.5789 39.3203 43.3796 39.121C43.4326 39.174 43.4129 39.2758 43.398 39.3754C43.1677 39.1946 42.9182 39.0398 42.6538 38.9139L43.1273 38.9634C43.1273 38.4544 42.357 38.8064 42.2469 38.593C42.0737 39.0361 42.3783 39.034 41.9585 39.3295C41.1317 39.3195 41.7035 38.7675 41.1487 38.2084L41.3331 38.0875C41.1253 37.9801 41.1324 37.4697 40.6731 37.7256C40.5594 38.0205 40.8144 38.0749 40.883 38.248C40.7396 38.4085 40.6809 37.6302 40.3091 37.8719C40.3624 38.0869 40.4788 38.2809 40.6432 38.4291C40.8077 38.5772 41.0128 38.6727 41.2321 38.7033C41.1285 38.8284 41.0687 38.9841 41.0618 39.1464C40.0675 38.5576 39.0619 37.7369 37.8472 37.7278C38.2126 38.4142 37.5907 37.6733 37.4868 38.289C37.5723 37.8613 37.0649 38.1653 36.8268 37.92C36.5243 38.3329 37.3003 38.4092 36.9307 38.6474C36.3886 38.3979 35.9258 37.4018 35.1033 37.375C35.0835 37.563 35.2502 37.6323 35.2411 37.7263C34.7923 37.4684 34.5662 36.2908 33.9387 36.8845C34.0694 37.1948 34.2369 37.5363 34.3959 37.8408C34.3329 37.8219 34.2284 37.843 34.0425 37.9356L34.0906 38.3003C33.4419 38.2508 33.9125 37.4889 33.7493 37.0032L33.1911 37.3552C33.0237 37.3858 32.852 37.3824 32.686 37.3453C32.52 37.3082 32.3631 37.2381 32.2247 37.1392C32.0863 37.0404 31.9692 36.9147 31.8802 36.7696C31.7913 36.6246 31.7324 36.4632 31.707 36.295C31.5791 36.266 31.0739 36.145 31.1064 36.6046C31.2088 37.2414 31.2053 37.6606 31.8802 37.8521C32.1367 37.4924 31.5516 37.2902 31.7636 37.3113C32.0074 37.4663 32.6349 37.288 32.7197 37.6952L32.0066 37.4655C31.7678 38.0551 32.3006 37.5658 32.3084 37.8889C31.9127 38.3116 31.7212 37.6889 31.3099 37.8797L31.3494 37.9193C30.8131 37.6655 30.8421 37.7992 30.3687 37.3962C30.5587 36.8612 30.7035 37.1206 31.0668 36.9806C30.1361 36.7282 29.2945 35.3944 27.9611 36.0667L28.3229 36.6731C27.9321 36.6738 27.5329 36.0242 27.277 36.7056C27.7674 36.5997 27.419 36.9665 27.5731 37.1347L27.624 37.0837C27.6643 37.1241 27.7766 37.2507 27.643 37.3149C27.4341 36.9285 27.1513 36.5869 26.8105 36.3098C26.8955 36.4964 26.4933 36.6272 26.4064 36.7141C26.1259 36.5141 26.5287 36.4207 26.6396 36.2221C26.4742 36.1471 26.3548 35.6955 26.0566 36.0094C25.6848 36.2398 26.2234 36.408 26.1915 36.6914L25.4185 35.9521L25.4079 36.0461C25.3803 35.9097 25.2659 35.7838 25.1281 35.8453C24.9288 36.0546 25.1309 36.1719 25.3069 36.15C24.6355 36.3664 24.7415 35.1223 23.9882 35.7259L23.7946 35.4361C23.743 35.4876 23.6405 35.5902 23.6808 35.6347L23.5034 35.3286C23.0731 34.9575 23.1431 35.7866 22.9141 35.8574L22.9424 35.8616C22.7452 35.8976 22.5318 36.0744 22.6159 36.1698L22.1983 35.6998L22.1955 35.7111C22.1686 35.2205 21.4019 34.8876 21.7544 34.1149C21.5814 34.1326 21.4033 34.2415 21.4167 34.3736C21.0294 34.2083 21.2478 35.0034 20.6402 34.6953C20.5772 34.8416 20.6648 34.8317 20.7411 34.9179C20.5638 34.882 20.5142 34.8112 20.5213 34.7207C20.4738 34.8237 20.412 34.9193 20.3376 35.0049C20.4627 34.713 20.161 34.6967 19.9865 34.7144L20.0006 35.2742C20.0026 35.2196 19.9926 35.1653 19.9711 35.1151C19.9496 35.0648 19.9173 35.02 19.8763 34.9838C19.8354 34.9477 19.787 34.921 19.7346 34.9058C19.6821 34.8906 19.6269 34.8873 19.573 34.896L19.6105 35.2657C19.2098 35.0261 19.874 34.5879 19.212 34.6989L19.8374 34.544C19.3116 34.2684 19.7758 33.7078 19.6515 33.3474C19.4105 32.9309 18.877 33.0405 18.5074 32.9027L18.5632 32.7154C18.6951 32.688 18.8324 32.7103 18.9489 32.778C19.0654 32.8457 19.1528 32.9541 19.1943 33.0823C19.3137 32.7422 19.2422 32.6411 19.4699 32.3358C19.2955 32.3452 19.1231 32.2942 18.9819 32.1913C18.8407 32.0884 18.7393 31.94 18.6947 31.771L18.677 31.7533L18.0855 33.8478C18.5894 34.4931 18.7957 32.6949 19.2621 33.6675C19.0381 34.0626 18.7864 33.9934 18.6495 33.7275C18.5942 33.8708 18.5741 34.0253 18.591 34.178C18.6078 34.3307 18.661 34.4771 18.7463 34.6048C18.4689 34.4415 18.1435 34.3793 17.8254 34.4288L18.7499 31.1701C18.9429 31.0623 19.1514 30.9848 19.3681 30.9404C19.5052 31.1001 19.8867 31.284 20.0839 31.1461C20.0259 31.4203 20.8238 31.4691 20.4987 32.0728C21.0492 32.1088 20.9489 31.2351 21.4189 31.7759C21.2698 31.3441 21.8181 31.3765 21.6414 31.009C21.3998 31.4599 20.8754 30.9001 20.6239 30.6612L21.4725 30.2646C21.2584 30.4223 21.5121 30.6605 21.6202 30.6952L21.7785 30.288C21.7905 31.2062 23.295 29.3535 23.5748 30.3657C23.3268 30.3566 23.0646 30.7249 23.0024 30.2484C22.4937 30.6075 23.0179 30.9397 22.753 31.3051C23.4498 31.5427 24.6461 30.7305 25.3647 31.2797C25.2545 31.014 24.8836 31.1164 24.8948 30.739C25.5131 30.416 26.1266 31.1595 26.7704 31.3779L26.6976 30.9121C27.2183 31.2394 26.9463 30.6902 27.5491 30.7432C27.5166 30.8081 27.4105 31.0019 27.5541 30.973C28.0663 30.8436 27.655 30.5495 28.0049 30.365C28.5497 31.0062 28.3702 29.8031 29.1214 30.0597L29.084 29.8935C29.6733 30.0943 30.5679 29.2574 31.2541 29.0332C31.1869 29.1627 30.6909 29.1442 30.6959 29.6058L31.5303 29.5838C31.5975 29.4546 31.9685 29.3521 31.77 29.1322C31.6639 29.0969 31.5388 29.2065 31.4527 29.2532L31.5926 28.9945C32.3536 29.1011 31.4619 29.7119 31.4152 30.1531C31.8554 29.9204 31.9516 30.3346 32.2364 30.276C32.4223 29.8073 31.7467 29.8851 32.1635 29.3407C32.4413 29.053 33.2249 29.2404 33.4645 29.6186C33.9875 28.5045 35.1244 29.0891 35.2177 28.289C35.1859 28.3533 35.3004 28.6177 35.5067 28.4536L35.4114 28.2762C36.0276 27.7885 35.9166 28.8764 36.2975 28.6155C36.3039 28.4678 36.1958 28.4345 36.1555 28.2756C36.9526 27.9122 37.301 28.9774 38.1199 28.301C38.0959 28.2218 38.0748 28.1412 37.9892 28.1928C37.9645 28.113 38.1044 28.0776 38.349 28.2133L38.0493 28.5781C38.402 29.4058 39.1757 27.9009 39.8089 27.9744C39.7559 27.8224 39.2796 27.9256 39.5424 27.6231C39.9608 27.503 39.8788 28.4953 40.4011 27.8797C40.177 27.8337 40.2632 27.3545 40.0527 27.3234C40.3777 27.1665 40.6123 26.8342 40.7205 27.1545C40.7639 27.1145 40.7986 27.066 40.8225 27.012C40.8463 26.958 40.8587 26.8996 40.859 26.8406C41.0597 27.0484 41.396 26.7543 41.6144 26.6067L41.5606 26.4525C41.9536 27.2427 42.227 26.2794 42.7507 26.1556L42.6637 25.9273C42.8273 26.0043 43.0138 26.0172 43.1864 25.9636C43.359 25.91 43.5054 25.7936 43.5965 25.6375L43.3923 25.3993C43.7033 25.5124 44.2467 24.8105 44.5223 25.1808C44.624 25.0536 44.2156 24.7327 44.6968 24.5072C44.7425 24.5529 44.7992 24.586 44.8614 24.6034C44.9236 24.6207 44.9892 24.6217 45.0519 24.6062C45.1147 24.5907 45.1723 24.5593 45.2193 24.5149C45.2662 24.4706 45.301 24.4148 45.32 24.3531C45.3081 24.2153 45.2395 24.0732 45.1202 24.2705C45.0409 24.3326 45.0954 24.3375 45.1272 24.4047L44.9484 24.2542C45.301 23.8675 45.2614 24.3439 45.6437 24.0308C45.7052 23.8279 45.4875 23.8138 45.4176 23.6717C45.4176 23.6717 45.7942 23.6583 46.1701 23.6159L46.9355 23.5459C46.9949 23.7466 46.8196 23.9446 46.9899 24.1545L46.491 24.4783C46.2889 24.9504 46.8133 24.7568 47.0479 24.761L46.6946 24.9589C46.6818 25.0041 46.6953 25.0473 46.7306 25.0501L46.4592 25.1561C47.245 25.3003 45.7802 26.1733 46.6132 26.1782C46.5051 26.1971 46.3939 26.1874 46.2907 26.15C46.1874 26.1127 46.0957 26.0491 46.0246 25.9655C45.6501 26.015 45.7611 26.2292 45.6289 26.4278L46.2062 26.5176C45.3321 26.7615 46.3321 26.8654 45.725 27.3919C44.9774 27.4414 44.6219 28.7187 44.2318 28.9096C43.4623 29.1295 44.506 28.3724 44.0227 28.3356C43.6085 28.4359 43.829 28.6707 43.5669 28.8509L43.3697 28.4105C42.8984 28.5045 43.3584 28.9025 43.0885 28.8035C42.716 29.2595 43.2136 28.9612 43.3139 29.3188C43.2007 29.2621 43.0718 29.2447 42.9476 29.2696C42.8234 29.2944 42.711 29.36 42.6284 29.456C42.6284 29.5973 43.1386 29.449 42.8156 29.6192C41.6264 29.7515 41.3289 30.4209 40.2626 30.6662L40.3495 30.8945C40.23 30.8725 40.1431 30.7855 40.0244 30.9072L40.0824 31.0613C39.4363 31.0721 38.7937 31.1592 38.168 31.3207L38.5079 31.5462L37.908 31.3335L37.9447 31.783C37.7603 31.3751 37.0098 31.8558 36.436 31.8502L36.414 32.1421L36.0777 32.0544L36.1809 32.234C35.8311 32.2855 35.4636 31.8841 35.0396 32.2121C35.2975 32.0629 35.3145 32.5182 35.2707 32.7302ZM21.2153 34.5497L21.0648 34.5589C21.1135 34.5964 21.1658 34.5822 21.2153 34.5497L21.4548 34.5377C21.4619 34.2648 21.3482 34.4691 21.2153 34.5497ZM36.2324 36.1536L35.9017 36.0137C35.9866 36.0024 36.1816 36.2074 36.1626 35.9763C36.2014 36.0193 36.3299 36.0477 36.2324 36.1536ZM22.1057 31.5569L21.9573 31.3589L21.7856 31.6806L22.1057 31.5569ZM25.2765 30.9611L24.9599 30.8535L24.9231 30.9186L25.2468 31.0275L25.2765 30.9611ZM29.3532 32.8081C29.1998 32.3323 29.0295 32.883 28.7893 32.7176C28.7738 32.6972 28.7533 32.6812 28.7299 32.6709C28.7473 32.6893 28.7673 32.705 28.7893 32.7176C28.92 32.8723 29.0351 33.2986 29.3532 32.8081ZM22.083 33.8372C22.0527 34.1321 22.4406 34.1115 22.5339 34.2954C22.7106 34.202 22.5078 33.9865 22.4732 33.8175C22.5615 33.7715 22.6145 33.7892 22.7226 33.8252C22.7325 33.2201 22.3883 34.0945 22.0838 33.838L22.083 33.8372ZM22.618 32.4865L22.4413 32.1783L22.531 32.1691L22.618 32.4865ZM24.1055 32.6525C24.1849 32.6776 24.257 32.7217 24.3154 32.7809C24.3738 32.8402 24.4169 32.9129 24.4409 32.9926C24.4648 33.0723 24.469 33.1567 24.4529 33.2384C24.4368 33.32 24.401 33.3966 24.3486 33.4612C24.1104 33.3022 23.6858 33.2533 23.6964 32.8342C23.7444 33.1099 23.8504 32.2631 24.1055 32.6525ZM26.0997 32.6144C25.8878 32.5436 25.646 31.9245 25.1507 32.3719L25.4687 32.4779L25.3824 32.5247L25.4383 32.7727C25.4348 32.0821 25.9054 32.6221 26.0997 32.6144ZM26.5789 33.908C26.6489 33.9511 26.7097 34.0078 26.7576 34.0747C26.8055 34.1416 26.8396 34.2173 26.858 34.2975C26.8763 34.3777 26.8785 34.4608 26.8644 34.5419C26.8503 34.6229 26.8203 34.7004 26.7759 34.7697C26.9356 34.518 26.5576 34.0988 26.3796 33.7934C26.4503 33.874 26.494 33.9179 26.5789 33.908ZM26.2191 34.3681C26.0452 34.3879 25.9591 34.7244 25.781 34.419C25.9429 34.1681 26.1111 33.4993 25.6227 33.5991C25.728 34.1483 25.6553 34.3878 25.9598 34.7251L26.2191 34.3681ZM25.9556 33.2378L25.3612 33.3036C25.3881 33.9426 25.6728 33.3906 25.9556 33.2378L26.1491 33.2152C26.1175 33.203 26.0833 33.1987 26.0496 33.2027C26.0159 33.2066 25.9836 33.2187 25.9556 33.2378ZM29.597 34.3356L29.5213 34.1539C29.5723 34.0789 29.585 33.9999 29.4288 33.9398L29.5213 34.1539C29.4182 34.2982 29.1545 34.4204 29.597 34.3356ZM26.4248 33.409L26.8778 33.5892C26.7011 33.616 26.352 33.657 26.4262 33.4146L26.4248 33.409ZM28.5426 34.4671C28.7662 34.5221 28.9942 34.5571 29.2239 34.5717C29.1567 34.3928 28.7016 34.2148 28.5426 34.4671ZM39.5233 37.4791L39.2315 37.7993L39.5262 37.8946L39.5233 37.4791ZM36.1618 37.2267L35.9958 37.1581L35.8481 37.3171L36.1618 37.2267ZM32.4052 36.6259C32.4374 36.6248 32.4688 36.6151 32.496 36.5978C32.5232 36.5805 32.5454 36.5563 32.5601 36.5276C33.0075 36.3823 33.4912 36.3943 33.9309 36.5616C34.1676 36.3911 33.8659 35.9664 33.7995 35.791C33.4907 37.0372 33.3437 35.6178 32.8681 35.9607C32.8978 36.0964 33.1133 36.114 33.0928 36.3014C33.0253 36.3454 32.9452 36.366 32.8647 36.3602C32.7843 36.3543 32.7081 36.3222 32.6476 36.2689C32.6568 36.1777 32.6412 36.0999 32.5966 36.0907C32.5915 36.1224 32.5933 36.1547 32.6022 36.1855C32.611 36.2163 32.6265 36.2448 32.6476 36.2689C32.6398 36.3611 32.6094 36.4494 32.5601 36.5276C32.5033 36.5497 32.4522 36.5839 32.4088 36.6266L32.4052 36.6259ZM27.8967 35.4808C27.879 35.357 28.1045 35.2644 27.9037 35.0495C27.8605 35.1128 27.8368 35.1874 27.8356 35.2641C27.8343 35.3407 27.8556 35.4161 27.8967 35.4808C27.9037 35.5259 27.9427 35.5761 28.0536 35.6377C27.989 35.6019 27.9363 35.548 27.9017 35.4827L27.8967 35.4808ZM27.8586 36.1735L27.46 35.5245L27.5512 35.8377L27.2459 35.504C27.2151 35.5924 27.2088 35.6874 27.2278 35.7791C27.2467 35.8707 27.2902 35.9554 27.3535 36.0243C27.4168 36.0932 27.4977 36.1435 27.5874 36.17C27.6771 36.1965 27.7723 36.1982 27.8629 36.1748L27.8586 36.1735ZM26.393 35.4143L27 35.7628L27.0092 35.6928L27.0502 35.7112L27.0523 35.3923L27.0134 35.6999L26.393 35.4143ZM21.1276 33.2873L20.7892 33.2315C20.8485 33.3334 20.9279 33.4223 21.0225 33.4926C21.1171 33.563 21.225 33.6134 21.3397 33.6408C20.638 34.3653 21.2767 33.4605 20.5638 33.6266C21.2294 33.809 20.7447 34.243 20.5708 34.564C20.6492 34.0514 19.6748 34.0917 20.3638 33.182C20.5037 33.4477 21.2174 32.6306 21.1298 33.2923L21.1276 33.2873ZM20.5114 32.3882L20.9566 32.3868L20.479 32.4518L20.5114 32.3882ZM33.1295 29.6611C33.0328 29.2476 32.3678 29.7883 32.3741 30.0166C32.4752 29.8265 32.8107 29.7848 33.1295 29.6611ZM37.6826 28.7018C37.4183 28.8616 37.089 28.3909 36.9391 28.9478L37.4641 29.0192C37.5652 28.8178 37.7505 28.9408 37.6826 28.7018ZM40.9932 27.6394L41.1621 28.0983L40.9911 28.0685L40.9932 27.6394ZM40.4392 27.2407C40.5261 27.1864 40.8873 27.1913 40.7727 27.4543L40.4392 27.2407ZM43.8856 26.447L43.67 26.0701L43.8891 25.9585L43.8856 26.447ZM43.6757 26.8407C43.6057 26.8145 43.5747 26.7227 43.5542 26.6145C43.4327 26.5382 43.2362 26.5665 43.0468 26.7658C43.0821 26.9807 43.2128 26.7905 43.3322 26.8011C43.2496 26.8598 43.1118 27.0556 42.9408 27.0358C43.1273 26.5664 42.9853 26.618 43.0015 26.2681C43.5032 25.8666 43.492 26.312 43.5542 26.616C43.5915 26.6395 43.6226 26.6717 43.6447 26.7098C43.6669 26.748 43.6795 26.7909 43.6814 26.835L43.6757 26.8407ZM41.8462 27.6444C41.8961 27.573 41.9294 27.4914 41.9437 27.4055C42.2751 27.1616 42.6073 26.9256 42.2575 26.6393L41.9515 26.8039C42.0914 26.753 42.0631 26.8209 42.0921 26.8966C41.8694 27.1475 41.7274 26.9093 41.562 26.8768C41.6518 27.0131 42.0017 27.0973 41.9458 27.4019C41.8561 27.4705 41.7677 27.5376 41.6929 27.6055C41.6391 27.5659 41.5783 27.5503 41.5063 27.7215L41.5367 27.7985C41.5747 27.724 41.6279 27.6582 41.6929 27.6055C41.7437 27.6479 41.7918 27.7059 41.8462 27.6444ZM43.9527 27.0754C43.9859 27.1482 43.935 27.2839 44.0269 27.3616L44.2015 27.3765C44.4233 27.1121 44.1521 27.0245 43.9527 27.0754ZM34.2892 29.7311C34.2355 29.7141 33.7238 29.8513 33.7521 29.5615L33.5669 30.0293C33.8298 29.8879 34.0524 30.1855 33.9302 30.298C34.1528 29.9862 34.3344 30.1227 34.2892 29.7311ZM21.2796 32.2687C21.4019 32.391 22.0915 31.9359 22.1156 32.4787C22.4124 31.8142 21.6315 32.0835 21.281 32.2673L21.2796 32.2687ZM21.1283 32.9035C21.0738 32.8996 21.019 32.9022 20.9651 32.9112C20.7815 32.8293 20.8556 32.3776 20.4833 32.6865C20.5552 32.7869 20.7136 32.6115 20.7857 32.7133C20.7327 32.9982 20.7899 32.9352 20.9651 32.9112C20.9916 32.922 21.02 32.9267 21.0485 32.9251C21.077 32.9235 21.1048 32.9156 21.1298 32.902L21.1283 32.9035ZM28.4204 31.9555L28.0493 32.0581L27.8643 31.6905L28.4204 31.9555ZM31.8858 31.7591L31.5834 31.7321L31.7056 31.6212C31.7183 31.5124 31.7961 31.3428 31.7205 31.2855C31.6721 31.2897 31.6233 31.2854 31.5763 31.2728C31.6483 31.2586 31.6943 31.265 31.7205 31.2855C31.9417 31.2777 32.2307 31.1837 32.2236 31.489C32.148 31.3893 31.7247 31.4763 31.7289 31.7011L31.8858 31.7591ZM39.2195 30.3171C39.0492 30.2796 39.0238 30.2004 38.7481 30.5058C38.8365 30.5233 38.9281 30.5147 39.0117 30.4812C39.0954 30.4477 39.1676 30.3907 39.2195 30.3171ZM30.0627 32.4377C30.0592 32.208 29.6528 32.374 29.821 32.0545L29.9983 31.9619C29.7334 32.1012 29.9192 31.4021 29.5186 31.7972L29.7447 31.7237C29.4471 31.9267 30.0379 32.1274 29.5948 32.3585C29.4196 32.4504 29.8478 32.596 30.0627 32.4377ZM39.7601 30.7884C39.498 30.8089 39.6032 30.1791 39.1538 30.5919C39.4726 30.5884 39.3947 31.1595 39.7601 30.7884ZM32.5077 32.8645L32.473 32.9288L32.1472 32.8221L32.1812 32.7585L32.5077 32.8645Z" fill="white"/>
<path d="M39.8284 27.3948C39.8924 27.3437 39.9728 27.3175 40.0547 27.3212C39.984 27.3585 39.9075 27.3834 39.8284 27.3948Z" fill="white"/>
<path d="M20.1953 30.9829C20.1885 31.0172 20.1748 31.0498 20.1552 31.0787C20.1355 31.1076 20.1101 31.1322 20.0807 31.1511C20.1007 31.0846 20.1407 31.0258 20.1953 30.9829Z" fill="white"/>
<path d="M19.3962 30.939L19.3658 30.9425L19.3432 30.9199L19.3962 30.939Z" fill="white"/>
<path d="M43.1248 39.9798C43.1318 40.3942 42.9466 40.0081 42.8178 39.9812C42.9466 40.0081 43.0986 39.7557 43.1248 39.9798Z" fill="white"/>
<path d="M42.3714 39.1279C42.385 39.1903 42.4124 39.2488 42.4516 39.2992C42.4907 39.3496 42.5406 39.3907 42.5977 39.4193C42.5128 39.4108 42.4329 39.3493 42.3714 39.1279Z" fill="white"/>
<path d="M43.125 39.4718C42.9478 39.5113 42.7626 39.4927 42.5968 39.4188C42.7297 39.4272 42.9001 39.3092 43.125 39.4718Z" fill="white"/>
<path d="M39.6313 38.622C39.6943 38.89 40.0471 38.837 40.0471 38.837C39.299 38.9034 40.0019 39.3064 39.9856 39.4952C39.608 39.3185 39.7246 39.025 39.6313 38.622Z" fill="white"/>
<path d="M38.809 38.301C38.8749 38.3185 38.9444 38.3175 39.0098 38.2982C38.9799 38.3174 38.9453 38.3278 38.9098 38.3283C38.8743 38.3288 38.8394 38.3194 38.809 38.301Z" fill="white"/>
<path d="M38.4719 38.4694C38.2661 38.3612 38.2951 38.0777 38.2725 37.8514C38.6253 37.7262 38.6303 38.188 38.8105 38.3032C38.6451 38.2679 38.4987 38.2022 38.4719 38.4694Z" fill="white"/>
<path d="M30.9512 38.0225C30.9915 38.0642 31.1174 38.0939 31.0608 38.2425L30.6768 38.1512C30.5616 38.0261 30.8621 38.0338 30.9512 38.0225Z" fill="white"/>
<path d="M29.8555 36.9539C29.5635 36.8514 29.5599 37.2707 29.4433 37.1441L29.6723 36.6505L29.8555 36.9539Z" fill="white"/>
<path d="M31.0917 34.4762L31.1624 34.5469L31.0648 34.503L31.0917 34.4762Z" fill="white"/>
<path d="M28.1914 37.0661L28.1638 37.6735C27.9708 37.4663 28.1525 37.0272 28.1914 37.0661Z" fill="white"/>
<path d="M26.8833 37.1305L26.9873 37.349L26.5043 37.0343L26.8833 37.1305Z" fill="white"/>
<path d="M25.6152 36.4863L25.5176 36.5923L25.1951 36.3491L25.6152 36.4863Z" fill="white"/>
<path d="M26.9013 30.2949C26.9091 30.7553 26.2508 30.6824 26.0358 30.8437C26.2458 30.2221 26.5562 30.9398 26.9013 30.2949Z" fill="white"/>
<path d="M39.2314 27.7659L38.5908 27.8324C39.1034 27.5163 38.7308 27.7928 39.2314 27.7659Z" fill="white"/>
</mask>
<g mask="url(#mask1_5_497)">
<path d="M46.33 23.3879C46.4299 24.0877 46.2301 24.8874 45.7304 25.3873C44.2313 26.6868 42.6323 27.8864 40.9334 28.7861C40.4337 29.086 39.8341 29.2859 39.3344 29.2859C39.1346 29.2859 38.3351 29.6858 38.2351 29.6858C37.5356 29.8857 37.7355 29.7858 37.1358 29.8857C36.5362 29.9857 35.8367 29.8857 35.237 29.9857C35.0372 29.9857 34.8373 30.0857 34.6374 30.0857C34.1377 30.1856 33.738 30.1856 33.2383 30.2856C33.1384 30.2856 33.0384 30.2856 32.9385 30.3856C32.8386 30.3856 32.7386 30.4855 32.6387 30.5855C32.5388 30.5855 32.3389 30.5855 32.2389 30.5855C32.139 30.5855 31.9391 30.6855 31.8392 30.7854C31.8392 30.7854 31.9391 30.6855 31.9391 30.5855C28.6412 31.3852 25.4433 31.5852 22.1454 32.085C21.4458 32.185 20.1466 31.6851 19.4471 31.7851C17.6482 35.084 20.3465 33.7844 21.146 33.4845C21.3459 33.3845 21.5458 33.5845 21.7456 33.7844C21.8456 33.8844 21.0461 33.5845 22.5451 34.0843C22.745 34.0843 23.4445 33.6844 23.6444 33.6844C24.4439 33.9843 24.0442 34.4842 24.8437 34.7841C25.3433 34.984 26.6425 35.5838 27.1422 35.5838C29.8405 35.8837 32.2389 35.9837 34.7374 36.8834C36.0365 37.3832 37.2358 37.4832 38.5349 37.883C38.8348 37.983 39.1346 38.083 39.5343 38.083C39.7342 38.083 39.9341 38.083 40.1339 38.083C42.6323 37.883 44.6311 39.8823 47.0295 40.4821" stroke="#202020" stroke-width="3.99865" stroke-miterlimit="10" stroke-linejoin="round" stroke-dasharray="61.98 61.98"/>
</g>
</g>
<defs>
<clipPath id="clip0_5_497">
<rect width="52.2656" height="44.9688" fill="white" transform="matrix(-1 0 0 1 68.5234 10.5923)"/>
</clipPath>
</defs>
</svg>
