<svg width="392" height="391" viewBox="0 0 392 391" fill="none" xmlns="http://www.w3.org/2000/svg">
<path d="M4.96875 116.577V13.4517H46.2188V33.3735H25.9453V53.4712H45.3984V72.8657H25.9453V96.479H47.5664V116.577H4.96875Z" fill="#202020"/>
<path d="M54.375 116.577V13.4517H75.5859L85.0781 62.8462V13.4517H105V116.577H84.8438L74.5312 65.0142V116.577H54.375Z" fill="#202020"/>
<path d="M136.992 117.514C132.344 117.514 128.105 116.616 124.277 114.819C120.449 113.022 117.402 110.366 115.137 106.85C112.91 103.295 111.797 98.9399 111.797 93.7837V67.9438H132.188V92.5532C132.188 94.3501 132.539 95.7954 133.242 96.8892C133.984 97.9829 135.156 98.5298 136.758 98.5298C139.844 98.5298 141.387 96.6353 141.387 92.8462V13.4517H162.188V90.7954C162.188 96.2642 161.113 101.01 158.965 105.034C156.816 109.018 153.848 112.104 150.059 114.292C146.27 116.44 141.914 117.514 136.992 117.514Z" fill="#202020"/>
<path d="M194.719 117.514C186.477 117.514 180.168 115.034 175.793 110.073C171.457 105.073 169.289 97.8657 169.289 88.4517V39.4673C169.289 30.6392 171.438 23.9399 175.734 19.3696C180.07 14.7993 186.398 12.5142 194.719 12.5142C203.039 12.5142 209.348 14.7993 213.645 19.3696C217.98 23.9399 220.148 30.6392 220.148 39.4673V88.4517C220.148 97.8657 217.961 105.073 213.586 110.073C209.25 115.034 202.961 117.514 194.719 117.514ZM194.895 98.5298C198.02 98.5298 199.582 95.5024 199.582 89.4478V39.1157C199.582 34.0376 198.059 31.4985 195.012 31.4985C191.574 31.4985 189.855 34.0962 189.855 39.2915V89.5649C189.855 92.7681 190.246 95.0728 191.027 96.479C191.809 97.8462 193.098 98.5298 194.895 98.5298Z" fill="#202020"/>
<path d="M240.949 116.577V82.6509L224.484 13.4517H244.934L250.676 48.3735L256.418 13.4517H276.809L260.402 82.6509V116.577H240.949Z" fill="#202020"/>
<path d="M4.96875 246.577V143.452H25.5938V228.999H46.8047V246.577H4.96875Z" fill="#202020"/>
<path d="M51.7344 246.577V143.452H71.6562V246.577H51.7344Z" fill="#202020"/>
<path d="M79.8594 246.577V143.452H121.109V163.549H100.602V179.956H120.055V199.819H100.602V246.577H79.8594Z" fill="#202020"/>
<path d="M127.734 246.577V143.452H168.984V163.374H148.711V183.471H168.164V202.866H148.711V226.479H170.332V246.577H127.734Z" fill="#202020"/>
<path d="M229.758 247.514C220.344 247.514 213.547 245.17 209.367 240.483C205.227 235.795 203.156 228.334 203.156 218.1V208.022H223.547V220.913C223.547 223.295 223.898 225.17 224.602 226.538C225.344 227.866 226.613 228.53 228.41 228.53C230.285 228.53 231.574 227.983 232.277 226.889C233.02 225.795 233.391 223.999 233.391 221.499C233.391 218.334 233.078 215.698 232.453 213.588C231.828 211.44 230.734 209.409 229.172 207.495C227.648 205.542 225.52 203.276 222.785 200.698L213.527 191.909C206.613 185.385 203.156 177.924 203.156 169.526C203.156 160.737 205.188 154.038 209.25 149.428C213.352 144.819 219.27 142.514 227.004 142.514C236.457 142.514 243.156 145.034 247.102 150.073C251.086 155.112 253.078 162.768 253.078 173.042H232.102V165.952C232.102 164.545 231.691 163.452 230.871 162.67C230.09 161.889 229.016 161.499 227.648 161.499C226.008 161.499 224.797 161.967 224.016 162.905C223.273 163.803 222.902 164.975 222.902 166.42C222.902 167.866 223.293 169.428 224.074 171.108C224.855 172.788 226.398 174.721 228.703 176.909L240.598 188.334C242.98 190.6 245.168 193.002 247.16 195.542C249.152 198.042 250.754 200.971 251.965 204.331C253.176 207.651 253.781 211.713 253.781 216.518C253.781 226.206 251.984 233.803 248.391 239.311C244.836 244.78 238.625 247.514 229.758 247.514Z" fill="#202020"/>
<path d="M259.703 246.577V143.452H279.625V246.577H259.703Z" fill="#202020"/>
<path d="M287.828 246.577V143.452H315.074C320.777 143.452 325.289 144.721 328.609 147.26C331.969 149.799 334.371 153.413 335.816 158.1C337.262 162.788 337.984 168.374 337.984 174.858C337.984 181.108 337.379 186.557 336.168 191.206C334.957 195.815 332.789 199.389 329.664 201.928C326.578 204.467 322.184 205.737 316.48 205.737H308.102V246.577H287.828ZM308.102 187.221H309.273C313.102 187.221 315.445 186.147 316.305 183.999C317.164 181.85 317.594 178.686 317.594 174.506C317.594 170.6 317.164 167.592 316.305 165.483C315.484 163.334 313.512 162.26 310.387 162.26H308.102V187.221Z" fill="#202020"/>
<path d="M4.96875 376.577V273.452H32.918C40.418 273.452 45.8672 275.288 49.2656 278.959C52.7031 282.592 54.4219 288.608 54.4219 297.006V301.518C54.4219 306.362 53.543 310.288 51.7852 313.295C50.0664 316.303 47.4297 318.276 43.875 319.213C48.5234 320.385 51.6289 323.139 53.1914 327.475C54.793 331.772 55.5938 337.026 55.5938 343.237C55.5938 349.917 54.9688 355.756 53.7188 360.756C52.4688 365.756 50.2031 369.643 46.9219 372.417C43.6406 375.19 38.9727 376.577 32.918 376.577H4.96875ZM25.125 312.299H29.3438C31.2578 312.299 32.4883 311.557 33.0352 310.073C33.582 308.588 33.8555 306.811 33.8555 304.741V294.37C33.8555 291.049 32.3906 289.389 29.4609 289.389H25.125V312.299ZM27.1758 358.413C32.5273 358.413 35.2031 355.874 35.2031 350.795V337.905C35.2031 334.975 34.7539 332.67 33.8555 330.991C32.9961 329.272 31.3555 328.413 28.9336 328.413H25.125V358.295C25.9844 358.374 26.668 358.413 27.1758 358.413Z" fill="#202020"/>
<path d="M74.8711 376.577V342.651L58.4062 273.452H78.8555L84.5977 308.374L90.3398 273.452H110.73L94.3242 342.651V376.577H74.8711Z" fill="#202020"/>
<path d="M168.57 377.514C159.156 377.514 152.359 375.17 148.18 370.483C144.039 365.795 141.969 358.334 141.969 348.1V338.022H162.359V350.913C162.359 353.295 162.711 355.17 163.414 356.538C164.156 357.866 165.426 358.53 167.223 358.53C169.098 358.53 170.387 357.983 171.09 356.889C171.832 355.795 172.203 353.999 172.203 351.499C172.203 348.334 171.891 345.698 171.266 343.588C170.641 341.44 169.547 339.409 167.984 337.495C166.461 335.542 164.332 333.276 161.598 330.698L152.34 321.909C145.426 315.385 141.969 307.924 141.969 299.526C141.969 290.737 144 284.038 148.062 279.428C152.164 274.819 158.082 272.514 165.816 272.514C175.27 272.514 181.969 275.034 185.914 280.073C189.898 285.112 191.891 292.768 191.891 303.042H170.914V295.952C170.914 294.545 170.504 293.452 169.684 292.67C168.902 291.889 167.828 291.499 166.461 291.499C164.82 291.499 163.609 291.967 162.828 292.905C162.086 293.803 161.715 294.975 161.715 296.42C161.715 297.866 162.105 299.428 162.887 301.108C163.668 302.788 165.211 304.721 167.516 306.909L179.41 318.334C181.793 320.6 183.98 323.002 185.973 325.542C187.965 328.042 189.566 330.971 190.777 334.331C191.988 337.651 192.594 341.713 192.594 346.518C192.594 356.206 190.797 363.803 187.203 369.311C183.648 374.78 177.438 377.514 168.57 377.514Z" fill="#202020"/>
<path d="M198.516 376.577V273.452H218.438V376.577H198.516Z" fill="#202020"/>
<path d="M226.641 376.577V273.452H253.887C259.59 273.452 264.102 274.721 267.422 277.26C270.781 279.799 273.184 283.413 274.629 288.1C276.074 292.788 276.797 298.374 276.797 304.858C276.797 311.108 276.191 316.557 274.98 321.206C273.77 325.815 271.602 329.389 268.477 331.928C265.391 334.467 260.996 335.737 255.293 335.737H246.914V376.577H226.641ZM246.914 317.221H248.086C251.914 317.221 254.258 316.147 255.117 313.999C255.977 311.85 256.406 308.686 256.406 304.506C256.406 300.6 255.977 297.592 255.117 295.483C254.297 293.334 252.324 292.26 249.199 292.26H246.914V317.221Z" fill="#202020"/>
</svg>
