<svg width="1920" height="61" viewBox="0 0 1920 61" fill="none" xmlns="http://www.w3.org/2000/svg">
<path d="M780.46 28.6407H782.908V26.6247C782.908 26.262 783.02 25.9633 783.244 25.7287C783.479 25.494 783.778 25.3767 784.14 25.3767H787.276V26.5287H784.588C784.3 26.5287 784.156 26.6887 784.156 27.0087V28.6407H787.468V29.7927H784.156V36.5767H782.908V29.7927H780.46V28.6407Z" fill="#202020"/>
<path d="M796.097 35.2327H795.905C795.649 35.766 795.292 36.1607 794.833 36.4167C794.385 36.6727 793.911 36.8007 793.409 36.8007C792.887 36.8007 792.401 36.7153 791.953 36.5447C791.505 36.3633 791.111 36.102 790.769 35.7607C790.439 35.4087 790.177 34.982 789.985 34.4807C789.793 33.9793 789.697 33.398 789.697 32.7367V32.4807C789.697 31.83 789.793 31.254 789.985 30.7527C790.177 30.2513 790.439 29.83 790.769 29.4887C791.111 29.1367 791.505 28.87 791.953 28.6887C792.401 28.5073 792.876 28.4167 793.377 28.4167C793.921 28.4167 794.412 28.5393 794.849 28.7847C795.297 29.0193 795.649 29.3873 795.905 29.8887H796.097V28.6407H797.345V34.9447C797.345 35.2647 797.489 35.4247 797.777 35.4247H798.177V36.5767H797.329C796.967 36.5767 796.668 36.4593 796.433 36.2247C796.209 35.99 796.097 35.6913 796.097 35.3287V35.2327ZM793.537 35.6167C793.911 35.6167 794.252 35.5473 794.561 35.4087C794.881 35.27 795.153 35.0727 795.377 34.8167C795.601 34.5607 795.777 34.2567 795.905 33.9047C796.033 33.542 796.097 33.142 796.097 32.7047V32.5127C796.097 32.086 796.033 31.6967 795.905 31.3447C795.777 30.982 795.596 30.6727 795.361 30.4167C795.137 30.1607 794.865 29.9633 794.545 29.8247C794.236 29.6753 793.9 29.6007 793.537 29.6007C793.164 29.6007 792.823 29.67 792.513 29.8087C792.204 29.9473 791.932 30.1447 791.697 30.4007C791.473 30.646 791.297 30.95 791.169 31.3127C791.041 31.6647 790.977 32.054 790.977 32.4807V32.7367C790.977 33.6433 791.212 34.3527 791.681 34.8647C792.161 35.366 792.78 35.6167 793.537 35.6167Z" fill="#202020"/>
<path d="M802.598 26.2727C802.598 25.9633 802.705 25.702 802.918 25.4887C803.142 25.2647 803.409 25.1527 803.718 25.1527C804.028 25.1527 804.289 25.2647 804.502 25.4887C804.726 25.702 804.838 25.9633 804.838 26.2727C804.838 26.582 804.726 26.8487 804.502 27.0727C804.289 27.286 804.028 27.3927 803.718 27.3927C803.409 27.3927 803.142 27.286 802.918 27.0727C802.705 26.8487 802.598 26.582 802.598 26.2727ZM800.326 35.4247H803.11V29.7927H800.614V28.6407H804.358V35.4247H806.95V36.5767H800.326V35.4247Z" fill="#202020"/>
<path d="M809.483 28.6407H812.363V29.6967H812.555C812.758 29.2593 813.046 28.9393 813.419 28.7367C813.792 28.5233 814.219 28.4167 814.699 28.4167C815.499 28.4167 816.144 28.678 816.635 29.2007C817.126 29.7233 817.387 30.486 817.419 31.4887L816.107 31.6807C816.107 30.9447 815.931 30.4167 815.579 30.0967C815.227 29.766 814.795 29.6007 814.283 29.6007C813.952 29.6007 813.664 29.6647 813.419 29.7927C813.184 29.9207 812.987 30.0967 812.827 30.3207C812.667 30.5447 812.55 30.806 812.475 31.1047C812.4 31.4033 812.363 31.7233 812.363 32.0647V35.4247H814.379V36.5767H809.291V35.4247H811.115V29.7927H809.483V28.6407Z" fill="#202020"/>
<path d="M819.456 28.6407H821.952V25.3767H823.2V28.6407H826.272V29.7927H823.2V34.9447C823.2 35.2647 823.344 35.4247 823.632 35.4247H825.888V36.5767H823.184C822.821 36.5767 822.523 36.4593 822.288 36.2247C822.064 35.99 821.952 35.6913 821.952 35.3287V29.7927H819.456V28.6407Z" fill="#202020"/>
<path d="M829.077 28.6407H831.957V29.6967H832.149C832.351 29.2593 832.639 28.9393 833.013 28.7367C833.386 28.5233 833.813 28.4167 834.293 28.4167C835.093 28.4167 835.738 28.678 836.229 29.2007C836.719 29.7233 836.981 30.486 837.013 31.4887L835.701 31.6807C835.701 30.9447 835.525 30.4167 835.173 30.0967C834.821 29.766 834.389 29.6007 833.877 29.6007C833.546 29.6007 833.258 29.6647 833.013 29.7927C832.778 29.9207 832.581 30.0967 832.421 30.3207C832.261 30.5447 832.143 30.806 832.069 31.1047C831.994 31.4033 831.957 31.7233 831.957 32.0647V35.4247H833.973V36.5767H828.885V35.4247H830.709V29.7927H829.077V28.6407Z" fill="#202020"/>
<path d="M845.082 35.2327H844.89C844.634 35.766 844.276 36.1607 843.818 36.4167C843.37 36.6727 842.895 36.8007 842.394 36.8007C841.871 36.8007 841.386 36.7153 840.938 36.5447C840.49 36.3633 840.095 36.102 839.754 35.7607C839.423 35.4087 839.162 34.982 838.97 34.4807C838.778 33.9793 838.682 33.398 838.682 32.7367V32.4807C838.682 31.83 838.778 31.254 838.97 30.7527C839.162 30.2513 839.423 29.83 839.754 29.4887C840.095 29.1367 840.49 28.87 840.938 28.6887C841.386 28.5073 841.86 28.4167 842.362 28.4167C842.906 28.4167 843.396 28.5393 843.834 28.7847C844.282 29.0193 844.634 29.3873 844.89 29.8887H845.082V28.6407H846.33V34.9447C846.33 35.2647 846.474 35.4247 846.762 35.4247H847.162V36.5767H846.314C845.951 36.5767 845.652 36.4593 845.418 36.2247C845.194 35.99 845.082 35.6913 845.082 35.3287V35.2327ZM842.522 35.6167C842.895 35.6167 843.236 35.5473 843.546 35.4087C843.866 35.27 844.138 35.0727 844.362 34.8167C844.586 34.5607 844.762 34.2567 844.89 33.9047C845.018 33.542 845.082 33.142 845.082 32.7047V32.5127C845.082 32.086 845.018 31.6967 844.89 31.3447C844.762 30.982 844.58 30.6727 844.346 30.4167C844.122 30.1607 843.85 29.9633 843.53 29.8247C843.22 29.6753 842.884 29.6007 842.522 29.6007C842.148 29.6007 841.807 29.67 841.498 29.8087C841.188 29.9473 840.916 30.1447 840.682 30.4007C840.458 30.646 840.282 30.95 840.154 31.3127C840.026 31.6647 839.962 32.054 839.962 32.4807V32.7367C839.962 33.6433 840.196 34.3527 840.666 34.8647C841.146 35.366 841.764 35.6167 842.522 35.6167Z" fill="#202020"/>
<path d="M855.263 35.3607H855.071C854.943 35.606 854.777 35.8193 854.575 36.0007C854.383 36.182 854.169 36.3313 853.935 36.4487C853.711 36.566 853.471 36.6513 853.215 36.7047C852.959 36.7687 852.713 36.8007 852.479 36.8007C851.945 36.8007 851.449 36.71 850.991 36.5287C850.532 36.3473 850.127 36.086 849.775 35.7447C849.433 35.4033 849.161 34.982 848.959 34.4807C848.767 33.9687 848.671 33.3873 848.671 32.7367V32.4807C848.671 31.8407 848.772 31.27 848.975 30.7687C849.177 30.2567 849.449 29.83 849.791 29.4887C850.132 29.1367 850.532 28.87 850.991 28.6887C851.449 28.5073 851.935 28.4167 852.447 28.4167C852.991 28.4167 853.497 28.5393 853.967 28.7847C854.447 29.0193 854.815 29.3873 855.071 29.8887H855.263V25.3767H856.511V36.5767H855.263V35.3607ZM852.607 35.6167C852.98 35.6167 853.327 35.5473 853.647 35.4087C853.967 35.27 854.244 35.0727 854.479 34.8167C854.724 34.5607 854.916 34.2567 855.055 33.9047C855.193 33.542 855.263 33.142 855.263 32.7047V32.5127C855.263 32.086 855.193 31.6967 855.055 31.3447C854.916 30.982 854.724 30.6727 854.479 30.4167C854.244 30.1607 853.961 29.9633 853.631 29.8247C853.311 29.6753 852.969 29.6007 852.607 29.6007C852.233 29.6007 851.881 29.67 851.551 29.8087C851.231 29.9473 850.948 30.1447 850.703 30.4007C850.468 30.6567 850.281 30.9607 850.143 31.3127C850.015 31.6647 849.951 32.054 849.951 32.4807V32.7367C849.951 33.1847 850.015 33.5847 850.143 33.9367C850.281 34.2887 850.468 34.5927 850.703 34.8487C850.948 35.094 851.231 35.286 851.551 35.4247C851.871 35.5527 852.223 35.6167 852.607 35.6167Z" fill="#202020"/>
<path d="M859.827 32.9927C859.859 33.782 860.105 34.4167 860.563 34.8967C861.022 35.3767 861.662 35.6167 862.483 35.6167C862.857 35.6167 863.182 35.574 863.459 35.4887C863.737 35.4033 863.971 35.286 864.163 35.1367C864.366 34.9873 864.526 34.8167 864.643 34.6247C864.771 34.422 864.873 34.2087 864.947 33.9847L866.131 34.3047C865.907 35.0407 865.491 35.6433 864.883 36.1127C864.286 36.5713 863.475 36.8007 862.451 36.8007C861.886 36.8007 861.363 36.7047 860.883 36.5127C860.414 36.31 860.009 36.0273 859.667 35.6647C859.326 35.302 859.059 34.87 858.867 34.3687C858.675 33.8673 858.579 33.3127 858.579 32.7047V32.3207C858.579 31.766 858.675 31.2487 858.867 30.7687C859.07 30.2887 859.347 29.878 859.699 29.5367C860.051 29.1847 860.462 28.9127 860.931 28.7207C861.411 28.518 861.929 28.4167 862.483 28.4167C863.134 28.4167 863.694 28.5393 864.163 28.7847C864.643 29.0193 865.033 29.3127 865.331 29.6647C865.641 30.0167 865.865 30.4007 866.003 30.8167C866.153 31.2327 866.227 31.6167 866.227 31.9687V32.9927H859.827ZM862.483 29.6007C862.131 29.6007 861.801 29.6593 861.491 29.7767C861.193 29.8833 860.926 30.038 860.691 30.2407C860.467 30.4433 860.281 30.6833 860.131 30.9607C859.993 31.2273 859.902 31.5207 859.859 31.8407H864.979C864.958 31.4993 864.873 31.19 864.723 30.9127C864.585 30.6353 864.398 30.4007 864.163 30.2087C863.939 30.0167 863.678 29.8673 863.379 29.7607C863.091 29.654 862.793 29.6007 862.483 29.6007Z" fill="#202020"/>
<path d="M882.589 39.0727H881.437V22.8807H882.589V39.0727Z" fill="#202020"/>
<path d="M897.671 29.7287C897.671 28.278 898.018 27.1527 898.711 26.3527C899.404 25.5527 900.37 25.1527 901.607 25.1527C902.844 25.1527 903.81 25.5527 904.503 26.3527C905.196 27.1527 905.543 28.278 905.543 29.7287V32.2247C905.543 33.718 905.196 34.854 904.503 35.6327C903.81 36.4113 902.844 36.8007 901.607 36.8007C900.37 36.8007 899.404 36.4113 898.711 35.6327C898.018 34.854 897.671 33.718 897.671 32.2247V29.7287ZM901.607 35.5527C902.471 35.5527 903.116 35.2593 903.543 34.6727C903.98 34.0753 904.199 33.2273 904.199 32.1287V29.8247C904.199 28.8007 903.98 27.974 903.543 27.3447C903.116 26.7153 902.471 26.4007 901.607 26.4007C900.743 26.4007 900.092 26.7153 899.655 27.3447C899.228 27.974 899.015 28.8007 899.015 29.8247V32.1287C899.015 33.2273 899.228 34.0753 899.655 34.6727C900.092 35.2593 900.743 35.5527 901.607 35.5527Z" fill="#202020"/>
<path d="M907.452 28.6407H910.332V29.6967H910.524C910.726 29.2593 911.014 28.9393 911.388 28.7367C911.761 28.5233 912.188 28.4167 912.668 28.4167C913.468 28.4167 914.113 28.678 914.604 29.2007C915.094 29.7233 915.356 30.486 915.388 31.4887L914.076 31.6807C914.076 30.9447 913.9 30.4167 913.548 30.0967C913.196 29.766 912.764 29.6007 912.252 29.6007C911.921 29.6007 911.633 29.6647 911.388 29.7927C911.153 29.9207 910.956 30.0967 910.796 30.3207C910.636 30.5447 910.518 30.806 910.444 31.1047C910.369 31.4033 910.332 31.7233 910.332 32.0647V35.4247H912.348V36.5767H907.26V35.4247H909.084V29.7927H907.452V28.6407Z" fill="#202020"/>
<path d="M923.729 35.3607H923.537C923.281 35.8407 922.929 36.2033 922.481 36.4487C922.043 36.6833 921.563 36.8007 921.041 36.8007C920.507 36.8007 920.006 36.71 919.537 36.5287C919.067 36.3473 918.651 36.086 918.289 35.7447C917.937 35.4033 917.654 34.982 917.441 34.4807C917.238 33.9687 917.137 33.3873 917.137 32.7367V32.4807C917.137 31.8407 917.243 31.27 917.457 30.7687C917.67 30.2567 917.953 29.83 918.305 29.4887C918.657 29.1367 919.067 28.87 919.537 28.6887C920.006 28.5073 920.497 28.4167 921.009 28.4167C921.585 28.4167 922.086 28.5447 922.513 28.8007C922.95 29.046 923.291 29.4087 923.537 29.8887H923.729V28.6407H924.977V38.5287C924.977 38.8913 924.859 39.19 924.625 39.4247C924.401 39.6593 924.107 39.7767 923.745 39.7767H918.577V38.6247H923.297C923.585 38.6247 923.729 38.4647 923.729 38.1447V35.3607ZM921.073 35.6167C921.446 35.6167 921.793 35.5473 922.113 35.4087C922.433 35.27 922.71 35.0727 922.945 34.8167C923.19 34.5607 923.382 34.2567 923.521 33.9047C923.659 33.542 923.729 33.142 923.729 32.7047V32.5127C923.729 32.086 923.659 31.6967 923.521 31.3447C923.382 30.982 923.19 30.6727 922.945 30.4167C922.71 30.1607 922.427 29.9633 922.097 29.8247C921.777 29.6753 921.435 29.6007 921.073 29.6007C920.699 29.6007 920.347 29.67 920.017 29.8087C919.697 29.9473 919.414 30.1447 919.169 30.4007C918.934 30.6567 918.747 30.9607 918.609 31.3127C918.481 31.6647 918.417 32.054 918.417 32.4807V32.7367C918.417 33.1847 918.481 33.5847 918.609 33.9367C918.747 34.2887 918.934 34.5927 919.169 34.8487C919.414 35.094 919.697 35.286 920.017 35.4247C920.337 35.5527 920.689 35.6167 921.073 35.6167Z" fill="#202020"/>
<path d="M933.254 35.2327H933.062C932.806 35.766 932.448 36.1607 931.99 36.4167C931.542 36.6727 931.067 36.8007 930.566 36.8007C930.043 36.8007 929.558 36.7153 929.11 36.5447C928.662 36.3633 928.267 36.102 927.926 35.7607C927.595 35.4087 927.334 34.982 927.142 34.4807C926.95 33.9793 926.854 33.398 926.854 32.7367V32.4807C926.854 31.83 926.95 31.254 927.142 30.7527C927.334 30.2513 927.595 29.83 927.926 29.4887C928.267 29.1367 928.662 28.87 929.11 28.6887C929.558 28.5073 930.032 28.4167 930.534 28.4167C931.078 28.4167 931.568 28.5393 932.006 28.7847C932.454 29.0193 932.806 29.3873 933.062 29.8887H933.254V28.6407H934.502V34.9447C934.502 35.2647 934.646 35.4247 934.934 35.4247H935.334V36.5767H934.486C934.123 36.5767 933.824 36.4593 933.59 36.2247C933.366 35.99 933.254 35.6913 933.254 35.3287V35.2327ZM930.694 35.6167C931.067 35.6167 931.408 35.5473 931.718 35.4087C932.038 35.27 932.31 35.0727 932.534 34.8167C932.758 34.5607 932.934 34.2567 933.062 33.9047C933.19 33.542 933.254 33.142 933.254 32.7047V32.5127C933.254 32.086 933.19 31.6967 933.062 31.3447C932.934 30.982 932.752 30.6727 932.518 30.4167C932.294 30.1607 932.022 29.9633 931.702 29.8247C931.392 29.6753 931.056 29.6007 930.694 29.6007C930.32 29.6007 929.979 29.67 929.67 29.8087C929.36 29.9473 929.088 30.1447 928.854 30.4007C928.63 30.646 928.454 30.95 928.326 31.3127C928.198 31.6647 928.134 32.054 928.134 32.4807V32.7367C928.134 33.6433 928.368 34.3527 928.838 34.8647C929.318 35.366 929.936 35.6167 930.694 35.6167Z" fill="#202020"/>
<path d="M938.538 36.5767H937.29V28.6407H938.538V29.9847H938.73C939.221 28.9393 940.074 28.4167 941.29 28.4167C942.208 28.4167 942.938 28.7047 943.482 29.2807C944.026 29.846 944.298 30.6993 944.298 31.8407V36.5767H943.05V32.0967C943.05 31.2647 942.864 30.6407 942.49 30.2247C942.117 29.8087 941.61 29.6007 940.97 29.6007C940.213 29.6007 939.616 29.862 939.178 30.3847C938.752 30.8967 938.538 31.5847 938.538 32.4487V36.5767Z" fill="#202020"/>
<path d="M949.551 26.2727C949.551 25.9633 949.658 25.702 949.871 25.4887C950.095 25.2647 950.362 25.1527 950.671 25.1527C950.981 25.1527 951.242 25.2647 951.455 25.4887C951.679 25.702 951.791 25.9633 951.791 26.2727C951.791 26.582 951.679 26.8487 951.455 27.0727C951.242 27.286 950.981 27.3927 950.671 27.3927C950.362 27.3927 950.095 27.286 949.871 27.0727C949.658 26.8487 949.551 26.582 949.551 26.2727ZM947.279 35.4247H950.063V29.7927H947.567V28.6407H951.311V35.4247H953.903V36.5767H947.279V35.4247Z" fill="#202020"/>
<path d="M964.308 33.7607C964.223 34.198 964.074 34.6033 963.86 34.9767C963.658 35.35 963.396 35.6753 963.076 35.9527C962.756 36.2193 962.383 36.4273 961.956 36.5767C961.53 36.726 961.055 36.8007 960.532 36.8007C959.978 36.8007 959.45 36.71 958.948 36.5287C958.458 36.3473 958.026 36.086 957.652 35.7447C957.279 35.3927 956.98 34.966 956.756 34.4647C956.543 33.9633 956.436 33.3873 956.436 32.7367V32.5447C956.436 31.9047 956.543 31.3287 956.756 30.8167C956.98 30.3047 957.279 29.8727 957.652 29.5207C958.026 29.1687 958.458 28.8967 958.948 28.7047C959.45 28.5127 959.978 28.4167 960.532 28.4167C961.034 28.4167 961.498 28.4913 961.924 28.6407C962.351 28.79 962.724 29.0033 963.044 29.2807C963.375 29.5473 963.642 29.8673 963.844 30.2407C964.058 30.614 964.202 31.0193 964.276 31.4567L963.028 31.7447C962.996 31.4673 962.916 31.2007 962.788 30.9447C962.671 30.678 962.506 30.4487 962.292 30.2567C962.09 30.054 961.839 29.894 961.54 29.7767C961.242 29.6593 960.895 29.6007 960.5 29.6007C960.116 29.6007 959.754 29.6753 959.412 29.8247C959.082 29.9633 958.788 30.166 958.532 30.4327C958.276 30.6887 958.074 30.998 957.924 31.3607C957.786 31.7233 957.716 32.118 957.716 32.5447V32.7367C957.716 33.1847 957.786 33.59 957.924 33.9527C958.074 34.3047 958.276 34.6033 958.532 34.8487C958.788 35.094 959.087 35.286 959.428 35.4247C959.77 35.5527 960.138 35.6167 960.532 35.6167C960.927 35.6167 961.268 35.558 961.556 35.4407C961.855 35.3127 962.106 35.1527 962.308 34.9607C962.522 34.758 962.687 34.5287 962.804 34.2727C962.932 34.0167 963.018 33.75 963.06 33.4727L964.308 33.7607Z" fill="#202020"/>
<path d="M980.558 39.0727H979.406V22.8807H980.558V39.0727Z" fill="#202020"/>
<path d="M999.64 35.5527C1000.1 35.5527 1000.49 35.478 1000.81 35.3287C1001.14 35.1687 1001.41 34.9607 1001.61 34.7047C1001.82 34.438 1001.98 34.1393 1002.07 33.8087C1002.18 33.4673 1002.23 33.11 1002.23 32.7367V32.5447H1003.58V32.7367C1003.58 33.302 1003.49 33.8353 1003.32 34.3367C1003.15 34.8273 1002.9 35.2593 1002.57 35.6327C1002.24 35.9953 1001.83 36.2833 1001.34 36.4967C1000.85 36.6993 1000.28 36.8007 999.64 36.8007C998.402 36.8007 997.437 36.4113 996.744 35.6327C996.05 34.854 995.704 33.718 995.704 32.2247V29.7287C995.704 28.278 996.05 27.1527 996.744 26.3527C997.437 25.5527 998.402 25.1527 999.64 25.1527C1000.28 25.1527 1000.85 25.2593 1001.34 25.4727C1001.83 25.6753 1002.24 25.9633 1002.57 26.3367C1002.9 26.6993 1003.15 27.1313 1003.32 27.6327C1003.49 28.1233 1003.58 28.6513 1003.58 29.2167V29.4087H1002.23V29.2167C1002.22 28.854 1002.16 28.502 1002.06 28.1607C1001.96 27.8193 1001.81 27.5207 1001.59 27.2647C1001.39 26.998 1001.13 26.79 1000.81 26.6407C1000.49 26.4807 1000.1 26.4007 999.64 26.4007C998.776 26.4007 998.125 26.7153 997.688 27.3447C997.261 27.974 997.048 28.8007 997.048 29.8247V32.1287C997.048 33.2273 997.261 34.0753 997.688 34.6727C998.125 35.2593 998.776 35.5527 999.64 35.5527Z" fill="#202020"/>
<path d="M1005.87 35.4247H1008.75V26.5287H1005.96V25.3767H1010V35.4247H1012.88V36.5767H1005.87V35.4247Z" fill="#202020"/>
<path d="M1018.13 26.2727C1018.13 25.9633 1018.24 25.702 1018.45 25.4887C1018.67 25.2647 1018.94 25.1527 1019.25 25.1527C1019.56 25.1527 1019.82 25.2647 1020.03 25.4887C1020.26 25.702 1020.37 25.9633 1020.37 26.2727C1020.37 26.582 1020.26 26.8487 1020.03 27.0727C1019.82 27.286 1019.56 27.3927 1019.25 27.3927C1018.94 27.3927 1018.67 27.286 1018.45 27.0727C1018.24 26.8487 1018.13 26.582 1018.13 26.2727ZM1015.86 35.4247H1018.64V29.7927H1016.15V28.6407H1019.89V35.4247H1022.48V36.5767H1015.86V35.4247Z" fill="#202020"/>
<path d="M1033.09 36.5767H1031.85V30.8807C1031.85 30.5073 1031.76 30.2033 1031.59 29.9687C1031.42 29.7233 1031.15 29.6007 1030.77 29.6007C1030.42 29.6007 1030.13 29.734 1029.91 30.0007C1029.7 30.2567 1029.59 30.6567 1029.59 31.2007V36.5767H1028.34V30.8167C1028.34 30.4647 1028.25 30.1767 1028.05 29.9527C1027.86 29.718 1027.61 29.6007 1027.29 29.6007C1026.9 29.6007 1026.6 29.7393 1026.39 30.0167C1026.19 30.294 1026.09 30.6567 1026.09 31.1047V36.5767H1024.84V28.6407H1026.09V29.5047H1026.28C1026.42 29.1313 1026.62 28.8593 1026.89 28.6887C1027.15 28.5073 1027.47 28.4167 1027.83 28.4167C1028.21 28.4167 1028.53 28.518 1028.77 28.7207C1029.03 28.9233 1029.21 29.1847 1029.3 29.5047H1029.49C1029.86 28.7793 1030.43 28.4167 1031.22 28.4167C1031.82 28.4167 1032.28 28.6087 1032.6 28.9927C1032.93 29.366 1033.09 29.8567 1033.09 30.4647V36.5767Z" fill="#202020"/>
<path d="M1041.02 35.2327H1040.83C1040.57 35.766 1040.21 36.1607 1039.76 36.4167C1039.31 36.6727 1038.83 36.8007 1038.33 36.8007C1037.81 36.8007 1037.32 36.7153 1036.88 36.5447C1036.43 36.3633 1036.03 36.102 1035.69 35.7607C1035.36 35.4087 1035.1 34.982 1034.91 34.4807C1034.72 33.9793 1034.62 33.398 1034.62 32.7367V32.4807C1034.62 31.83 1034.72 31.254 1034.91 30.7527C1035.1 30.2513 1035.36 29.83 1035.69 29.4887C1036.03 29.1367 1036.43 28.87 1036.88 28.6887C1037.32 28.5073 1037.8 28.4167 1038.3 28.4167C1038.84 28.4167 1039.33 28.5393 1039.77 28.7847C1040.22 29.0193 1040.57 29.3873 1040.83 29.8887H1041.02V28.6407H1042.27V34.9447C1042.27 35.2647 1042.41 35.4247 1042.7 35.4247H1043.1V36.5767H1042.25C1041.89 36.5767 1041.59 36.4593 1041.36 36.2247C1041.13 35.99 1041.02 35.6913 1041.02 35.3287V35.2327ZM1038.46 35.6167C1038.83 35.6167 1039.17 35.5473 1039.48 35.4087C1039.8 35.27 1040.08 35.0727 1040.3 34.8167C1040.52 34.5607 1040.7 34.2567 1040.83 33.9047C1040.96 33.542 1041.02 33.142 1041.02 32.7047V32.5127C1041.02 32.086 1040.96 31.6967 1040.83 31.3447C1040.7 30.982 1040.52 30.6727 1040.28 30.4167C1040.06 30.1607 1039.79 29.9633 1039.47 29.8247C1039.16 29.6753 1038.82 29.6007 1038.46 29.6007C1038.09 29.6007 1037.74 29.67 1037.44 29.8087C1037.13 29.9473 1036.85 30.1447 1036.62 30.4007C1036.4 30.646 1036.22 30.95 1036.09 31.3127C1035.96 31.6647 1035.9 32.054 1035.9 32.4807V32.7367C1035.9 33.6433 1036.13 34.3527 1036.6 34.8647C1037.08 35.366 1037.7 35.6167 1038.46 35.6167Z" fill="#202020"/>
<path d="M1044.78 28.6407H1047.28V25.3767H1048.53V28.6407H1051.6V29.7927H1048.53V34.9447C1048.53 35.2647 1048.67 35.4247 1048.96 35.4247H1051.22V36.5767H1048.51C1048.15 36.5767 1047.85 36.4593 1047.62 36.2247C1047.39 35.99 1047.28 35.6913 1047.28 35.3287V29.7927H1044.78V28.6407Z" fill="#202020"/>
<path d="M1055.76 32.9927C1055.8 33.782 1056.04 34.4167 1056.5 34.8967C1056.96 35.3767 1057.6 35.6167 1058.42 35.6167C1058.79 35.6167 1059.12 35.574 1059.4 35.4887C1059.67 35.4033 1059.91 35.286 1060.1 35.1367C1060.3 34.9873 1060.46 34.8167 1060.58 34.6247C1060.71 34.422 1060.81 34.2087 1060.88 33.9847L1062.07 34.3047C1061.84 35.0407 1061.43 35.6433 1060.82 36.1127C1060.22 36.5713 1059.41 36.8007 1058.39 36.8007C1057.82 36.8007 1057.3 36.7047 1056.82 36.5127C1056.35 36.31 1055.95 36.0273 1055.6 35.6647C1055.26 35.302 1055 34.87 1054.8 34.3687C1054.61 33.8673 1054.52 33.3127 1054.52 32.7047V32.3207C1054.52 31.766 1054.61 31.2487 1054.8 30.7687C1055.01 30.2887 1055.28 29.878 1055.64 29.5367C1055.99 29.1847 1056.4 28.9127 1056.87 28.7207C1057.35 28.518 1057.87 28.4167 1058.42 28.4167C1059.07 28.4167 1059.63 28.5393 1060.1 28.7847C1060.58 29.0193 1060.97 29.3127 1061.27 29.6647C1061.58 30.0167 1061.8 30.4007 1061.94 30.8167C1062.09 31.2327 1062.16 31.6167 1062.16 31.9687V32.9927H1055.76ZM1058.42 29.6007C1058.07 29.6007 1057.74 29.6593 1057.43 29.7767C1057.13 29.8833 1056.86 30.038 1056.63 30.2407C1056.4 30.4433 1056.22 30.6833 1056.07 30.9607C1055.93 31.2273 1055.84 31.5207 1055.8 31.8407H1060.92C1060.9 31.4993 1060.81 31.19 1060.66 30.9127C1060.52 30.6353 1060.34 30.4007 1060.1 30.2087C1059.88 30.0167 1059.62 29.8673 1059.32 29.7607C1059.03 29.654 1058.73 29.6007 1058.42 29.6007Z" fill="#202020"/>
<path d="M1075.69 36.5767H1074.45V28.6407H1075.69V29.9847H1075.89C1076.38 28.9393 1077.23 28.4167 1078.45 28.4167C1079.36 28.4167 1080.09 28.7047 1080.64 29.2807C1081.18 29.846 1081.45 30.6993 1081.45 31.8407V36.5767H1080.21V32.0967C1080.21 31.2647 1080.02 30.6407 1079.65 30.2247C1079.27 29.8087 1078.77 29.6007 1078.13 29.6007C1077.37 29.6007 1076.77 29.862 1076.33 30.3847C1075.91 30.8967 1075.69 31.5847 1075.69 32.4487V36.5767Z" fill="#202020"/>
<path d="M1085.16 32.9927C1085.19 33.782 1085.43 34.4167 1085.89 34.8967C1086.35 35.3767 1086.99 35.6167 1087.81 35.6167C1088.18 35.6167 1088.51 35.574 1088.79 35.4887C1089.06 35.4033 1089.3 35.286 1089.49 35.1367C1089.69 34.9873 1089.85 34.8167 1089.97 34.6247C1090.1 34.422 1090.2 34.2087 1090.28 33.9847L1091.46 34.3047C1091.24 35.0407 1090.82 35.6433 1090.21 36.1127C1089.61 36.5713 1088.8 36.8007 1087.78 36.8007C1087.21 36.8007 1086.69 36.7047 1086.21 36.5127C1085.74 36.31 1085.34 36.0273 1085 35.6647C1084.65 35.302 1084.39 34.87 1084.2 34.3687C1084 33.8673 1083.91 33.3127 1083.91 32.7047V32.3207C1083.91 31.766 1084 31.2487 1084.2 30.7687C1084.4 30.2887 1084.68 29.878 1085.03 29.5367C1085.38 29.1847 1085.79 28.9127 1086.26 28.7207C1086.74 28.518 1087.26 28.4167 1087.81 28.4167C1088.46 28.4167 1089.02 28.5393 1089.49 28.7847C1089.97 29.0193 1090.36 29.3127 1090.66 29.6647C1090.97 30.0167 1091.19 30.4007 1091.33 30.8167C1091.48 31.2327 1091.56 31.6167 1091.56 31.9687V32.9927H1085.16ZM1087.81 29.6007C1087.46 29.6007 1087.13 29.6593 1086.82 29.7767C1086.52 29.8833 1086.25 30.038 1086.02 30.2407C1085.8 30.4433 1085.61 30.6833 1085.46 30.9607C1085.32 31.2273 1085.23 31.5207 1085.19 31.8407H1090.31C1090.29 31.4993 1090.2 31.19 1090.05 30.9127C1089.91 30.6353 1089.73 30.4007 1089.49 30.2087C1089.27 30.0167 1089.01 29.8673 1088.71 29.7607C1088.42 29.654 1088.12 29.6007 1087.81 29.6007Z" fill="#202020"/>
<path d="M1099.7 28.6407H1100.95V36.5767H1099.7V35.1367H1099.51C1099.26 35.6487 1098.92 36.054 1098.5 36.3527C1098.09 36.6513 1097.56 36.8007 1096.92 36.8007C1096.48 36.8007 1096.08 36.726 1095.7 36.5767C1095.34 36.438 1095.03 36.2247 1094.76 35.9367C1094.5 35.6487 1094.3 35.2913 1094.15 34.8647C1094.01 34.438 1093.94 33.942 1093.94 33.3767V28.6407H1095.19V33.2167C1095.19 34.0487 1095.36 34.6567 1095.7 35.0407C1096.05 35.4247 1096.57 35.6167 1097.27 35.6167C1098.03 35.6167 1098.62 35.3607 1099.05 34.8487C1099.49 34.326 1099.7 33.6327 1099.7 32.7687V28.6407Z" fill="#202020"/>
<path d="M1103.57 28.6407H1106.06V25.3767H1107.31V28.6407H1110.38V29.7927H1107.31V34.9447C1107.31 35.2647 1107.45 35.4247 1107.74 35.4247H1110V36.5767H1107.29C1106.93 36.5767 1106.63 36.4593 1106.4 36.2247C1106.17 35.99 1106.06 35.6913 1106.06 35.3287V29.7927H1103.57V28.6407Z" fill="#202020"/>
<path d="M1113.19 28.6407H1116.07V29.6967H1116.26C1116.46 29.2593 1116.75 28.9393 1117.12 28.7367C1117.5 28.5233 1117.92 28.4167 1118.4 28.4167C1119.2 28.4167 1119.85 28.678 1120.34 29.2007C1120.83 29.7233 1121.09 30.486 1121.12 31.4887L1119.81 31.6807C1119.81 30.9447 1119.63 30.4167 1119.28 30.0967C1118.93 29.766 1118.5 29.6007 1117.99 29.6007C1117.66 29.6007 1117.37 29.6647 1117.12 29.7927C1116.89 29.9207 1116.69 30.0967 1116.53 30.3207C1116.37 30.5447 1116.25 30.806 1116.18 31.1047C1116.1 31.4033 1116.07 31.7233 1116.07 32.0647V35.4247H1118.08V36.5767H1112.99V35.4247H1114.82V29.7927H1113.19V28.6407Z" fill="#202020"/>
<path d="M1129.19 35.2327H1129C1128.74 35.766 1128.39 36.1607 1127.93 36.4167C1127.48 36.6727 1127 36.8007 1126.5 36.8007C1125.98 36.8007 1125.5 36.7153 1125.05 36.5447C1124.6 36.3633 1124.2 36.102 1123.86 35.7607C1123.53 35.4087 1123.27 34.982 1123.08 34.4807C1122.89 33.9793 1122.79 33.398 1122.79 32.7367V32.4807C1122.79 31.83 1122.89 31.254 1123.08 30.7527C1123.27 30.2513 1123.53 29.83 1123.86 29.4887C1124.2 29.1367 1124.6 28.87 1125.05 28.6887C1125.5 28.5073 1125.97 28.4167 1126.47 28.4167C1127.02 28.4167 1127.51 28.5393 1127.94 28.7847C1128.39 29.0193 1128.74 29.3873 1129 29.8887H1129.19V28.6407H1130.44V34.9447C1130.44 35.2647 1130.58 35.4247 1130.87 35.4247H1131.27V36.5767H1130.42C1130.06 36.5767 1129.76 36.4593 1129.53 36.2247C1129.3 35.99 1129.19 35.6913 1129.19 35.3287V35.2327ZM1126.63 35.6167C1127 35.6167 1127.35 35.5473 1127.66 35.4087C1127.98 35.27 1128.25 35.0727 1128.47 34.8167C1128.7 34.5607 1128.87 34.2567 1129 33.9047C1129.13 33.542 1129.19 33.142 1129.19 32.7047V32.5127C1129.19 32.086 1129.13 31.6967 1129 31.3447C1128.87 30.982 1128.69 30.6727 1128.46 30.4167C1128.23 30.1607 1127.96 29.9633 1127.64 29.8247C1127.33 29.6753 1126.99 29.6007 1126.63 29.6007C1126.26 29.6007 1125.92 29.67 1125.61 29.8087C1125.3 29.9473 1125.03 30.1447 1124.79 30.4007C1124.57 30.646 1124.39 30.95 1124.26 31.3127C1124.14 31.6647 1124.07 32.054 1124.07 32.4807V32.7367C1124.07 33.6433 1124.31 34.3527 1124.78 34.8647C1125.26 35.366 1125.87 35.6167 1126.63 35.6167Z" fill="#202020"/>
<path d="M1133.23 35.4247H1136.11V26.5287H1133.32V25.3767H1137.36V35.4247H1140.24V36.5767H1133.23V35.4247Z" fill="#202020"/>
<path d="M0.398438 1.57666H1920.4V-0.42334H0.398438V1.57666ZM1920.4 59.5767H0.398438V61.5767H1920.4V59.5767Z" fill="#1D1D1B" mask="url(#path-1-inside-1_5_671)"/>
</svg>
