<svg width="73" height="35" viewBox="0 0 73 35" fill="none" xmlns="http://www.w3.org/2000/svg">
<rect width="71.8125" height="34" transform="translate(0.585938 0.0297852)" fill="#1D1D1B"/>
<path d="M23.9453 24.1704C22.5332 24.1704 21.5137 23.8188 20.8867 23.1157C20.2656 22.4126 19.9551 21.2935 19.9551 19.7583V18.2466H23.0137V20.1802C23.0137 20.5376 23.0664 20.8188 23.1719 21.0239C23.2832 21.2231 23.4736 21.3228 23.7432 21.3228C24.0244 21.3228 24.2178 21.2407 24.3232 21.0767C24.4346 20.9126 24.4902 20.6431 24.4902 20.2681C24.4902 19.7935 24.4434 19.3979 24.3496 19.0815C24.2559 18.7593 24.0918 18.4546 23.8574 18.1675C23.6289 17.8745 23.3096 17.5347 22.8994 17.1479L21.5107 15.8296C20.4736 14.8511 19.9551 13.7319 19.9551 12.4722C19.9551 11.1538 20.2598 10.1489 20.8691 9.45752C21.4844 8.76611 22.3721 8.42041 23.5322 8.42041C24.9502 8.42041 25.9551 8.79834 26.5469 9.5542C27.1445 10.3101 27.4434 11.4585 27.4434 12.9995H24.2969V11.936C24.2969 11.7251 24.2354 11.561 24.1123 11.4438C23.9951 11.3267 23.834 11.2681 23.6289 11.2681C23.3828 11.2681 23.2012 11.3384 23.084 11.479C22.9727 11.6138 22.917 11.7896 22.917 12.0063C22.917 12.2231 22.9756 12.4575 23.0928 12.7095C23.21 12.9614 23.4414 13.2515 23.7871 13.5796L25.5713 15.2935C25.9287 15.6333 26.2568 15.9937 26.5557 16.3745C26.8545 16.7495 27.0947 17.189 27.2764 17.6929C27.458 18.1909 27.5488 18.8003 27.5488 19.521C27.5488 20.9741 27.2793 22.1138 26.7402 22.9399C26.207 23.7603 25.2754 24.1704 23.9453 24.1704ZM32.4573 24.1704C31.221 24.1704 30.2747 23.7983 29.6185 23.0542C28.9681 22.3042 28.6429 21.2231 28.6429 19.811V12.4634C28.6429 11.1392 28.9652 10.1343 29.6097 9.44873C30.2601 8.76318 31.2093 8.42041 32.4573 8.42041C33.7054 8.42041 34.6517 8.76318 35.2962 9.44873C35.9466 10.1343 36.2718 11.1392 36.2718 12.4634V19.811C36.2718 21.2231 35.9437 22.3042 35.2874 23.0542C34.637 23.7983 33.6937 24.1704 32.4573 24.1704ZM32.4837 21.3228C32.9525 21.3228 33.1868 20.8687 33.1868 19.9604V12.4106C33.1868 11.6489 32.9583 11.2681 32.5013 11.2681C31.9857 11.2681 31.7279 11.6577 31.7279 12.437V19.978C31.7279 20.4585 31.7864 20.8042 31.9036 21.0151C32.0208 21.2202 32.2142 21.3228 32.4837 21.3228ZM37.6998 24.0298V8.56104H40.7936V21.3931H43.9752V24.0298H37.6998ZM45.0341 24.0298V8.56104H49.288C50.4013 8.56104 51.2392 8.87158 51.8017 9.49268C52.3642 10.1079 52.6455 11.0103 52.6455 12.1997V19.4419C52.6455 20.9067 52.3877 22.0376 51.872 22.8345C51.3623 23.6313 50.4658 24.0298 49.1826 24.0298H45.0341ZM48.1455 21.2964H48.6816C49.25 21.2964 49.5341 21.021 49.5341 20.4702V12.4897C49.5341 11.9741 49.4638 11.6431 49.3232 11.4966C49.1884 11.3442 48.9101 11.2681 48.4882 11.2681H48.1455V21.2964Z" fill="white"/>
</svg>
